{"scene":0,"scenes":[{"nodes":[0],"extras":{"file_path":"/home/mspatz/code/Universal_Robots_ROS2_Description/meshes/ur3/visual/wrist1.dae","file_name":"wrist1.dae"}}],"asset":{"version":"2.0","generator":"https://github.com/mikedh/trimesh"},"accessors":[{"componentType":5125,"type":"SCALAR","bufferView":0,"count":7476,"max":[2875],"min":[0]},{"componentType":5126,"type":"VEC3","byteOffset":0,"bufferView":1,"count":2876,"max":[0.03149819001555443,0.11466430127620697,0.04235367849469185],"min":[-0.03153878077864647,0.038599368184804916,-0.03671007975935936]},{"componentType":5126,"count":2876,"type":"VEC3","byteOffset":0,"bufferView":2,"max":[0.999999463558197,0.9999923706054688,1.0],"min":[-0.9999874234199524,-1.0,-0.9999966621398926]},{"componentType":5125,"type":"SCALAR","bufferView":3,"count":330,"max":[113],"min":[0]},{"componentType":5126,"type":"VEC3","byteOffset":0,"bufferView":4,"count":114,"max":[0.03179305046796799,0.04809962958097458,0.03123527020215988],"min":[-0.031614840030670166,0.04229937866330147,-0.03191870078444481]},{"componentType":5126,"count":114,"type":"VEC3","byteOffset":0,"bufferView":5,"max":[0.9999881386756897,1.0,0.9989637136459351],"min":[-0.9991441369056702,-1.0,-0.9958599209785461]},{"componentType":5125,"type":"SCALAR","bufferView":6,"count":13902,"max":[5640],"min":[0]},{"componentType":5126,"type":"VEC3","byteOffset":0,"bufferView":7,"count":5641,"max":[0.032263629138469696,0.11538010090589523,-0.019034799188375473],"min":[-0.032207898795604706,0.051077958196401596,-0.04639875143766403]},{"componentType":5126,"count":5641,"type":"VEC3","byteOffset":0,"bufferView":8,"max":[0.9998771548271179,0.9991780519485474,1.0],"min":[-0.9996459484100342,-0.999171257019043,-0.9999902844429016]}],"meshes":[{"name":"Part__Feature027-mesh","extras":{"units":"meters","processed":true},"primitives":[{"attributes":{"POSITION":1,"NORMAL":2},"indices":0,"mode":4,"material":0}]},{"name":"Part__Feature028-mesh","extras":{"units":"meters","processed":true},"primitives":[{"attributes":{"POSITION":4,"NORMAL":5},"indices":3,"mode":4,"material":0}]},{"name":"Part__Feature033-mesh","extras":{"units":"meters","processed":true},"primitives":[{"attributes":{"POSITION":7,"NORMAL":8},"indices":6,"mode":4,"material":1}]}],"materials":[{"pbrMetallicRoughness":{"baseColorFactor":[0.1411764705882353,0.1411764705882353,0.1411764705882353,1.0],"roughnessFactor":0.816496580927726,"metallicFactor":0.0},"emissiveFactor":[0.0,0.0,0.0],"doubleSided":false},{"pbrMetallicRoughness":{"baseColorFactor":[0.25098039215686274,0.34901960784313724,0.40784313725490196,1.0],"roughnessFactor":0.816496580927726,"metallicFactor":0.0},"emissiveFactor":[0.0,0.0,0.0],"doubleSided":false}],"nodes":[{"name":"world","children":[1,2,3]},{"name":"Part__Feature027-mesh","mesh":0,"matrix":[1.0,0.0,0.0,0.0,0.0,6.123233995736766e-17,-1.0,0.0,0.0,1.0,6.123233995736766e-17,0.0,0.0,0.0,0.0,1.0]},{"name":"Part__Feature028-mesh","mesh":1,"matrix":[1.0,0.0,0.0,0.0,0.0,6.123233995736766e-17,-1.0,0.0,0.0,1.0,6.123233995736766e-17,0.0,0.0,0.0,0.0,1.0]},{"name":"Part__Feature033-mesh","mesh":2,"matrix":[1.0,0.0,0.0,0.0,0.0,6.123233995736766e-17,-1.0,0.0,0.0,1.0,6.123233995736766e-17,0.0,0.0,0.0,0.0,1.0]}],"buffers":[{"uri":"gltf_buffer_0.bin","byteLength":29904},{"uri":"gltf_buffer_1.bin","byteLength":34512},{"uri":"gltf_buffer_2.bin","byteLength":34512},{"uri":"gltf_buffer_3.bin","byteLength":1320},{"uri":"gltf_buffer_4.bin","byteLength":1368},{"uri":"gltf_buffer_5.bin","byteLength":1368},{"uri":"gltf_buffer_6.bin","byteLength":55608},{"uri":"gltf_buffer_7.bin","byteLength":67692},{"uri":"gltf_buffer_8.bin","byteLength":67692}],"bufferViews":[{"buffer":0,"byteOffset":0,"byteLength":29904},{"buffer":1,"byteOffset":0,"byteLength":34512},{"buffer":2,"byteOffset":0,"byteLength":34512},{"buffer":3,"byteOffset":0,"byteLength":1320},{"buffer":4,"byteOffset":0,"byteLength":1368},{"buffer":5,"byteOffset":0,"byteLength":1368},{"buffer":6,"byteOffset":0,"byteLength":55608},{"buffer":7,"byteOffset":0,"byteLength":67692},{"buffer":8,"byteOffset":0,"byteLength":67692}]}