{"scene":0,"scenes":[{"nodes":[0],"extras":{"file_path":"/home/mspatz/code/Universal_Robots_ROS2_Description/meshes/ur5e/visual/forearm.dae","file_name":"forearm.dae"}}],"asset":{"version":"2.0","generator":"https://github.com/mikedh/trimesh"},"accessors":[{"componentType":5125,"type":"SCALAR","bufferView":0,"count":11451,"max":[9857],"min":[0]},{"componentType":5126,"type":"VEC3","byteOffset":0,"bufferView":1,"count":9858,"max":[37.839420318603516,429.5690002441406,45.899940490722656],"min":[-37.85340881347656,345.8924865722656,-40.70903015136719]},{"componentType":5126,"count":9858,"type":"VEC3","byteOffset":0,"bufferView":2,"max":[0.9999999403953552,1.0,1.0],"min":[-0.9999999403953552,-1.0,-1.0]},{"componentType":5125,"type":"SCALAR","bufferView":3,"count":2052,"max":[2017],"min":[0]},{"componentType":5126,"type":"VEC3","byteOffset":0,"bufferView":4,"count":2018,"max":[57.79315948486328,63.092529296875,53.216609954833984],"min":[-58.03609085083008,-58.35523986816406,-48.30617904663086]},{"componentType":5126,"count":2018,"type":"VEC3","byteOffset":0,"bufferView":5,"max":[0.9999487400054932,1.0,0.9968332052230835],"min":[-0.9984181523323059,-0.9995213747024536,-0.998806357383728]},{"componentType":5125,"type":"SCALAR","bufferView":6,"count":3960,"max":[3673],"min":[0]},{"componentType":5126,"type":"VEC3","byteOffset":0,"bufferView":7,"count":3674,"max":[47.96839904785156,76.4940414428711,47.596778869628906],"min":[-47.96839141845703,63.090980529785156,-48.40007019042969]},{"componentType":5126,"count":3674,"type":"VEC3","byteOffset":0,"bufferView":8,"max":[0.9993788599967957,0.9998955130577087,0.997651219367981],"min":[-0.9993788599967957,-0.9998964667320251,-0.9999995231628418]},{"componentType":5125,"type":"SCALAR","bufferView":9,"count":963,"max":[855],"min":[0]},{"componentType":5126,"type":"VEC3","byteOffset":0,"bufferView":10,"count":856,"max":[47.86455154418945,339.0928955078125,47.52183151245117],"min":[-47.9233283996582,76.4919204711914,-48.32685089111328]},{"componentType":5126,"count":856,"type":"VEC3","byteOffset":0,"bufferView":11,"max":[0.9992815852165222,1.0,0.9994876980781555],"min":[-0.9988545179367065,-0.06648330390453339,-0.9985501170158386]},{"componentType":5125,"type":"SCALAR","bufferView":12,"count":3840,"max":[3635],"min":[0]},{"componentType":5126,"type":"VEC3","byteOffset":0,"bufferView":13,"count":3636,"max":[37.489498138427734,345.8924865722656,37.08943176269531],"min":[-37.5,339.0924987792969,-37.88956069946289]},{"componentType":5126,"count":3636,"type":"VEC3","byteOffset":0,"bufferView":14,"max":[0.9982046484947205,0.9893063902854919,0.9982047080993652],"min":[-0.9999970197677612,-0.9949925541877747,-0.9982047080993652]},{"componentType":5125,"type":"SCALAR","bufferView":15,"count":19620,"max":[18530],"min":[0]},{"componentType":5126,"type":"VEC3","byteOffset":0,"bufferView":16,"count":18531,"max":[39.33987045288086,431.0752868652344,-7.243645191192627],"min":[-39.35511016845703,352.4012145996094,-56.45219039916992]},{"componentType":5126,"count":18531,"type":"VEC3","byteOffset":0,"bufferView":17,"max":[0.9998111128807068,0.9996375441551208,0.9988857507705688],"min":[-0.999838650226593,-0.9998405575752258,-1.0]},{"componentType":5125,"type":"SCALAR","bufferView":18,"count":3288,"max":[2896],"min":[0]},{"componentType":5126,"type":"VEC3","byteOffset":0,"bufferView":19,"count":2897,"max":[37.497520446777344,429.2301940917969,53.449928283691406],"min":[-37.53715133666992,354.215087890625,45.899940490722656]},{"componentType":5126,"count":2897,"type":"VEC3","byteOffset":0,"bufferView":20,"max":[0.9991199374198914,0.9995111227035522,0.9999999403953552],"min":[-0.9999587535858154,-0.9998863339424133,-1.0]}],"meshes":[{"name":"eSeries_UR5e_028-mesh","extras":{"units":"meters","processed":true},"primitives":[{"attributes":{"POSITION":1,"NORMAL":2},"indices":0,"mode":4,"material":0}]},{"name":"eSeries_UR5e_077-mesh","extras":{"units":"meters","processed":true},"primitives":[{"attributes":{"POSITION":4,"NORMAL":5},"indices":3,"mode":4,"material":0}]},{"name":"eSeries_UR5e_078-mesh","extras":{"units":"meters","processed":true},"primitives":[{"attributes":{"POSITION":7,"NORMAL":8},"indices":6,"mode":4,"material":1}]},{"name":"eSeries_UR5e_079-mesh","extras":{"units":"meters","processed":true},"primitives":[{"attributes":{"POSITION":10,"NORMAL":11},"indices":9,"mode":4,"material":2}]},{"name":"eSeries_UR5e_080-mesh","extras":{"units":"meters","processed":true},"primitives":[{"attributes":{"POSITION":13,"NORMAL":14},"indices":12,"mode":4,"material":1}]},{"name":"eSeries_UR5e_081-mesh","extras":{"units":"meters","processed":true},"primitives":[{"attributes":{"POSITION":16,"NORMAL":17},"indices":15,"mode":4,"material":3}]},{"name":"eSeries_UR5e_082-mesh","extras":{"units":"meters","processed":true},"primitives":[{"attributes":{"POSITION":19,"NORMAL":20},"indices":18,"mode":4,"material":1}]}],"materials":[{"pbrMetallicRoughness":{"baseColorFactor":[0.2784313725490196,0.2784313725490196,0.2784313725490196,1.0],"roughnessFactor":1.0,"metallicFactor":0.0},"emissiveFactor":[0.0,0.0,0.0],"doubleSided":false},{"pbrMetallicRoughness":{"baseColorFactor":[0.03137254901960784,0.03137254901960784,0.03137254901960784,1.0],"roughnessFactor":1.0,"metallicFactor":0.0},"emissiveFactor":[0.0,0.0,0.0],"doubleSided":false},{"pbrMetallicRoughness":{"baseColorFactor":[0.8196078431372549,0.8196078431372549,0.8196078431372549,1.0],"roughnessFactor":1.0,"metallicFactor":0.0},"emissiveFactor":[0.0,0.0,0.0],"doubleSided":false},{"pbrMetallicRoughness":{"baseColorFactor":[0.49019607843137253,0.6784313725490196,0.8,1.0],"roughnessFactor":1.0,"metallicFactor":0.0},"emissiveFactor":[0.0,0.0,0.0],"doubleSided":false}],"nodes":[{"name":"world","children":[1,2,3,4,5,6,7]},{"name":"eSeries_UR5e_028-mesh","mesh":0,"matrix":[-0.0009999870089814067,-1.995176172649485e-26,3.2583699627330986e-10,0.0,0.0,0.0009999870089814067,-4.371079880810261e-11,0.0,-3.2583699627330986e-10,-4.371079880810261e-11,-0.0009999870089814067,0.0,0.0,0.0,0.0,1.0]},{"name":"eSeries_UR5e_077-mesh","mesh":1,"matrix":[-0.0009999870089814067,-1.995176172649485e-26,3.2583699627330986e-10,0.0,0.0,0.0009999870089814067,-4.371079880810261e-11,0.0,-3.2583699627330986e-10,-4.371079880810261e-11,-0.0009999870089814067,0.0,0.0,0.0,0.0,1.0]},{"name":"eSeries_UR5e_078-mesh","mesh":2,"matrix":[-0.0009999870089814067,-1.995176172649485e-26,3.2583699627330986e-10,0.0,0.0,0.0009999870089814067,-4.371079880810261e-11,0.0,-3.2583699627330986e-10,-4.371079880810261e-11,-0.0009999870089814067,0.0,0.0,0.0,0.0,1.0]},{"name":"eSeries_UR5e_079-mesh","mesh":3,"matrix":[-0.0009999870089814067,-1.995176172649485e-26,3.2583699627330986e-10,0.0,0.0,0.0009999870089814067,-4.371079880810261e-11,0.0,-3.2583699627330986e-10,-4.371079880810261e-11,-0.0009999870089814067,0.0,0.0,0.0,0.0,1.0]},{"name":"eSeries_UR5e_080-mesh","mesh":4,"matrix":[-0.0009999870089814067,-1.995176172649485e-26,3.2583699627330986e-10,0.0,0.0,0.0009999870089814067,-4.371079880810261e-11,0.0,-3.2583699627330986e-10,-4.371079880810261e-11,-0.0009999870089814067,0.0,0.0,0.0,0.0,1.0]},{"name":"eSeries_UR5e_081-mesh","mesh":5,"matrix":[-0.0009999870089814067,-1.995176172649485e-26,3.2583699627330986e-10,0.0,0.0,0.0009999870089814067,-4.371079880810261e-11,0.0,-3.2583699627330986e-10,-4.371079880810261e-11,-0.0009999870089814067,0.0,0.0,0.0,0.0,1.0]},{"name":"eSeries_UR5e_082-mesh","mesh":6,"matrix":[-0.0009999870089814067,-1.995176172649485e-26,3.2583699627330986e-10,0.0,0.0,0.0009999870089814067,-4.371079880810261e-11,0.0,-3.2583699627330986e-10,-4.371079880810261e-11,-0.0009999870089814067,0.0,0.0,0.0,0.0,1.0]}],"buffers":[{"uri":"gltf_buffer_0.bin","byteLength":45804},{"uri":"gltf_buffer_1.bin","byteLength":118296},{"uri":"gltf_buffer_2.bin","byteLength":118296},{"uri":"gltf_buffer_3.bin","byteLength":8208},{"uri":"gltf_buffer_4.bin","byteLength":24216},{"uri":"gltf_buffer_5.bin","byteLength":24216},{"uri":"gltf_buffer_6.bin","byteLength":15840},{"uri":"gltf_buffer_7.bin","byteLength":44088},{"uri":"gltf_buffer_8.bin","byteLength":44088},{"uri":"gltf_buffer_9.bin","byteLength":3852},{"uri":"gltf_buffer_10.bin","byteLength":10272},{"uri":"gltf_buffer_11.bin","byteLength":10272},{"uri":"gltf_buffer_12.bin","byteLength":15360},{"uri":"gltf_buffer_13.bin","byteLength":43632},{"uri":"gltf_buffer_14.bin","byteLength":43632},{"uri":"gltf_buffer_15.bin","byteLength":78480},{"uri":"gltf_buffer_16.bin","byteLength":222372},{"uri":"gltf_buffer_17.bin","byteLength":222372},{"uri":"gltf_buffer_18.bin","byteLength":13152},{"uri":"gltf_buffer_19.bin","byteLength":34764},{"uri":"gltf_buffer_20.bin","byteLength":34764}],"bufferViews":[{"buffer":0,"byteOffset":0,"byteLength":45804},{"buffer":1,"byteOffset":0,"byteLength":118296},{"buffer":2,"byteOffset":0,"byteLength":118296},{"buffer":3,"byteOffset":0,"byteLength":8208},{"buffer":4,"byteOffset":0,"byteLength":24216},{"buffer":5,"byteOffset":0,"byteLength":24216},{"buffer":6,"byteOffset":0,"byteLength":15840},{"buffer":7,"byteOffset":0,"byteLength":44088},{"buffer":8,"byteOffset":0,"byteLength":44088},{"buffer":9,"byteOffset":0,"byteLength":3852},{"buffer":10,"byteOffset":0,"byteLength":10272},{"buffer":11,"byteOffset":0,"byteLength":10272},{"buffer":12,"byteOffset":0,"byteLength":15360},{"buffer":13,"byteOffset":0,"byteLength":43632},{"buffer":14,"byteOffset":0,"byteLength":43632},{"buffer":15,"byteOffset":0,"byteLength":78480},{"buffer":16,"byteOffset":0,"byteLength":222372},{"buffer":17,"byteOffset":0,"byteLength":222372},{"buffer":18,"byteOffset":0,"byteLength":13152},{"buffer":19,"byteOffset":0,"byteLength":34764},{"buffer":20,"byteOffset":0,"byteLength":34764}]}