{"scene":0,"scenes":[{"nodes":[0],"extras":{"file_path":"/home/mspatz/code/Universal_Robots_ROS2_Description/meshes/ur20/visual/wrist2.dae","file_name":"wrist2.dae"}}],"asset":{"version":"2.0","generator":"https://github.com/mikedh/trimesh"},"accessors":[{"componentType":5125,"type":"SCALAR","bufferView":0,"count":3918,"max":[973],"min":[0]},{"componentType":5126,"type":"VEC3","byteOffset":0,"bufferView":1,"count":974,"max":[0.05021965131163597,0.08438295125961304,0.1247124969959259],"min":[-0.05035638064146042,-0.05383902043104172,0.013299879617989063]},{"componentType":5126,"type":"VEC2","byteOffset":0,"bufferView":3,"count":974,"max":[0.9451236724853516,0.4845306873321533],"min":[0.001072764047421515,0.0033822059631347656]},{"componentType":5126,"count":974,"type":"VEC3","byteOffset":0,"bufferView":4,"max":[0.9999986886978149,1.0,0.9999955892562866],"min":[-0.9999958276748657,-1.0,-0.9999955892562866]},{"componentType":5125,"type":"SCALAR","bufferView":5,"count":408,"max":[151],"min":[0]},{"componentType":5126,"type":"VEC3","byteOffset":0,"bufferView":6,"count":152,"max":[0.04998087137937546,0.08268362283706665,0.11800190061330795],"min":[-0.050049420446157455,-0.05000615119934082,-0.006650090217590332]},{"componentType":5126,"type":"VEC2","byteOffset":0,"bufferView":7,"count":152,"max":[0.994694173336029,0.8729051351547241],"min":[0.4285360872745514,0.0033785104751586914]},{"componentType":5126,"count":152,"type":"VEC3","byteOffset":0,"bufferView":8,"max":[0.9999921321868896,0.9999964237213135,0.9969120621681213],"min":[-0.999993622303009,-0.9999999403953552,-0.9963423013687134]}],"meshes":[{"name":"Cylinder_006-mesh","extras":{"units":"meters","processed":true},"primitives":[{"attributes":{"POSITION":1,"TEXCOORD_0":2,"NORMAL":3},"indices":0,"mode":4,"material":0}]},{"name":"Cylinder_007-mesh","extras":{"units":"meters","processed":true},"primitives":[{"attributes":{"POSITION":5,"TEXCOORD_0":6,"NORMAL":7},"indices":4,"mode":4,"material":0}]}],"images":[{"bufferView":2,"mimeType":"image/png"}],"textures":[{"source":0}],"materials":[{"pbrMetallicRoughness":{"baseColorTexture":{"index":0},"baseColorFactor":[1.0,1.0,1.0,1.0],"roughnessFactor":1.0,"metallicFactor":0.0},"emissiveFactor":[0.0,0.0,0.0],"doubleSided":false}],"nodes":[{"name":"world","children":[1,2]},{"name":"Cylinder_006-mesh","mesh":0,"matrix":[0.9999999999995387,-8.901180270497441e-07,3.615960155888144e-07,0.0,3.6159601558895774e-07,1.741276684188335e-16,-0.9999999999999346,0.0,8.901180270496859e-07,0.9999999999996041,3.21829639842216e-13,0.0,0.0,0.0,0.0,1.0]},{"name":"Cylinder_007-mesh","mesh":1,"matrix":[0.9999999999995387,-8.901180270497441e-07,3.615960155888144e-07,0.0,3.6159601558895774e-07,1.741276684188335e-16,-0.9999999999999346,0.0,8.901180270496859e-07,0.9999999999996041,3.21829639842216e-13,0.0,0.0,0.006649999879300594,4.071950533257879e-19,1.0]}],"buffers":[{"uri":"gltf_buffer_0.bin","byteLength":15672},{"uri":"gltf_buffer_1.bin","byteLength":11688},{"uri":"gltf_buffer_2.bin","byteLength":1276308},{"uri":"gltf_buffer_3.bin","byteLength":7792},{"uri":"gltf_buffer_4.bin","byteLength":11688},{"uri":"gltf_buffer_5.bin","byteLength":1632},{"uri":"gltf_buffer_6.bin","byteLength":1824},{"uri":"gltf_buffer_7.bin","byteLength":1216},{"uri":"gltf_buffer_8.bin","byteLength":1824}],"bufferViews":[{"buffer":0,"byteOffset":0,"byteLength":15672},{"buffer":1,"byteOffset":0,"byteLength":11688},{"buffer":2,"byteOffset":0,"byteLength":1276308},{"buffer":3,"byteOffset":0,"byteLength":7792},{"buffer":4,"byteOffset":0,"byteLength":11688},{"buffer":5,"byteOffset":0,"byteLength":1632},{"buffer":6,"byteOffset":0,"byteLength":1824},{"buffer":7,"byteOffset":0,"byteLength":1216},{"buffer":8,"byteOffset":0,"byteLength":1824}]}