{"scene":0,"scenes":[{"nodes":[0],"extras":{"file_path":"/home/mspatz/code/Universal_Robots_ROS2_Description/meshes/ur10/visual/upperarm.dae","file_name":"upperarm.dae"}}],"asset":{"version":"2.0","generator":"https://github.com/mikedh/trimesh"},"accessors":[{"componentType":5125,"type":"SCALAR","bufferView":0,"count":17988,"max":[5020],"min":[0]},{"componentType":5126,"type":"VEC3","byteOffset":0,"bufferView":1,"count":5021,"max":[0.07501000165939331,0.03630197048187256,0.6710972189903259],"min":[-0.07501000165939331,-0.13500000536441803,-0.07400994747877121]},{"componentType":5126,"count":5021,"type":"VEC3","byteOffset":0,"bufferView":2,"max":[1.0,1.0,1.0],"min":[-1.0,-1.0,-1.0]},{"componentType":5125,"type":"SCALAR","bufferView":3,"count":35994,"max":[13539],"min":[0]},{"componentType":5126,"type":"VEC3","byteOffset":0,"bufferView":4,"count":13540,"max":[0.07515078037977219,0.04220777004957199,0.6737000942230225],"min":[-0.10158409923315048,-0.036345891654491425,-0.0741996094584465]},{"componentType":5126,"count":13540,"type":"VEC3","byteOffset":0,"bufferView":5,"max":[0.9998476505279541,1.0,0.9999896287918091],"min":[-0.9999099373817444,-1.0,-0.9999584555625916]},{"componentType":5125,"type":"SCALAR","bufferView":6,"count":6000,"max":[4498],"min":[0]},{"componentType":5126,"type":"VEC3","byteOffset":0,"bufferView":7,"count":4499,"max":[0.06855440139770508,0.04067695140838623,0.652660071849823],"min":[-0.06868665665388107,-0.002454996109008789,-0.057610150426626205]},{"componentType":5126,"count":4499,"type":"VEC3","byteOffset":0,"bufferView":8,"max":[0.9999964833259583,1.0,0.9999729990959167],"min":[-0.9999765753746033,-1.0,-0.9999768137931824]},{"componentType":5125,"type":"SCALAR","bufferView":9,"count":3000,"max":[744],"min":[0]},{"componentType":5126,"type":"VEC3","byteOffset":0,"bufferView":10,"count":745,"max":[0.0749499723315239,0.02950095944106579,0.5474001169204712],"min":[-0.0749499723315239,-0.11999999731779099,0.0867999717593193]},{"componentType":5126,"count":745,"type":"VEC3","byteOffset":0,"bufferView":11,"max":[1.0,1.0,1.0],"min":[-1.0,-1.0,-1.0]}],"meshes":[{"name":"shape0_001-mesh","extras":{"units":"meters","processed":true},"primitives":[{"attributes":{"POSITION":1,"NORMAL":2},"indices":0,"mode":4,"material":0}]},{"name":"shape1_001-mesh","extras":{"units":"meters","processed":true},"primitives":[{"attributes":{"POSITION":4,"NORMAL":5},"indices":3,"mode":4,"material":1}]},{"name":"shape2_001-mesh","extras":{"units":"meters","processed":true},"primitives":[{"attributes":{"POSITION":7,"NORMAL":8},"indices":6,"mode":4,"material":2}]},{"name":"shape3_001-mesh","extras":{"units":"meters","processed":true},"primitives":[{"attributes":{"POSITION":10,"NORMAL":11},"indices":9,"mode":4,"material":3}]}],"materials":[{"pbrMetallicRoughness":{"baseColorFactor":[0.2235294117647059,0.2235294117647059,0.2235294117647059,1.0],"roughnessFactor":1.0,"metallicFactor":0.0},"emissiveFactor":[0.0,0.0,0.0],"doubleSided":false},{"pbrMetallicRoughness":{"baseColorFactor":[0.39215686274509803,0.5411764705882353,0.6392156862745098,1.0],"roughnessFactor":1.0,"metallicFactor":0.0},"emissiveFactor":[0.0,0.0,0.0],"doubleSided":false},{"pbrMetallicRoughness":{"baseColorFactor":[0.4627450980392157,0.4627450980392157,0.4627450980392157,1.0],"roughnessFactor":1.0,"metallicFactor":0.0},"emissiveFactor":[0.0,0.0,0.0],"doubleSided":false},{"pbrMetallicRoughness":{"baseColorFactor":[0.6549019607843137,0.6549019607843137,0.6549019607843137,1.0],"roughnessFactor":1.0,"metallicFactor":0.0},"emissiveFactor":[0.0,0.0,0.0],"doubleSided":false}],"nodes":[{"name":"world","children":[1,2,3,4]},{"name":"shape0_001-mesh","mesh":0,"matrix":[1.0,0.0,0.0,0.0,0.0,6.123233995736766e-17,-1.0,0.0,0.0,1.0,6.123233995736766e-17,0.0,0.0,0.0,0.0,1.0]},{"name":"shape1_001-mesh","mesh":1,"matrix":[1.0,0.0,0.0,0.0,0.0,6.123233995736766e-17,-1.0,0.0,0.0,1.0,6.123233995736766e-17,0.0,0.0,0.0,0.0,1.0]},{"name":"shape2_001-mesh","mesh":2,"matrix":[1.0,0.0,0.0,0.0,0.0,6.123233995736766e-17,-1.0,0.0,0.0,1.0,6.123233995736766e-17,0.0,0.0,0.0,0.0,1.0]},{"name":"shape3_001-mesh","mesh":3,"matrix":[1.0,0.0,0.0,0.0,0.0,6.123233995736766e-17,-1.0,0.0,0.0,1.0,6.123233995736766e-17,0.0,0.0,0.0,0.0,1.0]}],"buffers":[{"uri":"gltf_buffer_0.bin","byteLength":71952},{"uri":"gltf_buffer_1.bin","byteLength":60252},{"uri":"gltf_buffer_2.bin","byteLength":60252},{"uri":"gltf_buffer_3.bin","byteLength":143976},{"uri":"gltf_buffer_4.bin","byteLength":162480},{"uri":"gltf_buffer_5.bin","byteLength":162480},{"uri":"gltf_buffer_6.bin","byteLength":24000},{"uri":"gltf_buffer_7.bin","byteLength":53988},{"uri":"gltf_buffer_8.bin","byteLength":53988},{"uri":"gltf_buffer_9.bin","byteLength":12000},{"uri":"gltf_buffer_10.bin","byteLength":8940},{"uri":"gltf_buffer_11.bin","byteLength":8940}],"bufferViews":[{"buffer":0,"byteOffset":0,"byteLength":71952},{"buffer":1,"byteOffset":0,"byteLength":60252},{"buffer":2,"byteOffset":0,"byteLength":60252},{"buffer":3,"byteOffset":0,"byteLength":143976},{"buffer":4,"byteOffset":0,"byteLength":162480},{"buffer":5,"byteOffset":0,"byteLength":162480},{"buffer":6,"byteOffset":0,"byteLength":24000},{"buffer":7,"byteOffset":0,"byteLength":53988},{"buffer":8,"byteOffset":0,"byteLength":53988},{"buffer":9,"byteOffset":0,"byteLength":12000},{"buffer":10,"byteOffset":0,"byteLength":8940},{"buffer":11,"byteOffset":0,"byteLength":8940}]}