{"scene":0,"scenes":[{"nodes":[0],"extras":{"file_path":"/home/mspatz/code/Universal_Robots_ROS2_Description/meshes/ur5e/visual/wrist3.dae","file_name":"wrist3.dae"}}],"asset":{"version":"2.0","generator":"https://github.com/mikedh/trimesh"},"accessors":[{"componentType":5125,"type":"SCALAR","bufferView":0,"count":2733,"max":[2209],"min":[0]},{"componentType":5126,"type":"VEC3","byteOffset":0,"bufferView":1,"count":2210,"max":[37.55392074584961,43.517311096191406,98.9365005493164],"min":[-37.548221588134766,-38.054771423339844,53.14773178100586]},{"componentType":5126,"count":2210,"type":"VEC3","byteOffset":0,"bufferView":2,"max":[0.9994611740112305,0.9999998807907104,1.0],"min":[-0.9999656677246094,-0.9998254179954529,-1.0]}],"meshes":[{"name":"eSeries_UR5e_058-mesh","extras":{"units":"meters","processed":true},"primitives":[{"attributes":{"POSITION":1,"NORMAL":2},"indices":0,"mode":4,"material":0}]}],"materials":[{"pbrMetallicRoughness":{"baseColorFactor":[0.8196078431372549,0.8196078431372549,0.8196078431372549,1.0],"roughnessFactor":1.0,"metallicFactor":0.0},"emissiveFactor":[0.0,0.0,0.0],"doubleSided":false}],"nodes":[{"name":"world","children":[1]},{"name":"eSeries_UR5e_058-mesh","mesh":0,"matrix":[-0.0009999870089814067,-1.995176172649485e-26,3.2583699627330986e-10,0.0,0.0,0.0009999870089814067,-4.371079880810261e-11,0.0,-3.2583699627330986e-10,-4.371079880810261e-11,-0.0009999870089814067,0.0,0.0,0.0,0.0,1.0]}],"buffers":[{"uri":"gltf_buffer_0.bin","byteLength":10932},{"uri":"gltf_buffer_1.bin","byteLength":26520},{"uri":"gltf_buffer_2.bin","byteLength":26520}],"bufferViews":[{"buffer":0,"byteOffset":0,"byteLength":10932},{"buffer":1,"byteOffset":0,"byteLength":26520},{"buffer":2,"byteOffset":0,"byteLength":26520}]}