{"scene":0,"scenes":[{"nodes":[0],"extras":{"file_path":"/home/mspatz/code/Universal_Robots_ROS2_Description/meshes/ur20/visual/wrist3.dae","file_name":"wrist3.dae"}}],"asset":{"version":"2.0","generator":"https://github.com/mikedh/trimesh"},"accessors":[{"componentType":5125,"type":"SCALAR","bufferView":0,"count":966,"max":[357],"min":[0]},{"componentType":5126,"type":"VEC3","byteOffset":0,"bufferView":1,"count":358,"max":[0.05000877007842064,0.013549979776144028,0.04995834082365036],"min":[-0.05000913143157959,-0.0002501010021660477,-0.05000602826476097]},{"componentType":5126,"type":"VEC2","byteOffset":0,"bufferView":3,"count":358,"max":[0.9589462280273438,0.49111121892929077],"min":[0.023473680019378662,0.0035213828086853027]},{"componentType":5126,"count":358,"type":"VEC3","byteOffset":0,"bufferView":4,"max":[0.9999955296516418,1.0,0.9999955296516418],"min":[-0.999995231628418,-0.4749132990837097,-0.9999955296516418]},{"componentType":5125,"type":"SCALAR","bufferView":5,"count":5094,"max":[1842],"min":[0]},{"componentType":5126,"type":"VEC3","byteOffset":0,"bufferView":6,"count":1843,"max":[0.04999572038650513,0.06964998692274094,0.05565178021788597],"min":[-0.04999572038650513,0.013549859635531902,-0.05000865086913109]},{"componentType":5126,"type":"VEC2","byteOffset":0,"bufferView":7,"count":1843,"max":[0.9522534012794495,0.9143528938293457],"min":[0.001072764047421515,0.04669231176376343]},{"componentType":5126,"count":1843,"type":"VEC3","byteOffset":0,"bufferView":8,"max":[1.0,1.0,1.0],"min":[-1.0,-1.0,-0.9999960660934448]}],"meshes":[{"name":"Cylinder_045-mesh","extras":{"units":"meters","processed":true},"primitives":[{"attributes":{"POSITION":1,"TEXCOORD_0":2,"NORMAL":3},"indices":0,"mode":4,"material":0}]},{"name":"Cylinder_044-mesh","extras":{"units":"meters","processed":true},"primitives":[{"attributes":{"POSITION":5,"TEXCOORD_0":6,"NORMAL":7},"indices":4,"mode":4,"material":0}]}],"images":[{"bufferView":2,"mimeType":"image/png"}],"textures":[{"source":0}],"materials":[{"pbrMetallicRoughness":{"baseColorTexture":{"index":0},"baseColorFactor":[1.0,1.0,1.0,1.0],"roughnessFactor":1.0,"metallicFactor":0.0},"emissiveFactor":[0.0,0.0,0.0],"doubleSided":false}],"nodes":[{"name":"world","children":[1,2]},{"name":"Cylinder_045-mesh","mesh":0,"matrix":[0.9999999999991623,3.83972065183072e-07,1.2358002117906836e-06,0.0,1.2358002117907746e-06,1.85173556091657e-16,-0.9999999999992363,0.0,-3.839720651827789e-07,0.9999999999999264,-4.745023134692051e-13,0.0,0.0,0.0,0.0,1.0]},{"name":"Cylinder_044-mesh","mesh":1,"matrix":[0.9999999999991623,3.83972065183072e-07,1.2358002117906836e-06,0.0,1.2358002117907746e-06,1.85173556091657e-16,-0.9999999999992363,0.0,-3.839720651827789e-07,0.9999999999999264,-4.745023134692051e-13,0.0,0.0,0.0,0.0,1.0]}],"buffers":[{"uri":"gltf_buffer_0.bin","byteLength":3864},{"uri":"gltf_buffer_1.bin","byteLength":4296},{"uri":"gltf_buffer_2.bin","byteLength":1276308},{"uri":"gltf_buffer_3.bin","byteLength":2864},{"uri":"gltf_buffer_4.bin","byteLength":4296},{"uri":"gltf_buffer_5.bin","byteLength":20376},{"uri":"gltf_buffer_6.bin","byteLength":22116},{"uri":"gltf_buffer_7.bin","byteLength":14744},{"uri":"gltf_buffer_8.bin","byteLength":22116}],"bufferViews":[{"buffer":0,"byteOffset":0,"byteLength":3864},{"buffer":1,"byteOffset":0,"byteLength":4296},{"buffer":2,"byteOffset":0,"byteLength":1276308},{"buffer":3,"byteOffset":0,"byteLength":2864},{"buffer":4,"byteOffset":0,"byteLength":4296},{"buffer":5,"byteOffset":0,"byteLength":20376},{"buffer":6,"byteOffset":0,"byteLength":22116},{"buffer":7,"byteOffset":0,"byteLength":14744},{"buffer":8,"byteOffset":0,"byteLength":22116}]}