{"scene":0,"scenes":[{"nodes":[0],"extras":{"file_path":"/home/mspatz/code/Universal_Robots_ROS2_Description/meshes/ur5/visual/forearm.dae","file_name":"forearm.dae"}}],"asset":{"version":"2.0","generator":"https://github.com/mikedh/trimesh"},"accessors":[{"componentType":5125,"type":"SCALAR","bufferView":0,"count":32082,"max":[7884],"min":[0]},{"componentType":5126,"type":"VEC3","byteOffset":0,"bufferView":1,"count":7885,"max":[0.03874992951750755,-0.005912721157073975,0.4311800003051758],"min":[-0.03874992951750755,-0.05719995126128197,0.353679895401001]},{"componentType":5126,"count":7885,"type":"VEC3","byteOffset":0,"bufferView":2,"max":[0.9999155402183533,0.9158885478973389,1.0],"min":[-0.9999814629554749,-1.0,-0.9998853206634521]},{"componentType":5125,"type":"SCALAR","bufferView":3,"count":372,"max":[127],"min":[0]},{"componentType":5126,"type":"VEC3","byteOffset":0,"bufferView":4,"count":128,"max":[0.037402741611003876,0.037402741611003876,0.34692999720573425],"min":[-0.037402741611003876,-0.03740280121564865,0.07400000095367432]},{"componentType":5126,"count":128,"type":"VEC3","byteOffset":0,"bufferView":5,"max":[0.9974138736724854,0.9974138736724854,1.0],"min":[-0.9974138736724854,-0.9974138736724854,-1.0]},{"componentType":5125,"type":"SCALAR","bufferView":6,"count":10140,"max":[2257],"min":[0]},{"componentType":5126,"type":"VEC3","byteOffset":0,"bufferView":7,"count":2258,"max":[0.03750002011656761,0.0474998913705349,0.42989760637283325],"min":[-0.03750002011656761,-0.03944867104291916,0.3469299077987671]},{"componentType":5126,"count":2258,"type":"VEC3","byteOffset":0,"bufferView":8,"max":[1.0,1.0,1.0],"min":[-1.0,-0.9999911189079285,-1.0]},{"componentType":5125,"type":"SCALAR","bufferView":9,"count":20490,"max":[4039],"min":[0]},{"componentType":5126,"type":"VEC3","byteOffset":0,"bufferView":10,"count":4040,"max":[0.05799973011016846,0.05449998006224632,0.07400000095367432],"min":[-0.05799977853894234,-0.03968900069594383,-0.05799973011016846]},{"componentType":5126,"count":4040,"type":"VEC3","byteOffset":0,"bufferView":11,"max":[0.9999759197235107,1.0,1.0],"min":[-0.9999814629554749,-0.999877393245697,-0.9997028112411499]}],"meshes":[{"name":"ActorShape0_0-Mesh_029-mesh","extras":{"units":"meters","processed":true},"primitives":[{"attributes":{"POSITION":1,"NORMAL":2},"indices":0,"mode":4,"material":0}]},{"name":"ActorShape1_0-Mesh_021-mesh","extras":{"units":"meters","processed":true},"primitives":[{"attributes":{"POSITION":4,"NORMAL":5},"indices":3,"mode":4,"material":1}]},{"name":"ActorShape2_0-Mesh_012-mesh","extras":{"units":"meters","processed":true},"primitives":[{"attributes":{"POSITION":7,"NORMAL":8},"indices":6,"mode":4,"material":2}]},{"name":"ActorShape3_0-Mesh_012-mesh","extras":{"units":"meters","processed":true},"primitives":[{"attributes":{"POSITION":10,"NORMAL":11},"indices":9,"mode":4,"material":2}]}],"materials":[{"pbrMetallicRoughness":{"baseColorFactor":[0.25098039215686274,0.34901960784313724,0.40784313725490196,1.0],"roughnessFactor":0.816496580927726,"metallicFactor":0.0},"emissiveFactor":[0.0,0.0,0.0],"doubleSided":false},{"pbrMetallicRoughness":{"baseColorFactor":[0.4196078431372549,0.4196078431372549,0.4196078431372549,1.0],"roughnessFactor":0.816496580927726,"metallicFactor":0.0},"emissiveFactor":[0.0,0.0,0.0],"doubleSided":false},{"pbrMetallicRoughness":{"baseColorFactor":[0.1411764705882353,0.1411764705882353,0.1411764705882353,1.0],"roughnessFactor":0.816496580927726,"metallicFactor":0.0},"emissiveFactor":[0.0,0.0,0.0],"doubleSided":false}],"nodes":[{"name":"world","children":[1,2,3,4]},{"name":"ActorShape0_0-Mesh_029-mesh","mesh":0,"matrix":[1.0,0.0,0.0,0.0,0.0,6.123233995736766e-17,-1.0,0.0,0.0,1.0,6.123233995736766e-17,0.0,0.0,0.0,0.0,1.0]},{"name":"ActorShape1_0-Mesh_021-mesh","mesh":1,"matrix":[1.0,0.0,0.0,0.0,0.0,6.123233995736766e-17,-1.0,0.0,0.0,1.0,6.123233995736766e-17,0.0,0.0,0.0,0.0,1.0]},{"name":"ActorShape2_0-Mesh_012-mesh","mesh":2,"matrix":[1.0,0.0,0.0,0.0,0.0,6.123233995736766e-17,-1.0,0.0,0.0,1.0,6.123233995736766e-17,0.0,0.0,0.0,0.0,1.0]},{"name":"ActorShape3_0-Mesh_012-mesh","mesh":3,"matrix":[1.0,0.0,0.0,0.0,0.0,6.123233995736766e-17,-1.0,0.0,0.0,1.0,6.123233995736766e-17,0.0,0.0,0.0,0.0,1.0]}],"buffers":[{"uri":"gltf_buffer_0.bin","byteLength":128328},{"uri":"gltf_buffer_1.bin","byteLength":94620},{"uri":"gltf_buffer_2.bin","byteLength":94620},{"uri":"gltf_buffer_3.bin","byteLength":1488},{"uri":"gltf_buffer_4.bin","byteLength":1536},{"uri":"gltf_buffer_5.bin","byteLength":1536},{"uri":"gltf_buffer_6.bin","byteLength":40560},{"uri":"gltf_buffer_7.bin","byteLength":27096},{"uri":"gltf_buffer_8.bin","byteLength":27096},{"uri":"gltf_buffer_9.bin","byteLength":81960},{"uri":"gltf_buffer_10.bin","byteLength":48480},{"uri":"gltf_buffer_11.bin","byteLength":48480}],"bufferViews":[{"buffer":0,"byteOffset":0,"byteLength":128328},{"buffer":1,"byteOffset":0,"byteLength":94620},{"buffer":2,"byteOffset":0,"byteLength":94620},{"buffer":3,"byteOffset":0,"byteLength":1488},{"buffer":4,"byteOffset":0,"byteLength":1536},{"buffer":5,"byteOffset":0,"byteLength":1536},{"buffer":6,"byteOffset":0,"byteLength":40560},{"buffer":7,"byteOffset":0,"byteLength":27096},{"buffer":8,"byteOffset":0,"byteLength":27096},{"buffer":9,"byteOffset":0,"byteLength":81960},{"buffer":10,"byteOffset":0,"byteLength":48480},{"buffer":11,"byteOffset":0,"byteLength":48480}]}