{"scene":0,"scenes":[{"nodes":[0],"extras":{"file_path":"/home/mspatz/code/Universal_Robots_ROS2_Description/meshes/ur3e/visual/wrist2.dae","file_name":"wrist2.dae"}}],"asset":{"version":"2.0","generator":"https://github.com/mikedh/trimesh"},"accessors":[{"componentType":5125,"type":"SCALAR","bufferView":0,"count":22146,"max":[20384],"min":[0]},{"componentType":5126,"type":"VEC3","byteOffset":0,"bufferView":1,"count":20385,"max":[31.49972915649414,117.22109985351562,36.18490982055664],"min":[-31.50027084350586,49.94145965576172,-43.14836120605469]},{"componentType":5126,"count":20385,"type":"VEC3","byteOffset":0,"bufferView":2,"max":[1.0,0.9999946355819702,1.0],"min":[-1.0,-1.0,-1.0]},{"componentType":5125,"type":"SCALAR","bufferView":3,"count":4356,"max":[3807],"min":[0]},{"componentType":5126,"type":"VEC3","byteOffset":0,"bufferView":4,"count":3808,"max":[31.49972915649414,116.44210052490234,-43.14836120605469],"min":[-31.50027084350586,53.45404052734375,-50.44834899902344]},{"componentType":5126,"count":3808,"type":"VEC3","byteOffset":0,"bufferView":5,"max":[0.9999680519104004,0.9999402165412903,1.0],"min":[-0.9999887943267822,-0.9998117685317993,-1.0]},{"componentType":5125,"type":"SCALAR","bufferView":6,"count":31143,"max":[29408],"min":[0]},{"componentType":5126,"type":"VEC3","byteOffset":0,"bufferView":7,"count":29409,"max":[32.216251373291016,117.24849700927734,46.55403137207031],"min":[-32.20671081542969,53.01292037963867,19.330219268798828]},{"componentType":5126,"count":29409,"type":"VEC3","byteOffset":0,"bufferView":8,"max":[0.9998380541801453,0.9997717142105103,1.0],"min":[-0.99990314245224,-0.9998692870140076,-0.9999425411224365]}],"meshes":[{"name":"eSeries_UR3e-mesh","extras":{"units":"meters","processed":true},"primitives":[{"attributes":{"POSITION":1,"NORMAL":2},"indices":0,"mode":4,"material":0}]},{"name":"eSeries_UR3e_053-mesh","extras":{"units":"meters","processed":true},"primitives":[{"attributes":{"POSITION":4,"NORMAL":5},"indices":3,"mode":4,"material":1}]},{"name":"eSeries_UR3e_054-mesh","extras":{"units":"meters","processed":true},"primitives":[{"attributes":{"POSITION":7,"NORMAL":8},"indices":6,"mode":4,"material":2}]}],"materials":[{"pbrMetallicRoughness":{"baseColorFactor":[0.2784313725490196,0.2784313725490196,0.2784313725490196,1.0],"roughnessFactor":1.0,"metallicFactor":0.0},"emissiveFactor":[0.0,0.0,0.0],"doubleSided":false},{"pbrMetallicRoughness":{"baseColorFactor":[0.03137254901960784,0.03137254901960784,0.03137254901960784,1.0],"roughnessFactor":1.0,"metallicFactor":0.0},"emissiveFactor":[0.0,0.0,0.0],"doubleSided":false},{"pbrMetallicRoughness":{"baseColorFactor":[0.49019607843137253,0.6784313725490196,0.8,1.0],"roughnessFactor":1.0,"metallicFactor":0.0},"emissiveFactor":[0.0,0.0,0.0],"doubleSided":false}],"nodes":[{"name":"world","children":[1,2,3]},{"name":"eSeries_UR3e-mesh","mesh":0,"matrix":[0.0009999870089814067,3.258369962733099e-10,-5.642529776750393e-10,0.0,-3.2583699627330986e-10,0.0009999870089814067,-4.371060104962635e-11,0.0,5.642529776750393e-10,4.371079880810261e-11,0.0009999870089814067,0.0,0.0,0.0,0.0,1.0]},{"name":"eSeries_UR3e_053-mesh","mesh":1,"matrix":[0.0009999870089814067,3.258369962733099e-10,-5.642529776750393e-10,0.0,-3.2583699627330986e-10,0.0009999870089814067,-4.371060104962635e-11,0.0,5.642529776750393e-10,4.371079880810261e-11,0.0009999870089814067,0.0,0.0,0.0,0.0,1.0]},{"name":"eSeries_UR3e_054-mesh","mesh":2,"matrix":[0.0009999870089814067,3.258369962733099e-10,-5.642529776750393e-10,0.0,-3.2583699627330986e-10,0.0009999870089814067,-4.371060104962635e-11,0.0,5.642529776750393e-10,4.371079880810261e-11,0.0009999870089814067,0.0,0.0,0.0,0.0,1.0]}],"buffers":[{"uri":"gltf_buffer_0.bin","byteLength":88584},{"uri":"gltf_buffer_1.bin","byteLength":244620},{"uri":"gltf_buffer_2.bin","byteLength":244620},{"uri":"gltf_buffer_3.bin","byteLength":17424},{"uri":"gltf_buffer_4.bin","byteLength":45696},{"uri":"gltf_buffer_5.bin","byteLength":45696},{"uri":"gltf_buffer_6.bin","byteLength":124572},{"uri":"gltf_buffer_7.bin","byteLength":352908},{"uri":"gltf_buffer_8.bin","byteLength":352908}],"bufferViews":[{"buffer":0,"byteOffset":0,"byteLength":88584},{"buffer":1,"byteOffset":0,"byteLength":244620},{"buffer":2,"byteOffset":0,"byteLength":244620},{"buffer":3,"byteOffset":0,"byteLength":17424},{"buffer":4,"byteOffset":0,"byteLength":45696},{"buffer":5,"byteOffset":0,"byteLength":45696},{"buffer":6,"byteOffset":0,"byteLength":124572},{"buffer":7,"byteOffset":0,"byteLength":352908},{"buffer":8,"byteOffset":0,"byteLength":352908}]}