{"scene":0,"scenes":[{"nodes":[0],"extras":{"file_path":"/home/mspatz/code/Universal_Robots_ROS2_Description/meshes/ur5e/visual/wrist1.dae","file_name":"wrist1.dae"}}],"asset":{"version":"2.0","generator":"https://github.com/mikedh/trimesh"},"accessors":[{"componentType":5125,"type":"SCALAR","bufferView":0,"count":19878,"max":[17808],"min":[0]},{"componentType":5126,"type":"VEC3","byteOffset":0,"bufferView":1,"count":17809,"max":[37.839500427246094,46.037288665771484,164.09249877929688],"min":[-37.8456916809082,-40.55889892578125,53.44997024536133]},{"componentType":5126,"count":17809,"type":"VEC3","byteOffset":0,"bufferView":2,"max":[0.9999998807907104,1.0,0.9997346997261047],"min":[-1.0,-1.0,-1.0]},{"componentType":5125,"type":"SCALAR","bufferView":3,"count":28539,"max":[26523],"min":[0]},{"componentType":5126,"type":"VEC3","byteOffset":0,"bufferView":4,"count":26524,"max":[39.34368133544922,-7.071782112121582,165.62600708007812],"min":[-39.35585021972656,-56.294090270996094,86.95671081542969]},{"componentType":5126,"count":26524,"type":"VEC3","byteOffset":0,"bufferView":5,"max":[0.9998832941055298,0.9986781477928162,0.9998310208320618],"min":[-0.9999417662620544,-1.0,-0.9997912049293518]},{"componentType":5125,"type":"SCALAR","bufferView":6,"count":3447,"max":[3025],"min":[0]},{"componentType":5126,"type":"VEC3","byteOffset":0,"bufferView":7,"count":3026,"max":[37.519378662109375,53.58734130859375,163.81080627441406],"min":[-37.497520446777344,46.037288665771484,88.8096923828125]},{"componentType":5126,"count":3026,"type":"VEC3","byteOffset":0,"bufferView":8,"max":[0.9999048113822937,1.0,0.9993408918380737],"min":[-0.9999150037765503,-1.0,-0.9993951320648193]}],"meshes":[{"name":"eSeries_UR5e_043-mesh","extras":{"units":"meters","processed":true},"primitives":[{"attributes":{"POSITION":1,"NORMAL":2},"indices":0,"mode":4,"material":0}]},{"name":"eSeries_UR5e_083-mesh","extras":{"units":"meters","processed":true},"primitives":[{"attributes":{"POSITION":4,"NORMAL":5},"indices":3,"mode":4,"material":1}]},{"name":"eSeries_UR5e_084-mesh","extras":{"units":"meters","processed":true},"primitives":[{"attributes":{"POSITION":7,"NORMAL":8},"indices":6,"mode":4,"material":2}]}],"materials":[{"pbrMetallicRoughness":{"baseColorFactor":[0.2784313725490196,0.2784313725490196,0.2784313725490196,1.0],"roughnessFactor":1.0,"metallicFactor":0.0},"emissiveFactor":[0.0,0.0,0.0],"doubleSided":false},{"pbrMetallicRoughness":{"baseColorFactor":[0.49019607843137253,0.6784313725490196,0.8,1.0],"roughnessFactor":1.0,"metallicFactor":0.0},"emissiveFactor":[0.0,0.0,0.0],"doubleSided":false},{"pbrMetallicRoughness":{"baseColorFactor":[0.03137254901960784,0.03137254901960784,0.03137254901960784,1.0],"roughnessFactor":1.0,"metallicFactor":0.0},"emissiveFactor":[0.0,0.0,0.0],"doubleSided":false}],"nodes":[{"name":"world","children":[1,2,3]},{"name":"eSeries_UR5e_043-mesh","mesh":0,"matrix":[-0.0009999870089814067,-1.995176172649485e-26,3.2583699627330986e-10,0.0,0.0,0.0009999870089814067,-4.371079880810261e-11,0.0,-3.2583699627330986e-10,-4.371079880810261e-11,-0.0009999870089814067,0.0,0.0,0.0,0.0,1.0]},{"name":"eSeries_UR5e_083-mesh","mesh":1,"matrix":[-0.0009999870089814067,-1.995176172649485e-26,3.2583699627330986e-10,0.0,0.0,0.0009999870089814067,-4.371079880810261e-11,0.0,-3.2583699627330986e-10,-4.371079880810261e-11,-0.0009999870089814067,0.0,0.0,0.0,0.0,1.0]},{"name":"eSeries_UR5e_084-mesh","mesh":2,"matrix":[-0.0009999870089814067,-1.995176172649485e-26,3.2583699627330986e-10,0.0,0.0,0.0009999870089814067,-4.371079880810261e-11,0.0,-3.2583699627330986e-10,-4.371079880810261e-11,-0.0009999870089814067,0.0,0.0,0.0,0.0,1.0]}],"buffers":[{"uri":"gltf_buffer_0.bin","byteLength":79512},{"uri":"gltf_buffer_1.bin","byteLength":213708},{"uri":"gltf_buffer_2.bin","byteLength":213708},{"uri":"gltf_buffer_3.bin","byteLength":114156},{"uri":"gltf_buffer_4.bin","byteLength":318288},{"uri":"gltf_buffer_5.bin","byteLength":318288},{"uri":"gltf_buffer_6.bin","byteLength":13788},{"uri":"gltf_buffer_7.bin","byteLength":36312},{"uri":"gltf_buffer_8.bin","byteLength":36312}],"bufferViews":[{"buffer":0,"byteOffset":0,"byteLength":79512},{"buffer":1,"byteOffset":0,"byteLength":213708},{"buffer":2,"byteOffset":0,"byteLength":213708},{"buffer":3,"byteOffset":0,"byteLength":114156},{"buffer":4,"byteOffset":0,"byteLength":318288},{"buffer":5,"byteOffset":0,"byteLength":318288},{"buffer":6,"byteOffset":0,"byteLength":13788},{"buffer":7,"byteOffset":0,"byteLength":36312},{"buffer":8,"byteOffset":0,"byteLength":36312}]}