{"scene":0,"scenes":[{"nodes":[0],"extras":{"file_path":"/home/mspatz/code/Universal_Robots_ROS2_Description/meshes/ur5e/visual/upperarm.dae","file_name":"upperarm.dae"}}],"asset":{"version":"2.0","generator":"https://github.com/mikedh/trimesh"},"accessors":[{"componentType":5125,"type":"SCALAR","bufferView":0,"count":28995,"max":[27503],"min":[0]},{"componentType":5126,"type":"VEC3","byteOffset":0,"bufferView":1,"count":27504,"max":[60.0974006652832,59.59170150756836,71.83043670654297],"min":[-60.070621490478516,-60.60210037231445,8.566152572631836]},{"componentType":5126,"count":27504,"type":"VEC3","byteOffset":0,"bufferView":2,"max":[0.9999976754188538,0.9998234510421753,1.0],"min":[-0.9999831318855286,-0.9999301433563232,-0.9995036125183105]},{"componentType":5125,"type":"SCALAR","bufferView":3,"count":23793,"max":[21631],"min":[0]},{"componentType":5126,"type":"VEC3","byteOffset":0,"bufferView":4,"count":21632,"max":[58.31544876098633,59.69794845581055,62.262569427490234],"min":[-58.32857131958008,-58.775211334228516,-63.601768493652344]},{"componentType":5126,"count":21632,"type":"VEC3","byteOffset":0,"bufferView":5,"max":[1.0,1.0,0.9999846816062927],"min":[-1.0,-0.9998645186424255,-1.0]},{"componentType":5125,"type":"SCALAR","bufferView":6,"count":4194,"max":[3828],"min":[0]},{"componentType":5126,"type":"VEC3","byteOffset":0,"bufferView":7,"count":3829,"max":[58.00320053100586,73.0988998413086,57.74845886230469],"min":[-57.893890380859375,59.696990966796875,-58.17913818359375]},{"componentType":5126,"count":3829,"type":"VEC3","byteOffset":0,"bufferView":8,"max":[0.9982048869132996,0.9999991059303284,0.9996479153633118],"min":[-0.9999769926071167,-0.9999908804893494,-0.9991803169250488]},{"componentType":5125,"type":"SCALAR","bufferView":9,"count":33273,"max":[31651],"min":[0]},{"componentType":5126,"type":"VEC3","byteOffset":0,"bufferView":10,"count":31652,"max":[60.070709228515625,484.597900390625,71.82987976074219],"min":[-60.09730911254883,364.40411376953125,8.566152572631836]},{"componentType":5126,"count":31652,"type":"VEC3","byteOffset":0,"bufferView":11,"max":[0.9999932646751404,0.9995543956756592,0.9999997615814209],"min":[-0.9999977350234985,-0.99969482421875,-0.9995452761650085]},{"componentType":5125,"type":"SCALAR","bufferView":12,"count":1860,"max":[1853],"min":[0]},{"componentType":5126,"type":"VEC3","byteOffset":0,"bufferView":13,"count":1854,"max":[57.902069091796875,350.89849853515625,57.6749382019043],"min":[-57.89448165893555,73.09706115722656,-58.2017707824707]},{"componentType":5126,"count":1854,"type":"VEC3","byteOffset":0,"bufferView":14,"max":[0.9975926280021667,1.0,0.999820351600647],"min":[-0.9991359710693359,-1.0,-0.999474823474884]},{"componentType":5125,"type":"SCALAR","bufferView":15,"count":4194,"max":[3945],"min":[0]},{"componentType":5126,"type":"VEC3","byteOffset":0,"bufferView":16,"count":3946,"max":[58.000038146972656,364.2983093261719,57.7529182434082],"min":[-57.99673843383789,350.8970947265625,-58.17601013183594]},{"componentType":5126,"count":3946,"type":"VEC3","byteOffset":0,"bufferView":17,"max":[0.999975860118866,0.9999845027923584,0.999605655670166],"min":[-0.9980875253677368,-0.9936389923095703,-0.9992578029632568]},{"componentType":5125,"type":"SCALAR","bufferView":18,"count":19686,"max":[17610],"min":[0]},{"componentType":5126,"type":"VEC3","byteOffset":0,"bufferView":19,"count":17611,"max":[58.2972412109375,482.6925964355469,62.26287078857422],"min":[-58.2623291015625,364.29791259765625,-64.40177917480469]},{"componentType":5126,"count":17611,"type":"VEC3","byteOffset":0,"bufferView":20,"max":[1.0,0.9998559355735779,1.0],"min":[-1.0,-1.0,-1.0]},{"componentType":5125,"type":"SCALAR","bufferView":21,"count":4377,"max":[4174],"min":[0]},{"componentType":5126,"type":"VEC3","byteOffset":0,"bufferView":22,"count":4175,"max":[57.88362121582031,482.4689025878906,-64.40177154541016],"min":[-58.00074005126953,366.53680419921875,-77.79956817626953]},{"componentType":5126,"count":4175,"type":"VEC3","byteOffset":0,"bufferView":23,"max":[0.9999979734420776,0.9994239807128906,0.9940868020057678],"min":[-0.998081386089325,-0.9995602369308472,-0.9999610185623169]}],"meshes":[{"name":"eSeries_UR5e_069-mesh","extras":{"units":"meters","processed":true},"primitives":[{"attributes":{"POSITION":1,"NORMAL":2},"indices":0,"mode":4,"material":0}]},{"name":"eSeries_UR5e_070-mesh","extras":{"units":"meters","processed":true},"primitives":[{"attributes":{"POSITION":4,"NORMAL":5},"indices":3,"mode":4,"material":1}]},{"name":"eSeries_UR5e_071-mesh","extras":{"units":"meters","processed":true},"primitives":[{"attributes":{"POSITION":7,"NORMAL":8},"indices":6,"mode":4,"material":2}]},{"name":"eSeries_UR5e_072-mesh","extras":{"units":"meters","processed":true},"primitives":[{"attributes":{"POSITION":10,"NORMAL":11},"indices":9,"mode":4,"material":0}]},{"name":"eSeries_UR5e_073-mesh","extras":{"units":"meters","processed":true},"primitives":[{"attributes":{"POSITION":13,"NORMAL":14},"indices":12,"mode":4,"material":3}]},{"name":"eSeries_UR5e_074-mesh","extras":{"units":"meters","processed":true},"primitives":[{"attributes":{"POSITION":16,"NORMAL":17},"indices":15,"mode":4,"material":2}]},{"name":"eSeries_UR5e_075-mesh","extras":{"units":"meters","processed":true},"primitives":[{"attributes":{"POSITION":19,"NORMAL":20},"indices":18,"mode":4,"material":1}]},{"name":"eSeries_UR5e_076-mesh","extras":{"units":"meters","processed":true},"primitives":[{"attributes":{"POSITION":22,"NORMAL":23},"indices":21,"mode":4,"material":2}]}],"materials":[{"pbrMetallicRoughness":{"baseColorFactor":[0.49019607843137253,0.6784313725490196,0.8,1.0],"roughnessFactor":1.0,"metallicFactor":0.0},"emissiveFactor":[0.0,0.0,0.0],"doubleSided":false},{"pbrMetallicRoughness":{"baseColorFactor":[0.2784313725490196,0.2784313725490196,0.2784313725490196,1.0],"roughnessFactor":1.0,"metallicFactor":0.0},"emissiveFactor":[0.0,0.0,0.0],"doubleSided":false},{"pbrMetallicRoughness":{"baseColorFactor":[0.03137254901960784,0.03137254901960784,0.03137254901960784,1.0],"roughnessFactor":1.0,"metallicFactor":0.0},"emissiveFactor":[0.0,0.0,0.0],"doubleSided":false},{"pbrMetallicRoughness":{"baseColorFactor":[0.8196078431372549,0.8196078431372549,0.8196078431372549,1.0],"roughnessFactor":1.0,"metallicFactor":0.0},"emissiveFactor":[0.0,0.0,0.0],"doubleSided":false}],"nodes":[{"name":"world","children":[1,2,3,4,5,6,7,8]},{"name":"eSeries_UR5e_069-mesh","mesh":0,"matrix":[-0.0009999870089814067,-1.995176172649485e-26,3.2583699627330986e-10,0.0,0.0,0.0009999870089814067,-4.371079880810261e-11,0.0,-3.2583699627330986e-10,-4.371079880810261e-11,-0.0009999870089814067,0.0,0.0,0.0,0.0,1.0]},{"name":"eSeries_UR5e_070-mesh","mesh":1,"matrix":[-0.0009999870089814067,-1.995176172649485e-26,3.2583699627330986e-10,0.0,0.0,0.0009999870089814067,-4.371079880810261e-11,0.0,-3.2583699627330986e-10,-4.371079880810261e-11,-0.0009999870089814067,0.0,0.0,0.0,0.0,1.0]},{"name":"eSeries_UR5e_071-mesh","mesh":2,"matrix":[-0.0009999870089814067,-1.995176172649485e-26,3.2583699627330986e-10,0.0,0.0,0.0009999870089814067,-4.371079880810261e-11,0.0,-3.2583699627330986e-10,-4.371079880810261e-11,-0.0009999870089814067,0.0,0.0,0.0,0.0,1.0]},{"name":"eSeries_UR5e_072-mesh","mesh":3,"matrix":[-0.0009999870089814067,-1.995176172649485e-26,3.2583699627330986e-10,0.0,0.0,0.0009999870089814067,-4.371079880810261e-11,0.0,-3.2583699627330986e-10,-4.371079880810261e-11,-0.0009999870089814067,0.0,0.0,0.0,0.0,1.0]},{"name":"eSeries_UR5e_073-mesh","mesh":4,"matrix":[-0.0009999870089814067,-1.995176172649485e-26,3.2583699627330986e-10,0.0,0.0,0.0009999870089814067,-4.371079880810261e-11,0.0,-3.2583699627330986e-10,-4.371079880810261e-11,-0.0009999870089814067,0.0,0.0,0.0,0.0,1.0]},{"name":"eSeries_UR5e_074-mesh","mesh":5,"matrix":[-0.0009999870089814067,-1.995176172649485e-26,3.2583699627330986e-10,0.0,0.0,0.0009999870089814067,-4.371079880810261e-11,0.0,-3.2583699627330986e-10,-4.371079880810261e-11,-0.0009999870089814067,0.0,0.0,0.0,0.0,1.0]},{"name":"eSeries_UR5e_075-mesh","mesh":6,"matrix":[-0.0009999870089814067,-1.995176172649485e-26,3.2583699627330986e-10,0.0,0.0,0.0009999870089814067,-4.371079880810261e-11,0.0,-3.2583699627330986e-10,-4.371079880810261e-11,-0.0009999870089814067,0.0,0.0,0.0,0.0,1.0]},{"name":"eSeries_UR5e_076-mesh","mesh":7,"matrix":[-0.0009999870089814067,-1.995176172649485e-26,3.2583699627330986e-10,0.0,0.0,0.0009999870089814067,-4.371079880810261e-11,0.0,-3.2583699627330986e-10,-4.371079880810261e-11,-0.0009999870089814067,0.0,0.0,0.0,0.0,1.0]}],"buffers":[{"uri":"gltf_buffer_0.bin","byteLength":115980},{"uri":"gltf_buffer_1.bin","byteLength":330048},{"uri":"gltf_buffer_2.bin","byteLength":330048},{"uri":"gltf_buffer_3.bin","byteLength":95172},{"uri":"gltf_buffer_4.bin","byteLength":259584},{"uri":"gltf_buffer_5.bin","byteLength":259584},{"uri":"gltf_buffer_6.bin","byteLength":16776},{"uri":"gltf_buffer_7.bin","byteLength":45948},{"uri":"gltf_buffer_8.bin","byteLength":45948},{"uri":"gltf_buffer_9.bin","byteLength":133092},{"uri":"gltf_buffer_10.bin","byteLength":379824},{"uri":"gltf_buffer_11.bin","byteLength":379824},{"uri":"gltf_buffer_12.bin","byteLength":7440},{"uri":"gltf_buffer_13.bin","byteLength":22248},{"uri":"gltf_buffer_14.bin","byteLength":22248},{"uri":"gltf_buffer_15.bin","byteLength":16776},{"uri":"gltf_buffer_16.bin","byteLength":47352},{"uri":"gltf_buffer_17.bin","byteLength":47352},{"uri":"gltf_buffer_18.bin","byteLength":78744},{"uri":"gltf_buffer_19.bin","byteLength":211332},{"uri":"gltf_buffer_20.bin","byteLength":211332},{"uri":"gltf_buffer_21.bin","byteLength":17508},{"uri":"gltf_buffer_22.bin","byteLength":50100},{"uri":"gltf_buffer_23.bin","byteLength":50100}],"bufferViews":[{"buffer":0,"byteOffset":0,"byteLength":115980},{"buffer":1,"byteOffset":0,"byteLength":330048},{"buffer":2,"byteOffset":0,"byteLength":330048},{"buffer":3,"byteOffset":0,"byteLength":95172},{"buffer":4,"byteOffset":0,"byteLength":259584},{"buffer":5,"byteOffset":0,"byteLength":259584},{"buffer":6,"byteOffset":0,"byteLength":16776},{"buffer":7,"byteOffset":0,"byteLength":45948},{"buffer":8,"byteOffset":0,"byteLength":45948},{"buffer":9,"byteOffset":0,"byteLength":133092},{"buffer":10,"byteOffset":0,"byteLength":379824},{"buffer":11,"byteOffset":0,"byteLength":379824},{"buffer":12,"byteOffset":0,"byteLength":7440},{"buffer":13,"byteOffset":0,"byteLength":22248},{"buffer":14,"byteOffset":0,"byteLength":22248},{"buffer":15,"byteOffset":0,"byteLength":16776},{"buffer":16,"byteOffset":0,"byteLength":47352},{"buffer":17,"byteOffset":0,"byteLength":47352},{"buffer":18,"byteOffset":0,"byteLength":78744},{"buffer":19,"byteOffset":0,"byteLength":211332},{"buffer":20,"byteOffset":0,"byteLength":211332},{"buffer":21,"byteOffset":0,"byteLength":17508},{"buffer":22,"byteOffset":0,"byteLength":50100},{"buffer":23,"byteOffset":0,"byteLength":50100}]}