{"scene":0,"scenes":[{"nodes":[0],"extras":{"file_path":"/home/mspatz/code/Universal_Robots_ROS2_Description/meshes/ur3/visual/wrist3.dae","file_name":"wrist3.dae"}}],"asset":{"version":"2.0","generator":"https://github.com/mikedh/trimesh"},"accessors":[{"componentType":5125,"type":"SCALAR","bufferView":0,"count":1254,"max":[1129],"min":[0]},{"componentType":5126,"type":"VEC3","byteOffset":0,"bufferView":1,"count":1130,"max":[0.03167181834578514,0.08048254251480103,0.03581279143691063],"min":[-0.03179483860731125,0.041449420154094696,-0.03382062166929245]},{"componentType":5126,"count":1130,"type":"VEC3","byteOffset":0,"bufferView":2,"max":[0.9989928603172302,1.0,1.0],"min":[-0.999496340751648,-1.0,-0.9978958964347839]},{"componentType":5125,"type":"SCALAR","bufferView":3,"count":330,"max":[219],"min":[0]},{"componentType":5126,"type":"VEC3","byteOffset":0,"bufferView":4,"count":220,"max":[0.03166805952787399,0.0484498105943203,0.029623210430145264],"min":[-0.031368009746074677,0.04064929112792015,-0.03352886065840721]},{"componentType":5126,"count":220,"type":"VEC3","byteOffset":0,"bufferView":5,"max":[0.9952414631843567,1.0,0.9906587600708008],"min":[-0.9996836185455322,-1.0,-0.9987384080886841]}],"meshes":[{"name":"Part__Feature002-mesh","extras":{"units":"meters","processed":true},"primitives":[{"attributes":{"POSITION":1,"NORMAL":2},"indices":0,"mode":4,"material":0}]},{"name":"Part__Feature003-mesh","extras":{"units":"meters","processed":true},"primitives":[{"attributes":{"POSITION":4,"NORMAL":5},"indices":3,"mode":4,"material":1}]}],"materials":[{"pbrMetallicRoughness":{"baseColorFactor":[0.33725490196078434,0.33725490196078434,0.33725490196078434,1.0],"roughnessFactor":0.816496580927726,"metallicFactor":0.0},"emissiveFactor":[0.0,0.0,0.0],"doubleSided":false},{"pbrMetallicRoughness":{"baseColorFactor":[0.1411764705882353,0.1411764705882353,0.1411764705882353,1.0],"roughnessFactor":0.816496580927726,"metallicFactor":0.0},"emissiveFactor":[0.0,0.0,0.0],"doubleSided":false}],"nodes":[{"name":"world","children":[1,2]},{"name":"Part__Feature002-mesh","mesh":0,"matrix":[1.0,0.0,0.0,0.0,0.0,6.123233995736766e-17,-1.0,0.0,0.0,1.0,6.123233995736766e-17,0.0,0.0,0.0,0.0,1.0]},{"name":"Part__Feature003-mesh","mesh":1,"matrix":[1.0,0.0,0.0,0.0,0.0,6.123233995736766e-17,-1.0,0.0,0.0,1.0,6.123233995736766e-17,0.0,0.0,0.0,0.0,1.0]}],"buffers":[{"uri":"gltf_buffer_0.bin","byteLength":5016},{"uri":"gltf_buffer_1.bin","byteLength":13560},{"uri":"gltf_buffer_2.bin","byteLength":13560},{"uri":"gltf_buffer_3.bin","byteLength":1320},{"uri":"gltf_buffer_4.bin","byteLength":2640},{"uri":"gltf_buffer_5.bin","byteLength":2640}],"bufferViews":[{"buffer":0,"byteOffset":0,"byteLength":5016},{"buffer":1,"byteOffset":0,"byteLength":13560},{"buffer":2,"byteOffset":0,"byteLength":13560},{"buffer":3,"byteOffset":0,"byteLength":1320},{"buffer":4,"byteOffset":0,"byteLength":2640},{"buffer":5,"byteOffset":0,"byteLength":2640}]}