{"scene":0,"scenes":[{"nodes":[0],"extras":{"file_path":"/home/mspatz/code/Universal_Robots_ROS2_Description/meshes/ur10e/visual/wrist2.dae","file_name":"wrist2.dae"}}],"asset":{"version":"2.0","generator":"https://github.com/mikedh/trimesh"},"accessors":[{"componentType":5125,"type":"SCALAR","bufferView":0,"count":3330,"max":[2941],"min":[0]},{"componentType":5126,"type":"VEC3","byteOffset":0,"bufferView":1,"count":2942,"max":[45.01845169067383,164.47000122070312,57.047821044921875],"min":[-45.004268646240234,66.56684112548828,-47.58905029296875]},{"componentType":5126,"count":2942,"type":"VEC3","byteOffset":0,"bufferView":2,"max":[0.9997814297676086,0.9999868273735046,1.0],"min":[-0.9999638795852661,-1.0,-0.9996078610420227]},{"componentType":5125,"type":"SCALAR","bufferView":3,"count":41472,"max":[39149],"min":[0]},{"componentType":5126,"type":"VEC3","byteOffset":0,"bufferView":4,"count":39150,"max":[46.98487091064453,166.4696044921875,-9.859682083129883],"min":[-47.001060485839844,72.44669342041016,-56.98025131225586]},{"componentType":5126,"count":39150,"type":"VEC3","byteOffset":0,"bufferView":5,"max":[0.9999924302101135,0.9999600052833557,0.9997695684432983],"min":[-0.9999998807907104,-0.9999855160713196,-0.9999999403953552]},{"componentType":5125,"type":"SCALAR","bufferView":6,"count":10467,"max":[9620],"min":[0]},{"componentType":5126,"type":"VEC3","byteOffset":0,"bufferView":7,"count":9621,"max":[45.00006103515625,164.4550018310547,67.94783020019531],"min":[-44.99993896484375,74.47895812988281,57.03789138793945]},{"componentType":5126,"count":9621,"type":"VEC3","byteOffset":0,"bufferView":8,"max":[0.9998677968978882,1.0,1.0],"min":[-0.9998971223831177,-1.0,-1.0]}],"meshes":[{"name":"eSeries_UR10e_040-mesh","extras":{"units":"meters","processed":true},"primitives":[{"attributes":{"POSITION":1,"NORMAL":2},"indices":0,"mode":4,"material":0}]},{"name":"eSeries_UR10e_062-mesh","extras":{"units":"meters","processed":true},"primitives":[{"attributes":{"POSITION":4,"NORMAL":5},"indices":3,"mode":4,"material":1}]},{"name":"eSeries_UR10e_063-mesh","extras":{"units":"meters","processed":true},"primitives":[{"attributes":{"POSITION":7,"NORMAL":8},"indices":6,"mode":4,"material":2}]}],"materials":[{"pbrMetallicRoughness":{"baseColorFactor":[0.2784313725490196,0.2784313725490196,0.2784313725490196,1.0],"roughnessFactor":1.0,"metallicFactor":0.0},"emissiveFactor":[0.0,0.0,0.0],"doubleSided":false},{"pbrMetallicRoughness":{"baseColorFactor":[0.49019607843137253,0.6784313725490196,0.8,1.0],"roughnessFactor":1.0,"metallicFactor":0.0},"emissiveFactor":[0.0,0.0,0.0],"doubleSided":false},{"pbrMetallicRoughness":{"baseColorFactor":[0.03137254901960784,0.03137254901960784,0.03137254901960784,1.0],"roughnessFactor":1.0,"metallicFactor":0.0},"emissiveFactor":[0.0,0.0,0.0],"doubleSided":false}],"nodes":[{"name":"world","children":[1,2,3]},{"name":"eSeries_UR10e_040-mesh","mesh":0,"matrix":[-0.0009999870089814067,-1.995176172649485e-26,3.2583699627330986e-10,0.0,0.0,0.0009999870089814067,-4.371079880810261e-11,0.0,-3.2583699627330986e-10,-4.371079880810261e-11,-0.0009999870089814067,0.0,0.0,0.0,0.0,1.0]},{"name":"eSeries_UR10e_062-mesh","mesh":1,"matrix":[-0.0009999870089814067,-1.995176172649485e-26,3.2583699627330986e-10,0.0,0.0,0.0009999870089814067,-4.371079880810261e-11,0.0,-3.2583699627330986e-10,-4.371079880810261e-11,-0.0009999870089814067,0.0,0.0,0.0,0.0,1.0]},{"name":"eSeries_UR10e_063-mesh","mesh":2,"matrix":[-0.0009999870089814067,-1.995176172649485e-26,3.2583699627330986e-10,0.0,0.0,0.0009999870089814067,-4.371079880810261e-11,0.0,-3.2583699627330986e-10,-4.371079880810261e-11,-0.0009999870089814067,0.0,0.0,0.0,0.0,1.0]}],"buffers":[{"uri":"gltf_buffer_0.bin","byteLength":13320},{"uri":"gltf_buffer_1.bin","byteLength":35304},{"uri":"gltf_buffer_2.bin","byteLength":35304},{"uri":"gltf_buffer_3.bin","byteLength":165888},{"uri":"gltf_buffer_4.bin","byteLength":469800},{"uri":"gltf_buffer_5.bin","byteLength":469800},{"uri":"gltf_buffer_6.bin","byteLength":41868},{"uri":"gltf_buffer_7.bin","byteLength":115452},{"uri":"gltf_buffer_8.bin","byteLength":115452}],"bufferViews":[{"buffer":0,"byteOffset":0,"byteLength":13320},{"buffer":1,"byteOffset":0,"byteLength":35304},{"buffer":2,"byteOffset":0,"byteLength":35304},{"buffer":3,"byteOffset":0,"byteLength":165888},{"buffer":4,"byteOffset":0,"byteLength":469800},{"buffer":5,"byteOffset":0,"byteLength":469800},{"buffer":6,"byteOffset":0,"byteLength":41868},{"buffer":7,"byteOffset":0,"byteLength":115452},{"buffer":8,"byteOffset":0,"byteLength":115452}]}