{"scene":0,"scenes":[{"nodes":[0],"extras":{"file_path":"/home/mspatz/code/Universal_Robots_ROS2_Description/meshes/ur3e/visual/base.dae","file_name":"base.dae"}}],"asset":{"version":"2.0","generator":"https://github.com/mikedh/trimesh"},"accessors":[{"componentType":5125,"type":"SCALAR","bufferView":0,"count":7308,"max":[6360],"min":[0]},{"componentType":5126,"type":"VEC3","byteOffset":0,"bufferView":1,"count":6361,"max":[64.00959014892578,85.14537811279297,63.99380874633789],"min":[-63.98854064941406,0.0,-63.98579025268555]},{"componentType":5126,"count":6361,"type":"VEC3","byteOffset":0,"bufferView":2,"max":[0.9999940395355225,1.0,0.9996936917304993],"min":[-0.9998267889022827,-1.0,-0.9998570680618286]},{"componentType":5125,"type":"SCALAR","bufferView":3,"count":2610,"max":[2265],"min":[0]},{"componentType":5126,"type":"VEC3","byteOffset":0,"bufferView":4,"count":2266,"max":[44.97687911987305,94.94999694824219,44.9834098815918],"min":[-45.01129913330078,85.11544036865234,-45.0]},{"componentType":5126,"count":2266,"type":"VEC3","byteOffset":0,"bufferView":5,"max":[0.999865710735321,1.0,0.9989917874336243],"min":[-0.9997317790985107,-1.0,-0.999991238117218]}],"meshes":[{"name":"eSeries_UR3e_014-mesh","extras":{"units":"meters","processed":true},"primitives":[{"attributes":{"POSITION":1,"NORMAL":2},"indices":0,"mode":4,"material":0}]},{"name":"eSeries_UR3e_035-mesh","extras":{"units":"meters","processed":true},"primitives":[{"attributes":{"POSITION":4,"NORMAL":5},"indices":3,"mode":4,"material":1}]}],"materials":[{"pbrMetallicRoughness":{"baseColorFactor":[0.2784313725490196,0.2784313725490196,0.2784313725490196,1.0],"roughnessFactor":1.0,"metallicFactor":0.0},"emissiveFactor":[0.0,0.0,0.0],"doubleSided":false},{"pbrMetallicRoughness":{"baseColorFactor":[0.03137254901960784,0.03137254901960784,0.03137254901960784,1.0],"roughnessFactor":1.0,"metallicFactor":0.0},"emissiveFactor":[0.0,0.0,0.0],"doubleSided":false}],"nodes":[{"name":"world","children":[1,2]},{"name":"eSeries_UR3e_014-mesh","mesh":0,"matrix":[0.0009999870089814067,3.258369962733099e-10,-5.642529776750393e-10,0.0,-3.2583699627330986e-10,0.0009999870089814067,-4.371060104962635e-11,0.0,5.642529776750393e-10,4.371079880810261e-11,0.0009999870089814067,0.0,0.0,0.0,0.0,1.0]},{"name":"eSeries_UR3e_035-mesh","mesh":1,"matrix":[0.0009999870089814067,3.258369962733099e-10,-5.642529776750393e-10,0.0,-3.2583699627330986e-10,0.0009999870089814067,-4.371060104962635e-11,0.0,5.642529776750393e-10,4.371079880810261e-11,0.0009999870089814067,0.0,0.0,0.0,0.0,1.0]}],"buffers":[{"uri":"gltf_buffer_0.bin","byteLength":29232},{"uri":"gltf_buffer_1.bin","byteLength":76332},{"uri":"gltf_buffer_2.bin","byteLength":76332},{"uri":"gltf_buffer_3.bin","byteLength":10440},{"uri":"gltf_buffer_4.bin","byteLength":27192},{"uri":"gltf_buffer_5.bin","byteLength":27192}],"bufferViews":[{"buffer":0,"byteOffset":0,"byteLength":29232},{"buffer":1,"byteOffset":0,"byteLength":76332},{"buffer":2,"byteOffset":0,"byteLength":76332},{"buffer":3,"byteOffset":0,"byteLength":10440},{"buffer":4,"byteOffset":0,"byteLength":27192},{"buffer":5,"byteOffset":0,"byteLength":27192}]}