{"scene":0,"scenes":[{"nodes":[0],"extras":{"file_path":"/home/mspatz/code/Universal_Robots_ROS2_Description/meshes/ur10/visual/base.dae","file_name":"base.dae"}}],"asset":{"version":"2.0","generator":"https://github.com/mikedh/trimesh"},"accessors":[{"componentType":5125,"type":"SCALAR","bufferView":0,"count":6000,"max":[4493],"min":[0]},{"componentType":5126,"type":"VEC3","byteOffset":0,"bufferView":1,"count":4494,"max":[0.07498645037412643,0.07509999722242355,0.03799998015165329],"min":[-0.07497435063123703,-0.09200149029493332,0.0]},{"componentType":5126,"count":4494,"type":"VEC3","byteOffset":0,"bufferView":2,"max":[1.0,1.0,1.0],"min":[-1.0,-1.0,-1.0]}],"meshes":[{"name":"shape0_001-mesh","extras":{"units":"meters","processed":true},"primitives":[{"attributes":{"POSITION":1,"NORMAL":2},"indices":0,"mode":4,"material":0}]}],"materials":[{"pbrMetallicRoughness":{"baseColorFactor":[0.37254901960784315,0.37254901960784315,0.37254901960784315,1.0],"roughnessFactor":1.0,"metallicFactor":0.0},"emissiveFactor":[0.0,0.0,0.0],"doubleSided":false}],"nodes":[{"name":"world","children":[1]},{"name":"shape0_001-mesh","mesh":0,"matrix":[1.0,0.0,0.0,0.0,0.0,6.123233995736766e-17,-1.0,0.0,0.0,1.0,6.123233995736766e-17,0.0,0.0,0.0,0.0,1.0]}],"buffers":[{"uri":"gltf_buffer_0.bin","byteLength":24000},{"uri":"gltf_buffer_1.bin","byteLength":53928},{"uri":"gltf_buffer_2.bin","byteLength":53928}],"bufferViews":[{"buffer":0,"byteOffset":0,"byteLength":24000},{"buffer":1,"byteOffset":0,"byteLength":53928},{"buffer":2,"byteOffset":0,"byteLength":53928}]}