{"scene":0,"scenes":[{"nodes":[0],"extras":{"file_path":"/home/mspatz/code/Universal_Robots_ROS2_Description/meshes/ur3e/visual/forearm.dae","file_name":"forearm.dae"}}],"asset":{"version":"2.0","generator":"https://github.com/mikedh/trimesh"},"accessors":[{"componentType":5125,"type":"SCALAR","bufferView":0,"count":16260,"max":[15003],"min":[0]},{"componentType":5126,"type":"VEC3","byteOffset":0,"bufferView":1,"count":15004,"max":[31.499860763549805,244.0948944091797,37.27634811401367],"min":[-31.500150680541992,177.593505859375,-43.09967041015625]},{"componentType":5126,"count":15004,"type":"VEC3","byteOffset":0,"bufferView":2,"max":[1.0,0.9998639822006226,0.9999998211860657],"min":[-1.0,-1.0,-1.0]},{"componentType":5125,"type":"SCALAR","bufferView":3,"count":1635,"max":[1518],"min":[0]},{"componentType":5126,"type":"VEC3","byteOffset":0,"bufferView":4,"count":1519,"max":[37.54806900024414,42.97003173828125,31.44845962524414],"min":[-37.56391143798828,-37.9381217956543,-39.000450134277344]},{"componentType":5126,"count":1519,"type":"VEC3","byteOffset":0,"bufferView":5,"max":[0.9980916976928711,0.9987994432449341,0.9997053742408752],"min":[-0.998516321182251,-0.999672532081604,-1.0]},{"componentType":5125,"type":"SCALAR","bufferView":6,"count":255,"max":[254],"min":[0]},{"componentType":5126,"type":"VEC3","byteOffset":0,"bufferView":7,"count":255,"max":[31.529640197753906,51.27016067504883,31.501310348510742],"min":[-31.501129150390625,42.96990966796875,-31.50065040588379]},{"componentType":5126,"count":255,"type":"VEC3","byteOffset":0,"bufferView":8,"max":[0.9982808232307434,0.02427559904754162,0.9998810291290283],"min":[-0.999447226524353,-0.008864760398864746,-0.9996312856674194]},{"componentType":5125,"type":"SCALAR","bufferView":9,"count":1755,"max":[1669],"min":[0]},{"componentType":5126,"type":"VEC3","byteOffset":0,"bufferView":10,"count":1670,"max":[31.534629821777344,171.14869689941406,31.549470901489258],"min":[-31.5592098236084,51.25672149658203,-31.559879302978516]},{"componentType":5126,"count":1670,"type":"VEC3","byteOffset":0,"bufferView":11,"max":[0.9992048740386963,1.0,0.9991872906684875],"min":[-0.999999463558197,-0.7344468235969543,-0.998246967792511]},{"componentType":5125,"type":"SCALAR","bufferView":12,"count":2982,"max":[2843],"min":[0]},{"componentType":5126,"type":"VEC3","byteOffset":0,"bufferView":13,"count":2844,"max":[31.49151039123535,177.5948944091797,31.457000732421875],"min":[-31.457290649414062,171.1448974609375,-31.49321937561035]},{"componentType":5126,"count":2844,"type":"VEC3","byteOffset":0,"bufferView":14,"max":[0.998715877532959,0.9668209552764893,0.9999964237213135],"min":[-0.9998736381530762,-0.9653281569480896,-0.9987605214118958]},{"componentType":5125,"type":"SCALAR","bufferView":15,"count":24849,"max":[23282],"min":[0]},{"componentType":5126,"type":"VEC3","byteOffset":0,"bufferView":16,"count":23283,"max":[32.22005081176758,244.90199279785156,46.602699279785156],"min":[-32.2240104675293,180.6654052734375,19.291370391845703]},{"componentType":5126,"count":23283,"type":"VEC3","byteOffset":0,"bufferView":17,"max":[0.9999929070472717,0.9998443126678467,1.0],"min":[-0.9999954700469971,-0.9997507333755493,-0.9995651245117188]},{"componentType":5125,"type":"SCALAR","bufferView":18,"count":2877,"max":[2523],"min":[0]},{"componentType":5126,"type":"VEC3","byteOffset":0,"bufferView":19,"count":2524,"max":[31.499860763549805,244.1260986328125,-43.09967041015625],"min":[-31.483959197998047,181.0883026123047,-50.34967041015625]},{"componentType":5126,"count":2524,"type":"VEC3","byteOffset":0,"bufferView":20,"max":[0.9999275207519531,0.9994269609451294,1.0],"min":[-0.9996607899665833,-0.9999109506607056,-1.0]}],"meshes":[{"name":"eSeries_UR3e_033-mesh","extras":{"units":"meters","processed":true},"primitives":[{"attributes":{"POSITION":1,"NORMAL":2},"indices":0,"mode":4,"material":0}]},{"name":"eSeries_UR3e_045-mesh","extras":{"units":"meters","processed":true},"primitives":[{"attributes":{"POSITION":4,"NORMAL":5},"indices":3,"mode":4,"material":0}]},{"name":"eSeries_UR3e_046-mesh","extras":{"units":"meters","processed":true},"primitives":[{"attributes":{"POSITION":7,"NORMAL":8},"indices":6,"mode":4,"material":1}]},{"name":"eSeries_UR3e_047-mesh","extras":{"units":"meters","processed":true},"primitives":[{"attributes":{"POSITION":10,"NORMAL":11},"indices":9,"mode":4,"material":2}]},{"name":"eSeries_UR3e_048-mesh","extras":{"units":"meters","processed":true},"primitives":[{"attributes":{"POSITION":13,"NORMAL":14},"indices":12,"mode":4,"material":1}]},{"name":"eSeries_UR3e_049-mesh","extras":{"units":"meters","processed":true},"primitives":[{"attributes":{"POSITION":16,"NORMAL":17},"indices":15,"mode":4,"material":3}]},{"name":"eSeries_UR3e_051-mesh","extras":{"units":"meters","processed":true},"primitives":[{"attributes":{"POSITION":19,"NORMAL":20},"indices":18,"mode":4,"material":1}]}],"materials":[{"pbrMetallicRoughness":{"baseColorFactor":[0.2784313725490196,0.2784313725490196,0.2784313725490196,1.0],"roughnessFactor":1.0,"metallicFactor":0.0},"emissiveFactor":[0.0,0.0,0.0],"doubleSided":false},{"pbrMetallicRoughness":{"baseColorFactor":[0.03137254901960784,0.03137254901960784,0.03137254901960784,1.0],"roughnessFactor":1.0,"metallicFactor":0.0},"emissiveFactor":[0.0,0.0,0.0],"doubleSided":false},{"pbrMetallicRoughness":{"baseColorFactor":[0.8196078431372549,0.8196078431372549,0.8196078431372549,1.0],"roughnessFactor":1.0,"metallicFactor":0.0},"emissiveFactor":[0.0,0.0,0.0],"doubleSided":false},{"pbrMetallicRoughness":{"baseColorFactor":[0.49019607843137253,0.6784313725490196,0.8,1.0],"roughnessFactor":1.0,"metallicFactor":0.0},"emissiveFactor":[0.0,0.0,0.0],"doubleSided":false}],"nodes":[{"name":"world","children":[1,2,3,4,5,6,7]},{"name":"eSeries_UR3e_033-mesh","mesh":0,"matrix":[0.0009999870089814067,3.258369962733099e-10,-5.642529776750393e-10,0.0,-3.2583699627330986e-10,0.0009999870089814067,-4.371060104962635e-11,0.0,5.642529776750393e-10,4.371079880810261e-11,0.0009999870089814067,0.0,0.0,0.0,0.0,1.0]},{"name":"eSeries_UR3e_045-mesh","mesh":1,"matrix":[0.0009999870089814067,3.258369962733099e-10,-5.642529776750393e-10,0.0,-3.2583699627330986e-10,0.0009999870089814067,-4.371060104962635e-11,0.0,5.642529776750393e-10,4.371079880810261e-11,0.0009999870089814067,0.0,0.0,0.0,0.0,1.0]},{"name":"eSeries_UR3e_046-mesh","mesh":2,"matrix":[0.0009999870089814067,3.258369962733099e-10,-5.642529776750393e-10,0.0,-3.2583699627330986e-10,0.0009999870089814067,-4.371060104962635e-11,0.0,5.642529776750393e-10,4.371079880810261e-11,0.0009999870089814067,0.0,0.0,0.0,0.0,1.0]},{"name":"eSeries_UR3e_047-mesh","mesh":3,"matrix":[0.0009999870089814067,3.258369962733099e-10,-5.642529776750393e-10,0.0,-3.2583699627330986e-10,0.0009999870089814067,-4.371060104962635e-11,0.0,5.642529776750393e-10,4.371079880810261e-11,0.0009999870089814067,0.0,0.0,0.0,0.0,1.0]},{"name":"eSeries_UR3e_048-mesh","mesh":4,"matrix":[0.0009999870089814067,3.258369962733099e-10,-5.642529776750393e-10,0.0,-3.2583699627330986e-10,0.0009999870089814067,-4.371060104962635e-11,0.0,5.642529776750393e-10,4.371079880810261e-11,0.0009999870089814067,0.0,0.0,0.0,0.0,1.0]},{"name":"eSeries_UR3e_049-mesh","mesh":5,"matrix":[0.0009999870089814067,3.258369962733099e-10,-5.642529776750393e-10,0.0,-3.2583699627330986e-10,0.0009999870089814067,-4.371060104962635e-11,0.0,5.642529776750393e-10,4.371079880810261e-11,0.0009999870089814067,0.0,0.0,0.0,0.0,1.0]},{"name":"eSeries_UR3e_051-mesh","mesh":6,"matrix":[0.0009999870089814067,3.258369962733099e-10,-5.642529776750393e-10,0.0,-3.2583699627330986e-10,0.0009999870089814067,-4.371060104962635e-11,0.0,5.642529776750393e-10,4.371079880810261e-11,0.0009999870089814067,0.0,0.0,0.0,0.0,1.0]}],"buffers":[{"uri":"gltf_buffer_0.bin","byteLength":65040},{"uri":"gltf_buffer_1.bin","byteLength":180048},{"uri":"gltf_buffer_2.bin","byteLength":180048},{"uri":"gltf_buffer_3.bin","byteLength":6540},{"uri":"gltf_buffer_4.bin","byteLength":18228},{"uri":"gltf_buffer_5.bin","byteLength":18228},{"uri":"gltf_buffer_6.bin","byteLength":1020},{"uri":"gltf_buffer_7.bin","byteLength":3060},{"uri":"gltf_buffer_8.bin","byteLength":3060},{"uri":"gltf_buffer_9.bin","byteLength":7020},{"uri":"gltf_buffer_10.bin","byteLength":20040},{"uri":"gltf_buffer_11.bin","byteLength":20040},{"uri":"gltf_buffer_12.bin","byteLength":11928},{"uri":"gltf_buffer_13.bin","byteLength":34128},{"uri":"gltf_buffer_14.bin","byteLength":34128},{"uri":"gltf_buffer_15.bin","byteLength":99396},{"uri":"gltf_buffer_16.bin","byteLength":279396},{"uri":"gltf_buffer_17.bin","byteLength":279396},{"uri":"gltf_buffer_18.bin","byteLength":11508},{"uri":"gltf_buffer_19.bin","byteLength":30288},{"uri":"gltf_buffer_20.bin","byteLength":30288}],"bufferViews":[{"buffer":0,"byteOffset":0,"byteLength":65040},{"buffer":1,"byteOffset":0,"byteLength":180048},{"buffer":2,"byteOffset":0,"byteLength":180048},{"buffer":3,"byteOffset":0,"byteLength":6540},{"buffer":4,"byteOffset":0,"byteLength":18228},{"buffer":5,"byteOffset":0,"byteLength":18228},{"buffer":6,"byteOffset":0,"byteLength":1020},{"buffer":7,"byteOffset":0,"byteLength":3060},{"buffer":8,"byteOffset":0,"byteLength":3060},{"buffer":9,"byteOffset":0,"byteLength":7020},{"buffer":10,"byteOffset":0,"byteLength":20040},{"buffer":11,"byteOffset":0,"byteLength":20040},{"buffer":12,"byteOffset":0,"byteLength":11928},{"buffer":13,"byteOffset":0,"byteLength":34128},{"buffer":14,"byteOffset":0,"byteLength":34128},{"buffer":15,"byteOffset":0,"byteLength":99396},{"buffer":16,"byteOffset":0,"byteLength":279396},{"buffer":17,"byteOffset":0,"byteLength":279396},{"buffer":18,"byteOffset":0,"byteLength":11508},{"buffer":19,"byteOffset":0,"byteLength":30288},{"buffer":20,"byteOffset":0,"byteLength":30288}]}