{"scene":0,"scenes":[{"nodes":[0],"extras":{"file_path":"/home/mspatz/code/Universal_Robots_ROS2_Description/meshes/ur10e/visual/base.dae","file_name":"base.dae"}}],"asset":{"version":"2.0","generator":"https://github.com/mikedh/trimesh"},"accessors":[{"componentType":5125,"type":"SCALAR","bufferView":0,"count":8001,"max":[6926],"min":[0]},{"componentType":5126,"type":"VEC3","byteOffset":0,"bufferView":1,"count":6927,"max":[94.98377227783203,84.9493408203125,94.93511962890625],"min":[-94.98377227783203,0.0,-94.98872375488281]},{"componentType":5126,"count":6927,"type":"VEC3","byteOffset":0,"bufferView":2,"max":[0.9999945759773254,1.0,0.9999995827674866],"min":[-0.9999991655349731,-1.0,-0.9999986290931702]},{"componentType":5125,"type":"SCALAR","bufferView":3,"count":7005,"max":[6458],"min":[0]},{"componentType":5126,"type":"VEC3","byteOffset":0,"bufferView":4,"count":6459,"max":[74.93659210205078,99.30001068115234,75.0],"min":[-74.94461059570312,84.93260192871094,-75.0]},{"componentType":5126,"count":6459,"type":"VEC3","byteOffset":0,"bufferView":5,"max":[0.9999985694885254,1.0,0.9999861717224121],"min":[-0.9999949932098389,-1.0,-0.9999920129776001]}],"meshes":[{"name":"eSeries_UR10e_010-mesh","extras":{"units":"meters","processed":true},"primitives":[{"attributes":{"POSITION":1,"NORMAL":2},"indices":0,"mode":4,"material":0}]},{"name":"eSeries_UR10e_043-mesh","extras":{"units":"meters","processed":true},"primitives":[{"attributes":{"POSITION":4,"NORMAL":5},"indices":3,"mode":4,"material":1}]}],"materials":[{"pbrMetallicRoughness":{"baseColorFactor":[0.2784313725490196,0.2784313725490196,0.2784313725490196,1.0],"roughnessFactor":1.0,"metallicFactor":0.0},"emissiveFactor":[0.0,0.0,0.0],"doubleSided":false},{"pbrMetallicRoughness":{"baseColorFactor":[0.03137254901960784,0.03137254901960784,0.03137254901960784,1.0],"roughnessFactor":1.0,"metallicFactor":0.0},"emissiveFactor":[0.0,0.0,0.0],"doubleSided":false}],"nodes":[{"name":"world","children":[1,2]},{"name":"eSeries_UR10e_010-mesh","mesh":0,"matrix":[-0.0009999870089814067,-1.995176172649485e-26,3.2583699627330986e-10,0.0,0.0,0.0009999870089814067,-4.371079880810261e-11,0.0,-3.2583699627330986e-10,-4.371079880810261e-11,-0.0009999870089814067,0.0,0.0,0.0,0.0,1.0]},{"name":"eSeries_UR10e_043-mesh","mesh":1,"matrix":[-0.0009999870089814067,-1.995176172649485e-26,3.2583699627330986e-10,0.0,0.0,0.0009999870089814067,-4.371079880810261e-11,0.0,-3.2583699627330986e-10,-4.371079880810261e-11,-0.0009999870089814067,0.0,0.0,0.0,0.0,1.0]}],"buffers":[{"uri":"gltf_buffer_0.bin","byteLength":32004},{"uri":"gltf_buffer_1.bin","byteLength":83124},{"uri":"gltf_buffer_2.bin","byteLength":83124},{"uri":"gltf_buffer_3.bin","byteLength":28020},{"uri":"gltf_buffer_4.bin","byteLength":77508},{"uri":"gltf_buffer_5.bin","byteLength":77508}],"bufferViews":[{"buffer":0,"byteOffset":0,"byteLength":32004},{"buffer":1,"byteOffset":0,"byteLength":83124},{"buffer":2,"byteOffset":0,"byteLength":83124},{"buffer":3,"byteOffset":0,"byteLength":28020},{"buffer":4,"byteOffset":0,"byteLength":77508},{"buffer":5,"byteOffset":0,"byteLength":77508}]}