{"scene":0,"scenes":[{"nodes":[0],"extras":{"file_path":"/home/mspatz/code/Universal_Robots_ROS2_Description/meshes/ur16e/visual/forearm.dae","file_name":"forearm.dae"}}],"asset":{"version":"2.0","generator":"https://github.com/mikedh/trimesh"},"accessors":[{"componentType":5125,"type":"SCALAR","bufferView":0,"count":528,"max":[457],"min":[0]},{"componentType":5126,"type":"VEC3","byteOffset":0,"bufferView":1,"count":458,"max":[45.04833984375,508.4773864746094,44.79478073120117],"min":[-45.04832077026367,498.75201416015625,-45.195701599121094]},{"componentType":5126,"count":458,"type":"VEC3","byteOffset":0,"bufferView":2,"max":[0.9946772456169128,0.9999998807907104,0.9949578642845154],"min":[-0.9945951104164124,-0.45224857330322266,-0.9957188367843628]},{"componentType":5125,"type":"SCALAR","bufferView":3,"count":657,"max":[652],"min":[0]},{"componentType":5126,"type":"VEC3","byteOffset":0,"bufferView":4,"count":653,"max":[57.89458084106445,99.23323059082031,57.58843994140625],"min":[-57.895328521728516,76.07264709472656,-58.03044128417969]},{"componentType":5126,"count":653,"type":"VEC3","byteOffset":0,"bufferView":5,"max":[0.9989915490150452,0.7144261598587036,0.9995916485786438],"min":[-0.9999881982803345,-0.028002016246318817,-0.9994127750396729]},{"componentType":5125,"type":"SCALAR","bufferView":6,"count":6315,"max":[5663],"min":[0]},{"componentType":5126,"type":"VEC3","byteOffset":0,"bufferView":7,"count":5664,"max":[45.0000114440918,615.62451171875,66.74954223632812],"min":[-44.9999885559082,525.6243286132812,56.67271041870117]},{"componentType":5126,"count":5664,"type":"VEC3","byteOffset":0,"bufferView":8,"max":[0.999930202960968,0.9998018741607666,1.0],"min":[-0.9990243315696716,-0.9994007349014282,-1.0]},{"componentType":5125,"type":"SCALAR","bufferView":9,"count":3624,"max":[3498],"min":[0]},{"componentType":5126,"type":"VEC3","byteOffset":0,"bufferView":10,"count":3499,"max":[44.943851470947266,517.7243041992188,44.7476806640625],"min":[-44.9999885559082,508.4743957519531,-45.15871810913086]},{"componentType":5126,"count":3499,"type":"VEC3","byteOffset":0,"bufferView":11,"max":[0.9992250800132751,0.9913890361785889,0.9991291165351868],"min":[-0.9998862743377686,-0.994863748550415,-0.9991264343261719]},{"componentType":5125,"type":"SCALAR","bufferView":12,"count":2106,"max":[1804],"min":[0]},{"componentType":5126,"type":"VEC3","byteOffset":0,"bufferView":13,"count":1805,"max":[45.0000114440918,615.6290893554688,56.66521072387695],"min":[-44.9999885559082,517.72412109375,-47.93918991088867]},{"componentType":5126,"count":1805,"type":"VEC3","byteOffset":0,"bufferView":14,"max":[0.999992847442627,0.9999952912330627,1.0],"min":[-0.9999250769615173,-1.0,-0.9993283152580261]},{"componentType":5125,"type":"SCALAR","bufferView":15,"count":35061,"max":[33229],"min":[0]},{"componentType":5126,"type":"VEC3","byteOffset":0,"bufferView":16,"count":33230,"max":[46.98332977294922,617.6102294921875,-10.218740463256836],"min":[-46.98003005981445,523.6265258789062,-57.32435989379883]},{"componentType":5126,"count":33230,"type":"VEC3","byteOffset":0,"bufferView":17,"max":[0.9999999403953552,0.999976396560669,0.9997752904891968],"min":[-0.9999935626983643,-0.999960720539093,-1.0]},{"componentType":5125,"type":"SCALAR","bufferView":18,"count":3828,"max":[3442],"min":[0]},{"componentType":5126,"type":"VEC3","byteOffset":0,"bufferView":19,"count":3443,"max":[57.89366149902344,76.07589721679688,57.75849151611328],"min":[-57.996829986572266,62.67348861694336,-58.15935134887695]},{"componentType":5126,"count":3443,"type":"VEC3","byteOffset":0,"bufferView":20,"max":[1.0,0.9873709082603455,0.9993305206298828],"min":[-0.997338056564331,-0.9999997615814209,-0.9993292093276978]},{"componentType":5125,"type":"SCALAR","bufferView":21,"count":1476,"max":[1405],"min":[0]},{"componentType":5126,"type":"VEC3","byteOffset":0,"bufferView":22,"count":1406,"max":[57.99787902832031,62.6827507019043,59.44691848754883],"min":[-57.99748992919922,-58.799461364746094,-58.063758850097656]},{"componentType":5126,"count":1406,"type":"VEC3","byteOffset":0,"bufferView":23,"max":[0.9999477863311768,0.9999999403953552,0.9999998211860657],"min":[-0.9998278617858887,-0.9990902543067932,-0.9992823600769043]},{"componentType":5125,"type":"SCALAR","bufferView":24,"count":192,"max":[189],"min":[0]},{"componentType":5126,"type":"VEC3","byteOffset":0,"bufferView":25,"count":190,"max":[42.80305099487305,289.0390930175781,42.49562072753906],"min":[-42.805850982666016,96.6800765991211,-42.882591247558594]},{"componentType":5126,"count":190,"type":"VEC3","byteOffset":0,"bufferView":26,"max":[0.9997320175170898,0.006884156260639429,0.9998605251312256],"min":[-0.9982309341430664,-0.0020949840545654297,-0.9962975978851318]}],"meshes":[{"name":"eSeries_UR10e_001-mesh","extras":{"units":"meters","processed":true},"primitives":[{"attributes":{"POSITION":1,"NORMAL":2},"indices":0,"mode":4,"material":0}]},{"name":"eSeries_UR10e_000-mesh","extras":{"units":"meters","processed":true},"primitives":[{"attributes":{"POSITION":4,"NORMAL":5},"indices":3,"mode":4,"material":0}]},{"name":"eSeries_UR10e_059-mesh","extras":{"units":"meters","processed":true},"primitives":[{"attributes":{"POSITION":7,"NORMAL":8},"indices":6,"mode":4,"material":1}]},{"name":"eSeries_UR10e_058-mesh","extras":{"units":"meters","processed":true},"primitives":[{"attributes":{"POSITION":10,"NORMAL":11},"indices":9,"mode":4,"material":1}]},{"name":"eSeries_UR10e_057-mesh","extras":{"units":"meters","processed":true},"primitives":[{"attributes":{"POSITION":13,"NORMAL":14},"indices":12,"mode":4,"material":2}]},{"name":"eSeries_UR10e_056-mesh","extras":{"units":"meters","processed":true},"primitives":[{"attributes":{"POSITION":16,"NORMAL":17},"indices":15,"mode":4,"material":3}]},{"name":"eSeries_UR10e_055-mesh","extras":{"units":"meters","processed":true},"primitives":[{"attributes":{"POSITION":19,"NORMAL":20},"indices":18,"mode":4,"material":1}]},{"name":"eSeries_UR10e_054-mesh","extras":{"units":"meters","processed":true},"primitives":[{"attributes":{"POSITION":22,"NORMAL":23},"indices":21,"mode":4,"material":2}]},{"name":"eSeries_UR10e_031-mesh","extras":{"units":"meters","processed":true},"primitives":[{"attributes":{"POSITION":25,"NORMAL":26},"indices":24,"mode":4,"material":0}]}],"materials":[{"pbrMetallicRoughness":{"baseColorFactor":[0.8196078431372549,0.8196078431372549,0.8196078431372549,1.0],"roughnessFactor":1.0,"metallicFactor":0.0},"emissiveFactor":[0.0,0.0,0.0],"doubleSided":false},{"pbrMetallicRoughness":{"baseColorFactor":[0.03137254901960784,0.03137254901960784,0.03137254901960784,1.0],"roughnessFactor":1.0,"metallicFactor":0.0},"emissiveFactor":[0.0,0.0,0.0],"doubleSided":false},{"pbrMetallicRoughness":{"baseColorFactor":[0.2784313725490196,0.2784313725490196,0.2784313725490196,1.0],"roughnessFactor":1.0,"metallicFactor":0.0},"emissiveFactor":[0.0,0.0,0.0],"doubleSided":false},{"pbrMetallicRoughness":{"baseColorFactor":[0.49019607843137253,0.6784313725490196,0.8,1.0],"roughnessFactor":1.0,"metallicFactor":0.0},"emissiveFactor":[0.0,0.0,0.0],"doubleSided":false}],"nodes":[{"name":"world","children":[1,2,3,4,5,6,7,8,9]},{"name":"eSeries_UR10e_001-mesh","mesh":0,"matrix":[-0.0009999870089814067,-2.384442457916666e-26,3.894090050415855e-10,0.0,0.0,0.0009999870089814067,-4.371079880810261e-11,0.0,-3.894090050415855e-10,-4.371079880810261e-11,-0.0009999870089814067,0.0,0.0,-0.21154999732971191,-1.2953701354473141e-17,1.0]},{"name":"eSeries_UR10e_000-mesh","mesh":1,"matrix":[-0.0009999870089814067,-2.384442457916666e-26,3.894090050415855e-10,0.0,0.0,0.0009999870089814067,-4.371079880810261e-11,0.0,-3.894090050415855e-10,-4.371079880810261e-11,-0.0009999870089814067,0.0,0.0,0.0,0.0,1.0]},{"name":"eSeries_UR10e_059-mesh","mesh":2,"matrix":[-0.0009999870089814067,-2.384442457916666e-26,3.894090050415855e-10,0.0,0.0,0.0009999870089814067,-4.371079880810261e-11,0.0,-3.894090050415855e-10,-4.371079880810261e-11,-0.0009999870089814067,0.0,0.0,-0.21154999732971191,-1.2953701354473141e-17,1.0]},{"name":"eSeries_UR10e_058-mesh","mesh":3,"matrix":[-0.0009999870089814067,-2.384442457916666e-26,3.894090050415855e-10,0.0,0.0,0.0009999870089814067,-4.371079880810261e-11,0.0,-3.894090050415855e-10,-4.371079880810261e-11,-0.0009999870089814067,0.0,0.0,-0.21154999732971191,-1.2953701354473141e-17,1.0]},{"name":"eSeries_UR10e_057-mesh","mesh":4,"matrix":[-0.0009999870089814067,-2.384442457916666e-26,3.894090050415855e-10,0.0,0.0,0.0009999870089814067,-4.371079880810261e-11,0.0,-3.894090050415855e-10,-4.371079880810261e-11,-0.0009999870089814067,0.0,0.0,-0.21154999732971191,-1.2953701354473141e-17,1.0]},{"name":"eSeries_UR10e_056-mesh","mesh":5,"matrix":[-0.0009999870089814067,-2.384442457916666e-26,3.894090050415855e-10,0.0,0.0,0.0009999870089814067,-4.371079880810261e-11,0.0,-3.894090050415855e-10,-4.371079880810261e-11,-0.0009999870089814067,0.0,0.0,-0.21154999732971191,-1.2953701354473141e-17,1.0]},{"name":"eSeries_UR10e_055-mesh","mesh":6,"matrix":[-0.0009999870089814067,-2.384442457916666e-26,3.894090050415855e-10,0.0,0.0,0.0009999870089814067,-4.371079880810261e-11,0.0,-3.894090050415855e-10,-4.371079880810261e-11,-0.0009999870089814067,0.0,0.0,0.0,0.0,1.0]},{"name":"eSeries_UR10e_054-mesh","mesh":7,"matrix":[-0.0009999870089814067,-2.384442457916666e-26,3.894090050415855e-10,0.0,0.0,0.0009999870089814067,-4.371079880810261e-11,0.0,-3.894090050415855e-10,-4.371079880810261e-11,-0.0009999870089814067,0.0,0.0,0.0,0.0,1.0]},{"name":"eSeries_UR10e_031-mesh","mesh":8,"matrix":[-0.0009999870089814067,-2.384442457916666e-26,3.894090050415855e-10,0.0,0.0,0.0009999870089814067,-4.371079880810261e-11,0.0,-3.894090050415855e-10,-4.371079880810261e-11,-0.0009999870089814067,0.0,0.0,0.0,0.0,1.0]}],"buffers":[{"uri":"gltf_buffer_0.bin","byteLength":2112},{"uri":"gltf_buffer_1.bin","byteLength":5496},{"uri":"gltf_buffer_2.bin","byteLength":5496},{"uri":"gltf_buffer_3.bin","byteLength":2628},{"uri":"gltf_buffer_4.bin","byteLength":7836},{"uri":"gltf_buffer_5.bin","byteLength":7836},{"uri":"gltf_buffer_6.bin","byteLength":25260},{"uri":"gltf_buffer_7.bin","byteLength":67968},{"uri":"gltf_buffer_8.bin","byteLength":67968},{"uri":"gltf_buffer_9.bin","byteLength":14496},{"uri":"gltf_buffer_10.bin","byteLength":41988},{"uri":"gltf_buffer_11.bin","byteLength":41988},{"uri":"gltf_buffer_12.bin","byteLength":8424},{"uri":"gltf_buffer_13.bin","byteLength":21660},{"uri":"gltf_buffer_14.bin","byteLength":21660},{"uri":"gltf_buffer_15.bin","byteLength":140244},{"uri":"gltf_buffer_16.bin","byteLength":398760},{"uri":"gltf_buffer_17.bin","byteLength":398760},{"uri":"gltf_buffer_18.bin","byteLength":15312},{"uri":"gltf_buffer_19.bin","byteLength":41316},{"uri":"gltf_buffer_20.bin","byteLength":41316},{"uri":"gltf_buffer_21.bin","byteLength":5904},{"uri":"gltf_buffer_22.bin","byteLength":16872},{"uri":"gltf_buffer_23.bin","byteLength":16872},{"uri":"gltf_buffer_24.bin","byteLength":768},{"uri":"gltf_buffer_25.bin","byteLength":2280},{"uri":"gltf_buffer_26.bin","byteLength":2280}],"bufferViews":[{"buffer":0,"byteOffset":0,"byteLength":2112},{"buffer":1,"byteOffset":0,"byteLength":5496},{"buffer":2,"byteOffset":0,"byteLength":5496},{"buffer":3,"byteOffset":0,"byteLength":2628},{"buffer":4,"byteOffset":0,"byteLength":7836},{"buffer":5,"byteOffset":0,"byteLength":7836},{"buffer":6,"byteOffset":0,"byteLength":25260},{"buffer":7,"byteOffset":0,"byteLength":67968},{"buffer":8,"byteOffset":0,"byteLength":67968},{"buffer":9,"byteOffset":0,"byteLength":14496},{"buffer":10,"byteOffset":0,"byteLength":41988},{"buffer":11,"byteOffset":0,"byteLength":41988},{"buffer":12,"byteOffset":0,"byteLength":8424},{"buffer":13,"byteOffset":0,"byteLength":21660},{"buffer":14,"byteOffset":0,"byteLength":21660},{"buffer":15,"byteOffset":0,"byteLength":140244},{"buffer":16,"byteOffset":0,"byteLength":398760},{"buffer":17,"byteOffset":0,"byteLength":398760},{"buffer":18,"byteOffset":0,"byteLength":15312},{"buffer":19,"byteOffset":0,"byteLength":41316},{"buffer":20,"byteOffset":0,"byteLength":41316},{"buffer":21,"byteOffset":0,"byteLength":5904},{"buffer":22,"byteOffset":0,"byteLength":16872},{"buffer":23,"byteOffset":0,"byteLength":16872},{"buffer":24,"byteOffset":0,"byteLength":768},{"buffer":25,"byteOffset":0,"byteLength":2280},{"buffer":26,"byteOffset":0,"byteLength":2280}]}