{"scene":0,"scenes":[{"nodes":[0],"extras":{"file_path":"/home/mspatz/code/Universal_Robots_ROS2_Description/meshes/ur10e/visual/wrist3.dae","file_name":"wrist3.dae"}}],"asset":{"version":"2.0","generator":"https://github.com/mikedh/trimesh"},"accessors":[{"componentType":5125,"type":"SCALAR","bufferView":0,"count":2934,"max":[2524],"min":[0]},{"componentType":5126,"type":"VEC3","byteOffset":0,"bufferView":1,"count":2525,"max":[44.84059143066406,51.07463836669922,116.78589630126953],"min":[-44.84048080444336,-45.52363967895508,67.94760131835938]},{"componentType":5126,"count":2525,"type":"VEC3","byteOffset":0,"bufferView":2,"max":[0.9999938607215881,1.0,1.0],"min":[-0.9999938607215881,-0.9999966025352478,-1.0]}],"meshes":[{"name":"eSeries_UR10e_042-mesh","extras":{"units":"meters","processed":true},"primitives":[{"attributes":{"POSITION":1,"NORMAL":2},"indices":0,"mode":4,"material":0}]}],"materials":[{"pbrMetallicRoughness":{"baseColorFactor":[0.8196078431372549,0.8196078431372549,0.8196078431372549,1.0],"roughnessFactor":1.0,"metallicFactor":0.0},"emissiveFactor":[0.0,0.0,0.0],"doubleSided":false}],"nodes":[{"name":"world","children":[1]},{"name":"eSeries_UR10e_042-mesh","mesh":0,"matrix":[-0.0009999870089814067,-1.995176172649485e-26,3.2583699627330986e-10,0.0,0.0,0.0009999870089814067,-4.371079880810261e-11,0.0,-3.2583699627330986e-10,-4.371079880810261e-11,-0.0009999870089814067,0.0,0.0,0.0,0.0,1.0]}],"buffers":[{"uri":"gltf_buffer_0.bin","byteLength":11736},{"uri":"gltf_buffer_1.bin","byteLength":30300},{"uri":"gltf_buffer_2.bin","byteLength":30300}],"bufferViews":[{"buffer":0,"byteOffset":0,"byteLength":11736},{"buffer":1,"byteOffset":0,"byteLength":30300},{"buffer":2,"byteOffset":0,"byteLength":30300}]}