{"scene":0,"scenes":[{"nodes":[0],"extras":{"file_path":"/home/mspatz/code/Universal_Robots_ROS2_Description/meshes/ur10/visual/wrist1.dae","file_name":"wrist1.dae"}}],"asset":{"version":"2.0","generator":"https://github.com/mikedh/trimesh"},"accessors":[{"componentType":5125,"type":"SCALAR","bufferView":0,"count":15000,"max":[6626],"min":[0]},{"componentType":5126,"type":"VEC3","byteOffset":0,"bufferView":1,"count":6627,"max":[0.045006029307842255,0.1598908007144928,0.0619998499751091],"min":[-0.04500507935881615,0.060890790075063705,-0.04825996980071068]},{"componentType":5126,"count":6627,"type":"VEC3","byteOffset":0,"bufferView":2,"max":[0.9999999403953552,1.0,1.0],"min":[-0.9999999403953552,-1.0,-0.999994695186615]},{"componentType":5125,"type":"SCALAR","bufferView":3,"count":23832,"max":[10527],"min":[0]},{"componentType":5126,"type":"VEC3","byteOffset":0,"bufferView":4,"count":10528,"max":[0.04535609111189842,0.16078880429267883,-0.009960055351257324],"min":[-0.04563099145889282,0.06979774683713913,-0.05677998065948486]},{"componentType":5126,"count":10528,"type":"VEC3","byteOffset":0,"bufferView":5,"max":[0.9999804496765137,0.9998683929443359,1.0],"min":[-0.9999575614929199,-0.9999909400939941,-1.0]},{"componentType":5125,"type":"SCALAR","bufferView":6,"count":1497,"max":[271],"min":[0]},{"componentType":5126,"type":"VEC3","byteOffset":0,"bufferView":7,"count":272,"max":[0.03554015979170799,0.15606079995632172,-0.0431399904191494],"min":[-0.03581446036696434,0.06113177165389061,-0.05329990014433861]},{"componentType":5126,"count":272,"type":"VEC3","byteOffset":0,"bufferView":8,"max":[0.9470160007476807,0.9304996132850647,0.7540987133979797],"min":[-0.943644106388092,-0.9392176270484924,-0.9101018905639648]}],"meshes":[{"name":"shape0_001-mesh","extras":{"units":"meters","processed":true},"primitives":[{"attributes":{"POSITION":1,"NORMAL":2},"indices":0,"mode":4,"material":0}]},{"name":"shape1_001-mesh","extras":{"units":"meters","processed":true},"primitives":[{"attributes":{"POSITION":4,"NORMAL":5},"indices":3,"mode":4,"material":1}]},{"name":"shape2_001-mesh","extras":{"units":"meters","processed":true},"primitives":[{"attributes":{"POSITION":7,"NORMAL":8},"indices":6,"mode":4,"material":2}]}],"materials":[{"pbrMetallicRoughness":{"baseColorFactor":[0.2235294117647059,0.2235294117647059,0.2235294117647059,1.0],"roughnessFactor":1.0,"metallicFactor":0.0},"emissiveFactor":[0.0,0.0,0.0],"doubleSided":false},{"pbrMetallicRoughness":{"baseColorFactor":[0.39215686274509803,0.5411764705882353,0.6392156862745098,1.0],"roughnessFactor":1.0,"metallicFactor":0.0},"emissiveFactor":[0.0,0.0,0.0],"doubleSided":false},{"pbrMetallicRoughness":{"baseColorFactor":[0.4627450980392157,0.4627450980392157,0.4627450980392157,1.0],"roughnessFactor":1.0,"metallicFactor":0.0},"emissiveFactor":[0.0,0.0,0.0],"doubleSided":false}],"nodes":[{"name":"world","children":[1,2,3]},{"name":"shape0_001-mesh","mesh":0,"matrix":[1.0,0.0,0.0,0.0,0.0,6.123233995736766e-17,-1.0,0.0,0.0,1.0,6.123233995736766e-17,0.0,0.0,0.0,0.0,1.0]},{"name":"shape1_001-mesh","mesh":1,"matrix":[1.0,0.0,0.0,0.0,0.0,6.123233995736766e-17,-1.0,0.0,0.0,1.0,6.123233995736766e-17,0.0,0.0,0.0,0.0,1.0]},{"name":"shape2_001-mesh","mesh":2,"matrix":[1.0,0.0,0.0,0.0,0.0,6.123233995736766e-17,-1.0,0.0,0.0,1.0,6.123233995736766e-17,0.0,0.0,0.0,0.0,1.0]}],"buffers":[{"uri":"gltf_buffer_0.bin","byteLength":60000},{"uri":"gltf_buffer_1.bin","byteLength":79524},{"uri":"gltf_buffer_2.bin","byteLength":79524},{"uri":"gltf_buffer_3.bin","byteLength":95328},{"uri":"gltf_buffer_4.bin","byteLength":126336},{"uri":"gltf_buffer_5.bin","byteLength":126336},{"uri":"gltf_buffer_6.bin","byteLength":5988},{"uri":"gltf_buffer_7.bin","byteLength":3264},{"uri":"gltf_buffer_8.bin","byteLength":3264}],"bufferViews":[{"buffer":0,"byteOffset":0,"byteLength":60000},{"buffer":1,"byteOffset":0,"byteLength":79524},{"buffer":2,"byteOffset":0,"byteLength":79524},{"buffer":3,"byteOffset":0,"byteLength":95328},{"buffer":4,"byteOffset":0,"byteLength":126336},{"buffer":5,"byteOffset":0,"byteLength":126336},{"buffer":6,"byteOffset":0,"byteLength":5988},{"buffer":7,"byteOffset":0,"byteLength":3264},{"buffer":8,"byteOffset":0,"byteLength":3264}]}