{"scene":0,"scenes":[{"nodes":[0],"extras":{"file_path":"/home/mspatz/code/Universal_Robots_ROS2_Description/meshes/ur3/visual/forearm.dae","file_name":"forearm.dae"}}],"asset":{"version":"2.0","generator":"https://github.com/mikedh/trimesh"},"accessors":[{"componentType":5125,"type":"SCALAR","bufferView":0,"count":5280,"max":[1296],"min":[0]},{"componentType":5126,"type":"VEC3","byteOffset":0,"bufferView":1,"count":1297,"max":[0.03748654946684837,0.050661198794841766,0.05500048026442528],"min":[-0.03754131868481636,-0.031803298741579056,-0.03743553161621094]},{"componentType":5126,"count":1297,"type":"VEC3","byteOffset":0,"bufferView":2,"max":[0.999983549118042,1.0,1.0],"min":[-0.9996383190155029,-0.9992437958717346,-0.9991613030433655]},{"componentType":5125,"type":"SCALAR","bufferView":3,"count":1650,"max":[555],"min":[0]},{"componentType":5126,"type":"VEC3","byteOffset":0,"bufferView":4,"count":556,"max":[0.03164058178663254,0.031140560284256935,0.17780110239982605],"min":[-0.031517259776592255,-0.03183817118406296,0.045798420906066895]},{"componentType":5126,"count":556,"type":"VEC3","byteOffset":0,"bufferView":5,"max":[0.9999784231185913,0.9997668266296387,1.0],"min":[-0.9997209310531616,-0.9987614750862122,-1.0]},{"componentType":5125,"type":"SCALAR","bufferView":6,"count":7473,"max":[2638],"min":[0]},{"componentType":5126,"type":"VEC3","byteOffset":0,"bufferView":7,"count":2639,"max":[0.03149544820189476,0.04229968041181564,0.24463680386543274],"min":[-0.031560540199279785,-0.03676037862896919,0.16849690675735474]},{"componentType":5126,"count":2639,"type":"VEC3","byteOffset":0,"bufferView":8,"max":[0.9999868869781494,1.0,1.0],"min":[-0.9999797940254211,-0.9999129176139832,-1.0]},{"componentType":5125,"type":"SCALAR","bufferView":9,"count":330,"max":[109],"min":[0]},{"componentType":5126,"type":"VEC3","byteOffset":0,"bufferView":10,"count":110,"max":[0.031236760318279266,0.030969729647040367,0.05230069160461426],"min":[-0.031331948935985565,-0.03219711035490036,0.04549890011548996]},{"componentType":5126,"count":110,"type":"VEC3","byteOffset":0,"bufferView":11,"max":[0.9991483092308044,0.9970442056655884,1.0],"min":[-0.9989086389541626,-0.994910717010498,-1.0]},{"componentType":5125,"type":"SCALAR","bufferView":12,"count":330,"max":[111],"min":[0]},{"componentType":5126,"type":"VEC3","byteOffset":0,"bufferView":13,"count":112,"max":[0.03156660869717598,0.03136080130934715,0.17800019681453705],"min":[-0.0312846302986145,-0.031888898462057114,0.1721992939710617]},{"componentType":5126,"count":112,"type":"VEC3","byteOffset":0,"bufferView":14,"max":[0.9929177761077881,0.9993451833724976,1.0],"min":[-0.9929067492485046,-0.9995050430297852,-1.0]},{"componentType":5125,"type":"SCALAR","bufferView":15,"count":13902,"max":[6083],"min":[0]},{"componentType":5126,"type":"VEC3","byteOffset":0,"bufferView":16,"count":6084,"max":[0.032166238874197006,-0.019109899178147316,0.24532370269298553],"min":[-0.03220533952116966,-0.0464477501809597,0.18101949989795685]},{"componentType":5126,"count":6084,"type":"VEC3","byteOffset":0,"bufferView":17,"max":[0.9995874762535095,0.9994270205497742,1.0],"min":[-0.9993615746498108,-0.9999911189079285,-0.9998083114624023]}],"meshes":[{"name":"Part__Feature019-mesh","extras":{"units":"meters","processed":true},"primitives":[{"attributes":{"POSITION":1,"NORMAL":2},"indices":0,"mode":4,"material":0}]},{"name":"Part__Feature023-mesh","extras":{"units":"meters","processed":true},"primitives":[{"attributes":{"POSITION":4,"NORMAL":5},"indices":3,"mode":4,"material":1}]},{"name":"Part__Feature025-mesh","extras":{"units":"meters","processed":true},"primitives":[{"attributes":{"POSITION":7,"NORMAL":8},"indices":6,"mode":4,"material":0}]},{"name":"Part__Feature024-mesh","extras":{"units":"meters","processed":true},"primitives":[{"attributes":{"POSITION":10,"NORMAL":11},"indices":9,"mode":4,"material":0}]},{"name":"Part__Feature026-mesh","extras":{"units":"meters","processed":true},"primitives":[{"attributes":{"POSITION":13,"NORMAL":14},"indices":12,"mode":4,"material":0}]},{"name":"Part__Feature032-mesh","extras":{"units":"meters","processed":true},"primitives":[{"attributes":{"POSITION":16,"NORMAL":17},"indices":15,"mode":4,"material":2}]}],"materials":[{"pbrMetallicRoughness":{"baseColorFactor":[0.1411764705882353,0.1411764705882353,0.1411764705882353,1.0],"roughnessFactor":0.816496580927726,"metallicFactor":0.0},"emissiveFactor":[0.0,0.0,0.0],"doubleSided":false},{"pbrMetallicRoughness":{"baseColorFactor":[0.33725490196078434,0.33725490196078434,0.33725490196078434,1.0],"roughnessFactor":0.816496580927726,"metallicFactor":0.0},"emissiveFactor":[0.0,0.0,0.0],"doubleSided":false},{"pbrMetallicRoughness":{"baseColorFactor":[0.25098039215686274,0.34901960784313724,0.40784313725490196,1.0],"roughnessFactor":0.816496580927726,"metallicFactor":0.0},"emissiveFactor":[0.0,0.0,0.0],"doubleSided":false}],"nodes":[{"name":"world","children":[1,2,3,4,5,6]},{"name":"Part__Feature019-mesh","mesh":0,"matrix":[1.0,0.0,0.0,0.0,0.0,6.123233995736766e-17,-1.0,0.0,0.0,1.0,6.123233995736766e-17,0.0,0.0,0.0,0.0,1.0]},{"name":"Part__Feature023-mesh","mesh":1,"matrix":[1.0,0.0,0.0,0.0,0.0,6.123233995736766e-17,-1.0,0.0,0.0,1.0,6.123233995736766e-17,0.0,0.0,0.0,0.0,1.0]},{"name":"Part__Feature025-mesh","mesh":2,"matrix":[1.0,0.0,0.0,0.0,0.0,6.123233995736766e-17,-1.0,0.0,0.0,1.0,6.123233995736766e-17,0.0,0.0,0.0,0.0,1.0]},{"name":"Part__Feature024-mesh","mesh":3,"matrix":[1.0,0.0,0.0,0.0,0.0,6.123233995736766e-17,-1.0,0.0,0.0,1.0,6.123233995736766e-17,0.0,0.0,0.0,0.0,1.0]},{"name":"Part__Feature026-mesh","mesh":4,"matrix":[1.0,0.0,0.0,0.0,0.0,6.123233995736766e-17,-1.0,0.0,0.0,1.0,6.123233995736766e-17,0.0,0.0,0.0,0.0,1.0]},{"name":"Part__Feature032-mesh","mesh":5,"matrix":[1.0,0.0,0.0,0.0,0.0,6.123233995736766e-17,-1.0,0.0,0.0,1.0,6.123233995736766e-17,0.0,0.0,0.0,0.0,1.0]}],"buffers":[{"uri":"gltf_buffer_0.bin","byteLength":21120},{"uri":"gltf_buffer_1.bin","byteLength":15564},{"uri":"gltf_buffer_2.bin","byteLength":15564},{"uri":"gltf_buffer_3.bin","byteLength":6600},{"uri":"gltf_buffer_4.bin","byteLength":6672},{"uri":"gltf_buffer_5.bin","byteLength":6672},{"uri":"gltf_buffer_6.bin","byteLength":29892},{"uri":"gltf_buffer_7.bin","byteLength":31668},{"uri":"gltf_buffer_8.bin","byteLength":31668},{"uri":"gltf_buffer_9.bin","byteLength":1320},{"uri":"gltf_buffer_10.bin","byteLength":1320},{"uri":"gltf_buffer_11.bin","byteLength":1320},{"uri":"gltf_buffer_12.bin","byteLength":1320},{"uri":"gltf_buffer_13.bin","byteLength":1344},{"uri":"gltf_buffer_14.bin","byteLength":1344},{"uri":"gltf_buffer_15.bin","byteLength":55608},{"uri":"gltf_buffer_16.bin","byteLength":73008},{"uri":"gltf_buffer_17.bin","byteLength":73008}],"bufferViews":[{"buffer":0,"byteOffset":0,"byteLength":21120},{"buffer":1,"byteOffset":0,"byteLength":15564},{"buffer":2,"byteOffset":0,"byteLength":15564},{"buffer":3,"byteOffset":0,"byteLength":6600},{"buffer":4,"byteOffset":0,"byteLength":6672},{"buffer":5,"byteOffset":0,"byteLength":6672},{"buffer":6,"byteOffset":0,"byteLength":29892},{"buffer":7,"byteOffset":0,"byteLength":31668},{"buffer":8,"byteOffset":0,"byteLength":31668},{"buffer":9,"byteOffset":0,"byteLength":1320},{"buffer":10,"byteOffset":0,"byteLength":1320},{"buffer":11,"byteOffset":0,"byteLength":1320},{"buffer":12,"byteOffset":0,"byteLength":1320},{"buffer":13,"byteOffset":0,"byteLength":1344},{"buffer":14,"byteOffset":0,"byteLength":1344},{"buffer":15,"byteOffset":0,"byteLength":55608},{"buffer":16,"byteOffset":0,"byteLength":73008},{"buffer":17,"byteOffset":0,"byteLength":73008}]}