{"scene":0,"scenes":[{"nodes":[0],"extras":{"file_path":"/home/mspatz/code/Universal_Robots_ROS2_Description/meshes/ur5/visual/shoulder.dae","file_name":"shoulder.dae"}}],"asset":{"version":"2.0","generator":"https://github.com/mikedh/trimesh"},"accessors":[{"componentType":5125,"type":"SCALAR","bufferView":0,"count":12162,"max":[2671],"min":[0]},{"componentType":5126,"type":"VEC3","byteOffset":0,"bufferView":1,"count":2672,"max":[0.05799983814358711,0.070499949157238,0.06044507026672363],"min":[-0.057999901473522186,-0.05799077823758125,-0.05989979952573776]},{"componentType":5126,"count":2672,"type":"VEC3","byteOffset":0,"bufferView":2,"max":[1.0,1.0,1.0],"min":[-1.0,-0.999871015548706,-1.0]},{"componentType":5125,"type":"SCALAR","bufferView":3,"count":408,"max":[137],"min":[0]},{"componentType":5126,"type":"VEC3","byteOffset":0,"bufferView":4,"count":138,"max":[0.057899948209524155,0.057764820754528046,-0.05989973992109299],"min":[-0.05789988860487938,-0.057764820754528046,-0.06519997119903564]},{"componentType":5126,"count":138,"type":"VEC3","byteOffset":0,"bufferView":5,"max":[1.0,0.9976709485054016,0.0],"min":[-1.0,-0.9976709485054016,-1.0]},{"componentType":5125,"type":"SCALAR","bufferView":6,"count":27906,"max":[7460],"min":[0]},{"componentType":5126,"type":"VEC3","byteOffset":0,"bufferView":7,"count":7461,"max":[0.05949980020523071,0.05949980020523071,0.06851059198379517],"min":[-0.05949980020523071,-0.05949980020523071,0.006082593929022551]},{"componentType":5126,"count":7461,"type":"VEC3","byteOffset":0,"bufferView":8,"max":[0.9999281764030457,0.9999371767044067,1.0],"min":[-0.9999427199363708,-0.9998778104782104,-0.9682460427284241]}],"meshes":[{"name":"ActorShape0_0-Mesh_023-mesh","extras":{"units":"meters","processed":true},"primitives":[{"attributes":{"POSITION":1,"NORMAL":2},"indices":0,"mode":4,"material":0}]},{"name":"ActorShape0_0-Mesh_023-mesh_1","extras":{"units":"meters","processed":true},"primitives":[{"attributes":{"POSITION":4,"NORMAL":5},"indices":3,"mode":4,"material":1}]},{"name":"ActorShape1_0-Mesh_017-mesh","extras":{"units":"meters","processed":true},"primitives":[{"attributes":{"POSITION":7,"NORMAL":8},"indices":6,"mode":4,"material":2}]}],"materials":[{"pbrMetallicRoughness":{"baseColorFactor":[0.17647058823529413,0.17647058823529413,0.17647058823529413,1.0],"roughnessFactor":0.816496580927726,"metallicFactor":0.0},"emissiveFactor":[0.0,0.0,0.0],"doubleSided":false},{"pbrMetallicRoughness":{"baseColorFactor":[0.06274509803921569,0.06274509803921569,0.06274509803921569,1.0],"roughnessFactor":0.816496580927726,"metallicFactor":0.0},"emissiveFactor":[0.0,0.0,0.0],"doubleSided":false},{"pbrMetallicRoughness":{"baseColorFactor":[0.3137254901960784,0.43529411764705883,0.5137254901960784,1.0],"roughnessFactor":0.816496580927726,"metallicFactor":0.0},"emissiveFactor":[0.0,0.0,0.0],"doubleSided":false}],"nodes":[{"name":"world","children":[1,2,3]},{"name":"ActorShape0_0-Mesh_023-mesh","mesh":0,"matrix":[1.0,0.0,0.0,0.0,0.0,6.123233995736766e-17,-1.0,0.0,0.0,1.0,6.123233995736766e-17,0.0,0.0,-1.5649999340894283e-07,1.5649999340894283e-07,1.0]},{"name":"ActorShape0_0-Mesh_023-mesh_1","mesh":1,"matrix":[1.0,0.0,0.0,0.0,0.0,6.123233995736766e-17,-1.0,0.0,0.0,1.0,6.123233995736766e-17,0.0,0.0,-1.5649999340894283e-07,1.5649999340894283e-07,1.0]},{"name":"ActorShape1_0-Mesh_017-mesh","mesh":2,"matrix":[1.0,0.0,0.0,0.0,0.0,6.123233995736766e-17,-1.0,0.0,0.0,1.0,6.123233995736766e-17,0.0,0.0,1.5649999340894283e-07,1.5649999340894283e-07,1.0]}],"buffers":[{"uri":"gltf_buffer_0.bin","byteLength":48648},{"uri":"gltf_buffer_1.bin","byteLength":32064},{"uri":"gltf_buffer_2.bin","byteLength":32064},{"uri":"gltf_buffer_3.bin","byteLength":1632},{"uri":"gltf_buffer_4.bin","byteLength":1656},{"uri":"gltf_buffer_5.bin","byteLength":1656},{"uri":"gltf_buffer_6.bin","byteLength":111624},{"uri":"gltf_buffer_7.bin","byteLength":89532},{"uri":"gltf_buffer_8.bin","byteLength":89532}],"bufferViews":[{"buffer":0,"byteOffset":0,"byteLength":48648},{"buffer":1,"byteOffset":0,"byteLength":32064},{"buffer":2,"byteOffset":0,"byteLength":32064},{"buffer":3,"byteOffset":0,"byteLength":1632},{"buffer":4,"byteOffset":0,"byteLength":1656},{"buffer":5,"byteOffset":0,"byteLength":1656},{"buffer":6,"byteOffset":0,"byteLength":111624},{"buffer":7,"byteOffset":0,"byteLength":89532},{"buffer":8,"byteOffset":0,"byteLength":89532}]}