{"scene":0,"scenes":[{"nodes":[0],"extras":{"file_path":"/home/mspatz/code/Universal_Robots_ROS2_Description/meshes/ur5e/visual/base.dae","file_name":"base.dae"}}],"asset":{"version":"2.0","generator":"https://github.com/mikedh/trimesh"},"accessors":[{"componentType":5125,"type":"SCALAR","bufferView":0,"count":7794,"max":[6749],"min":[0]},{"componentType":5126,"type":"VEC3","byteOffset":0,"bufferView":1,"count":6750,"max":[75.5,84.88841247558594,75.5],"min":[-75.5,0.0,-75.52639770507812]},{"componentType":5126,"count":6750,"type":"VEC3","byteOffset":0,"bufferView":2,"max":[0.9999892115592957,1.0,0.9998732805252075],"min":[-0.9997391104698181,-1.0,-0.9991145133972168]},{"componentType":5125,"type":"SCALAR","bufferView":3,"count":6720,"max":[6180],"min":[0]},{"componentType":5126,"type":"VEC3","byteOffset":0,"bufferView":4,"count":6181,"max":[58.00143051147461,99.0999984741211,58.0],"min":[-58.0,84.87657165527344,-58.0]},{"componentType":5126,"count":6181,"type":"VEC3","byteOffset":0,"bufferView":5,"max":[0.9996337890625,1.0,0.9993109107017517],"min":[-0.9998809695243835,-1.0,-0.9999849200248718]}],"meshes":[{"name":"eSeries_UR5e_013-mesh","extras":{"units":"meters","processed":true},"primitives":[{"attributes":{"POSITION":1,"NORMAL":2},"indices":0,"mode":4,"material":0}]},{"name":"eSeries_UR5e_066-mesh","extras":{"units":"meters","processed":true},"primitives":[{"attributes":{"POSITION":4,"NORMAL":5},"indices":3,"mode":4,"material":1}]}],"materials":[{"pbrMetallicRoughness":{"baseColorFactor":[0.2784313725490196,0.2784313725490196,0.2784313725490196,1.0],"roughnessFactor":1.0,"metallicFactor":0.0},"emissiveFactor":[0.0,0.0,0.0],"doubleSided":false},{"pbrMetallicRoughness":{"baseColorFactor":[0.03137254901960784,0.03137254901960784,0.03137254901960784,1.0],"roughnessFactor":1.0,"metallicFactor":0.0},"emissiveFactor":[0.0,0.0,0.0],"doubleSided":false}],"nodes":[{"name":"world","children":[1,2]},{"name":"eSeries_UR5e_013-mesh","mesh":0,"matrix":[-0.0009999870089814067,-1.995176172649485e-26,3.2583699627330986e-10,0.0,0.0,0.0009999870089814067,-4.371079880810261e-11,0.0,-3.2583699627330986e-10,-4.371079880810261e-11,-0.0009999870089814067,0.0,0.0,0.0,0.0,1.0]},{"name":"eSeries_UR5e_066-mesh","mesh":1,"matrix":[-0.0009999870089814067,-1.995176172649485e-26,3.2583699627330986e-10,0.0,0.0,0.0009999870089814067,-4.371079880810261e-11,0.0,-3.2583699627330986e-10,-4.371079880810261e-11,-0.0009999870089814067,0.0,0.0,0.0,0.0,1.0]}],"buffers":[{"uri":"gltf_buffer_0.bin","byteLength":31176},{"uri":"gltf_buffer_1.bin","byteLength":81000},{"uri":"gltf_buffer_2.bin","byteLength":81000},{"uri":"gltf_buffer_3.bin","byteLength":26880},{"uri":"gltf_buffer_4.bin","byteLength":74172},{"uri":"gltf_buffer_5.bin","byteLength":74172}],"bufferViews":[{"buffer":0,"byteOffset":0,"byteLength":31176},{"buffer":1,"byteOffset":0,"byteLength":81000},{"buffer":2,"byteOffset":0,"byteLength":81000},{"buffer":3,"byteOffset":0,"byteLength":26880},{"buffer":4,"byteOffset":0,"byteLength":74172},{"buffer":5,"byteOffset":0,"byteLength":74172}]}