{"scene":0,"scenes":[{"nodes":[0],"extras":{"file_path":"/home/mspatz/code/Universal_Robots_ROS2_Description/meshes/ur5/visual/base.dae","file_name":"base.dae"}}],"asset":{"version":"2.0","generator":"https://github.com/mikedh/trimesh"},"accessors":[{"componentType":5125,"type":"SCALAR","bufferView":0,"count":5385,"max":[1846],"min":[0]},{"componentType":5126,"type":"VEC3","byteOffset":0,"bufferView":1,"count":1847,"max":[0.07336585968732834,0.07336580008268356,0.02399975061416626],"min":[-0.07336580008268356,-0.07349920272827148,0.0]},{"componentType":5126,"count":1847,"type":"VEC3","byteOffset":0,"bufferView":2,"max":[1.0,1.0,1.0],"min":[-1.0,-1.0,-1.0]},{"componentType":5125,"type":"SCALAR","bufferView":3,"count":411,"max":[158],"min":[0]},{"componentType":5126,"type":"VEC3","byteOffset":0,"bufferView":4,"count":159,"max":[0.0051499600522220135,-0.0723826214671135,0.01364975981414318],"min":[-0.005150020122528076,-0.10999999940395355,0.0033499589189887047]},{"componentType":5126,"count":159,"type":"VEC3","byteOffset":0,"bufferView":5,"max":[0.9999998211860657,0.0007415370200760663,1.0],"min":[-1.0,-1.0,-0.9999997615814209]}],"meshes":[{"name":"ActorShape0_0-Mesh_021-mesh","extras":{"units":"meters","processed":true},"primitives":[{"attributes":{"POSITION":1,"NORMAL":2},"indices":0,"mode":4,"material":0}]},{"name":"ActorShape0_0-Mesh_021-mesh_1","extras":{"units":"meters","processed":true},"primitives":[{"attributes":{"POSITION":4,"NORMAL":5},"indices":3,"mode":4,"material":1}]}],"materials":[{"pbrMetallicRoughness":{"baseColorFactor":[0.5254901960784314,0.5254901960784314,0.5254901960784314,1.0],"roughnessFactor":1.0,"metallicFactor":0.0},"emissiveFactor":[0.0,0.0,0.0],"doubleSided":false},{"pbrMetallicRoughness":{"baseColorFactor":[0.06274509803921569,0.06274509803921569,0.06274509803921569,1.0],"roughnessFactor":1.0,"metallicFactor":0.0},"emissiveFactor":[0.0,0.0,0.0],"doubleSided":false}],"nodes":[{"name":"world","children":[1,2]},{"name":"ActorShape0_0-Mesh_021-mesh","mesh":0,"matrix":[1.0,0.0,0.0,0.0,0.0,6.123233995736766e-17,-1.0,0.0,0.0,1.0,6.123233995736766e-17,0.0,0.0,0.0,0.0,1.0]},{"name":"ActorShape0_0-Mesh_021-mesh_1","mesh":1,"matrix":[1.0,0.0,0.0,0.0,0.0,6.123233995736766e-17,-1.0,0.0,0.0,1.0,6.123233995736766e-17,0.0,0.0,0.0,0.0,1.0]}],"buffers":[{"uri":"gltf_buffer_0.bin","byteLength":21540},{"uri":"gltf_buffer_1.bin","byteLength":22164},{"uri":"gltf_buffer_2.bin","byteLength":22164},{"uri":"gltf_buffer_3.bin","byteLength":1644},{"uri":"gltf_buffer_4.bin","byteLength":1908},{"uri":"gltf_buffer_5.bin","byteLength":1908}],"bufferViews":[{"buffer":0,"byteOffset":0,"byteLength":21540},{"buffer":1,"byteOffset":0,"byteLength":22164},{"buffer":2,"byteOffset":0,"byteLength":22164},{"buffer":3,"byteOffset":0,"byteLength":1644},{"buffer":4,"byteOffset":0,"byteLength":1908},{"buffer":5,"byteOffset":0,"byteLength":1908}]}