{"scene":0,"scenes":[{"nodes":[0],"extras":{"file_path":"/home/mspatz/code/Universal_Robots_ROS2_Description/meshes/ur10e/visual/wrist1.dae","file_name":"wrist1.dae"}}],"asset":{"version":"2.0","generator":"https://github.com/mikedh/trimesh"},"accessors":[{"componentType":5125,"type":"SCALAR","bufferView":0,"count":2964,"max":[2669],"min":[0]},{"componentType":5126,"type":"VEC3","byteOffset":0,"bufferView":1,"count":2670,"max":[45.0654182434082,56.517269134521484,180.16900634765625],"min":[-45.042659759521484,-48.09035873413086,66.74945068359375]},{"componentType":5126,"count":2670,"type":"VEC3","byteOffset":0,"bufferView":2,"max":[0.9998847842216492,1.0,0.9995371103286743],"min":[-0.9999899864196777,-0.9995510578155518,-1.0]},{"componentType":5125,"type":"SCALAR","bufferView":3,"count":38361,"max":[36064],"min":[0]},{"componentType":5126,"type":"VEC3","byteOffset":0,"bufferView":4,"count":36065,"max":[46.98466110229492,-10.395890235900879,182.15379333496094],"min":[-46.98823165893555,-57.50690841674805,88.142822265625]},{"componentType":5126,"count":36065,"type":"VEC3","byteOffset":0,"bufferView":5,"max":[0.9999982714653015,0.9994335174560547,0.9999396800994873],"min":[-1.0,-1.0,-0.9999933838844299]},{"componentType":5125,"type":"SCALAR","bufferView":6,"count":6834,"max":[6236],"min":[0]},{"componentType":5126,"type":"VEC3","byteOffset":0,"bufferView":7,"count":6237,"max":[44.981239318847656,66.5670166015625,180.14959716796875],"min":[-44.99956130981445,56.49576187133789,90.14956665039062]},{"componentType":5126,"count":6237,"type":"VEC3","byteOffset":0,"bufferView":8,"max":[0.9997179508209229,1.0,0.9997376799583435],"min":[-0.9996269941329956,-1.0,-0.9997602105140686]}],"meshes":[{"name":"eSeries_UR10e_037-mesh","extras":{"units":"meters","processed":true},"primitives":[{"attributes":{"POSITION":1,"NORMAL":2},"indices":0,"mode":4,"material":0}]},{"name":"eSeries_UR10e_060-mesh","extras":{"units":"meters","processed":true},"primitives":[{"attributes":{"POSITION":4,"NORMAL":5},"indices":3,"mode":4,"material":1}]},{"name":"eSeries_UR10e_061-mesh","extras":{"units":"meters","processed":true},"primitives":[{"attributes":{"POSITION":7,"NORMAL":8},"indices":6,"mode":4,"material":2}]}],"materials":[{"pbrMetallicRoughness":{"baseColorFactor":[0.2784313725490196,0.2784313725490196,0.2784313725490196,1.0],"roughnessFactor":1.0,"metallicFactor":0.0},"emissiveFactor":[0.0,0.0,0.0],"doubleSided":false},{"pbrMetallicRoughness":{"baseColorFactor":[0.49019607843137253,0.6784313725490196,0.8,1.0],"roughnessFactor":1.0,"metallicFactor":0.0},"emissiveFactor":[0.0,0.0,0.0],"doubleSided":false},{"pbrMetallicRoughness":{"baseColorFactor":[0.03137254901960784,0.03137254901960784,0.03137254901960784,1.0],"roughnessFactor":1.0,"metallicFactor":0.0},"emissiveFactor":[0.0,0.0,0.0],"doubleSided":false}],"nodes":[{"name":"world","children":[1,2,3]},{"name":"eSeries_UR10e_037-mesh","mesh":0,"matrix":[-0.0009999870089814067,-1.995176172649485e-26,3.2583699627330986e-10,0.0,0.0,0.0009999870089814067,-4.371079880810261e-11,0.0,-3.2583699627330986e-10,-4.371079880810261e-11,-0.0009999870089814067,0.0,0.0,0.0,0.0,1.0]},{"name":"eSeries_UR10e_060-mesh","mesh":1,"matrix":[-0.0009999870089814067,-1.995176172649485e-26,3.2583699627330986e-10,0.0,0.0,0.0009999870089814067,-4.371079880810261e-11,0.0,-3.2583699627330986e-10,-4.371079880810261e-11,-0.0009999870089814067,0.0,0.0,0.0,0.0,1.0]},{"name":"eSeries_UR10e_061-mesh","mesh":2,"matrix":[-0.0009999870089814067,-1.995176172649485e-26,3.2583699627330986e-10,0.0,0.0,0.0009999870089814067,-4.371079880810261e-11,0.0,-3.2583699627330986e-10,-4.371079880810261e-11,-0.0009999870089814067,0.0,0.0,0.0,0.0,1.0]}],"buffers":[{"uri":"gltf_buffer_0.bin","byteLength":11856},{"uri":"gltf_buffer_1.bin","byteLength":32040},{"uri":"gltf_buffer_2.bin","byteLength":32040},{"uri":"gltf_buffer_3.bin","byteLength":153444},{"uri":"gltf_buffer_4.bin","byteLength":432780},{"uri":"gltf_buffer_5.bin","byteLength":432780},{"uri":"gltf_buffer_6.bin","byteLength":27336},{"uri":"gltf_buffer_7.bin","byteLength":74844},{"uri":"gltf_buffer_8.bin","byteLength":74844}],"bufferViews":[{"buffer":0,"byteOffset":0,"byteLength":11856},{"buffer":1,"byteOffset":0,"byteLength":32040},{"buffer":2,"byteOffset":0,"byteLength":32040},{"buffer":3,"byteOffset":0,"byteLength":153444},{"buffer":4,"byteOffset":0,"byteLength":432780},{"buffer":5,"byteOffset":0,"byteLength":432780},{"buffer":6,"byteOffset":0,"byteLength":27336},{"buffer":7,"byteOffset":0,"byteLength":74844},{"buffer":8,"byteOffset":0,"byteLength":74844}]}