{"scene":0,"scenes":[{"nodes":[0],"extras":{"file_path":"/home/mspatz/code/Universal_Robots_ROS2_Description/meshes/ur3e/visual/upperarm.dae","file_name":"upperarm.dae"}}],"asset":{"version":"2.0","generator":"https://github.com/mikedh/trimesh"},"accessors":[{"componentType":5125,"type":"SCALAR","bufferView":0,"count":4182,"max":[3469],"min":[0]},{"componentType":5126,"type":"VEC3","byteOffset":0,"bufferView":1,"count":3470,"max":[44.98582077026367,44.84804916381836,57.0502815246582],"min":[-44.99679183959961,-45.15195083618164,53.95153045654297]},{"componentType":5126,"count":3470,"type":"VEC3","byteOffset":0,"bufferView":2,"max":[0.9997414350509644,0.9997526407241821,0.9999999403953552],"min":[-0.9999740719795227,-0.9995309114456177,-1.0]},{"componentType":5125,"type":"SCALAR","bufferView":3,"count":40371,"max":[36437],"min":[0]},{"componentType":5126,"type":"VEC3","byteOffset":0,"bufferView":4,"count":36438,"max":[37.831031799316406,281.20941162109375,46.45153045654297],"min":[-37.84558868408203,197.54800415039062,-40.5902099609375]},{"componentType":5126,"count":36438,"type":"VEC3","byteOffset":0,"bufferView":5,"max":[1.0,1.0,1.0],"min":[-1.0,-1.0,-1.0]},{"componentType":5125,"type":"SCALAR","bufferView":6,"count":60228,"max":[55971],"min":[0]},{"componentType":5126,"type":"VEC3","byteOffset":0,"bufferView":7,"count":55972,"max":[46.98453140258789,46.849300384521484,-10.948209762573242],"min":[-46.98344039916992,-47.13917922973633,-58.05223846435547]},{"componentType":5126,"count":55972,"type":"VEC3","byteOffset":0,"bufferView":8,"max":[0.9999989867210388,0.9999824166297913,0.9999041557312012],"min":[-0.9999996423721313,-0.9999933838844299,-1.0]},{"componentType":5125,"type":"SCALAR","bufferView":9,"count":4110,"max":[3781],"min":[0]},{"componentType":5126,"type":"VEC3","byteOffset":0,"bufferView":10,"count":3782,"max":[46.270301818847656,52.748531341552734,57.05154037475586],"min":[-46.341251373291016,-45.14931869506836,-47.61479949951172]},{"componentType":5126,"count":3782,"type":"VEC3","byteOffset":0,"bufferView":11,"max":[1.0,1.0,1.0],"min":[-0.9998606443405151,-0.9999740719795227,-0.9989262819290161]},{"componentType":5125,"type":"SCALAR","bufferView":12,"count":2340,"max":[2231],"min":[0]},{"componentType":5126,"type":"VEC3","byteOffset":0,"bufferView":13,"count":2232,"max":[45.001670837402344,61.998050689697266,45.126869201660156],"min":[-44.98788833618164,52.748050689697266,-44.82781982421875]},{"componentType":5126,"count":2232,"type":"VEC3","byteOffset":0,"bufferView":14,"max":[0.9990288615226746,0.9891154170036316,0.9991984963417053],"min":[-0.9991410970687866,-0.9836313724517822,-0.999157726764679]},{"componentType":5125,"type":"SCALAR","bufferView":15,"count":1851,"max":[1844],"min":[0]},{"componentType":5126,"type":"VEC3","byteOffset":0,"bufferView":16,"count":1845,"max":[44.84022903442383,190.80459594726562,45.124290466308594],"min":[-45.01478958129883,61.97257995605469,-44.8172492980957]},{"componentType":5126,"count":1845,"type":"VEC3","byteOffset":0,"bufferView":17,"max":[0.9996062517166138,0.9986255168914795,0.998505175113678],"min":[-0.9989566802978516,-0.9999507665634155,-0.9983969926834106]},{"componentType":5125,"type":"SCALAR","bufferView":18,"count":1680,"max":[1583],"min":[0]},{"componentType":5126,"type":"VEC3","byteOffset":0,"bufferView":19,"count":1584,"max":[37.45840835571289,197.54800415039062,37.63764953613281],"min":[-37.500118255615234,190.79800415039062,-37.26688003540039]},{"componentType":5126,"count":1584,"type":"VEC3","byteOffset":0,"bufferView":20,"max":[0.9995946288108826,0.9975700974464417,0.9981076717376709],"min":[-0.9995691776275635,-0.9947272539138794,-0.9999874234199524]},{"componentType":5125,"type":"SCALAR","bufferView":21,"count":23508,"max":[22089],"min":[0]},{"componentType":5126,"type":"VEC3","byteOffset":0,"bufferView":22,"count":22090,"max":[39.34968185424805,282.718505859375,-7.120851039886475],"min":[-39.344329833984375,204.0684051513672,-56.3277702331543]},{"componentType":5126,"count":22090,"type":"VEC3","byteOffset":0,"bufferView":23,"max":[0.9999843835830688,0.9999393820762634,0.9995219111442566],"min":[-0.9999356865882874,-0.9999603033065796,-1.0]},{"componentType":5125,"type":"SCALAR","bufferView":24,"count":1962,"max":[1799],"min":[0]},{"componentType":5126,"type":"VEC3","byteOffset":0,"bufferView":25,"count":1800,"max":[37.46809005737305,280.8962097167969,54.001529693603516],"min":[-37.536659240722656,205.8907012939453,46.45153045654297]},{"componentType":5126,"count":1800,"type":"VEC3","byteOffset":0,"bufferView":26,"max":[0.9997485876083374,0.9999415874481201,0.9974337816238403],"min":[-0.9996523261070251,-0.9990873336791992,-1.0]}],"meshes":[{"name":"eSeries_UR3e_032-mesh","extras":{"units":"meters","processed":true},"primitives":[{"attributes":{"POSITION":1,"NORMAL":2},"indices":0,"mode":4,"material":0}]},{"name":"eSeries_UR3e_031-mesh","extras":{"units":"meters","processed":true},"primitives":[{"attributes":{"POSITION":4,"NORMAL":5},"indices":3,"mode":4,"material":1}]},{"name":"eSeries_UR3e_038-mesh","extras":{"units":"meters","processed":true},"primitives":[{"attributes":{"POSITION":7,"NORMAL":8},"indices":6,"mode":4,"material":2}]},{"name":"eSeries_UR3e_039-mesh","extras":{"units":"meters","processed":true},"primitives":[{"attributes":{"POSITION":10,"NORMAL":11},"indices":9,"mode":4,"material":1}]},{"name":"eSeries_UR3e_040-mesh","extras":{"units":"meters","processed":true},"primitives":[{"attributes":{"POSITION":13,"NORMAL":14},"indices":12,"mode":4,"material":3}]},{"name":"eSeries_UR3e_041-mesh","extras":{"units":"meters","processed":true},"primitives":[{"attributes":{"POSITION":16,"NORMAL":17},"indices":15,"mode":4,"material":0}]},{"name":"eSeries_UR3e_042-mesh","extras":{"units":"meters","processed":true},"primitives":[{"attributes":{"POSITION":19,"NORMAL":20},"indices":18,"mode":4,"material":3}]},{"name":"eSeries_UR3e_043-mesh","extras":{"units":"meters","processed":true},"primitives":[{"attributes":{"POSITION":22,"NORMAL":23},"indices":21,"mode":4,"material":2}]},{"name":"eSeries_UR3e_044-mesh","extras":{"units":"meters","processed":true},"primitives":[{"attributes":{"POSITION":25,"NORMAL":26},"indices":24,"mode":4,"material":3}]}],"materials":[{"pbrMetallicRoughness":{"baseColorFactor":[0.8196078431372549,0.8196078431372549,0.8196078431372549,1.0],"roughnessFactor":1.0,"metallicFactor":0.0},"emissiveFactor":[0.0,0.0,0.0],"doubleSided":false},{"pbrMetallicRoughness":{"baseColorFactor":[0.2784313725490196,0.2784313725490196,0.2784313725490196,1.0],"roughnessFactor":1.0,"metallicFactor":0.0},"emissiveFactor":[0.0,0.0,0.0],"doubleSided":false},{"pbrMetallicRoughness":{"baseColorFactor":[0.49019607843137253,0.6784313725490196,0.8,1.0],"roughnessFactor":1.0,"metallicFactor":0.0},"emissiveFactor":[0.0,0.0,0.0],"doubleSided":false},{"pbrMetallicRoughness":{"baseColorFactor":[0.03137254901960784,0.03137254901960784,0.03137254901960784,1.0],"roughnessFactor":1.0,"metallicFactor":0.0},"emissiveFactor":[0.0,0.0,0.0],"doubleSided":false}],"nodes":[{"name":"world","children":[1,2,3,4,5,6,7,8,9]},{"name":"eSeries_UR3e_032-mesh","mesh":0,"matrix":[0.0009999870089814067,3.258369962733099e-10,-5.642529776750393e-10,0.0,-3.2583699627330986e-10,0.0009999870089814067,-4.371060104962635e-11,0.0,5.642529776750393e-10,4.371079880810261e-11,0.0009999870089814067,0.0,0.0,0.0,0.0,1.0]},{"name":"eSeries_UR3e_031-mesh","mesh":1,"matrix":[0.0009999870089814067,3.258369962733099e-10,-5.642529776750393e-10,0.0,-3.2583699627330986e-10,0.0009999870089814067,-4.371060104962635e-11,0.0,5.642529776750393e-10,4.371079880810261e-11,0.0009999870089814067,0.0,0.0,0.0,0.0,1.0]},{"name":"eSeries_UR3e_038-mesh","mesh":2,"matrix":[0.0009999870089814067,3.258369962733099e-10,-5.642529776750393e-10,0.0,-3.2583699627330986e-10,0.0009999870089814067,-4.371060104962635e-11,0.0,5.642529776750393e-10,4.371079880810261e-11,0.0009999870089814067,0.0,0.0,0.0,0.0,1.0]},{"name":"eSeries_UR3e_039-mesh","mesh":3,"matrix":[0.0009999870089814067,3.258369962733099e-10,-5.642529776750393e-10,0.0,-3.2583699627330986e-10,0.0009999870089814067,-4.371060104962635e-11,0.0,5.642529776750393e-10,4.371079880810261e-11,0.0009999870089814067,0.0,0.0,0.0,0.0,1.0]},{"name":"eSeries_UR3e_040-mesh","mesh":4,"matrix":[0.0009999870089814067,3.258369962733099e-10,-5.642529776750393e-10,0.0,-3.2583699627330986e-10,0.0009999870089814067,-4.371060104962635e-11,0.0,5.642529776750393e-10,4.371079880810261e-11,0.0009999870089814067,0.0,0.0,0.0,0.0,1.0]},{"name":"eSeries_UR3e_041-mesh","mesh":5,"matrix":[0.0009999870089814067,3.258369962733099e-10,-5.642529776750393e-10,0.0,-3.2583699627330986e-10,0.0009999870089814067,-4.371060104962635e-11,0.0,5.642529776750393e-10,4.371079880810261e-11,0.0009999870089814067,0.0,0.0,0.0,0.0,1.0]},{"name":"eSeries_UR3e_042-mesh","mesh":6,"matrix":[0.0009999870089814067,3.258369962733099e-10,-5.642529776750393e-10,0.0,-3.2583699627330986e-10,0.0009999870089814067,-4.371060104962635e-11,0.0,5.642529776750393e-10,4.371079880810261e-11,0.0009999870089814067,0.0,0.0,0.0,0.0,1.0]},{"name":"eSeries_UR3e_043-mesh","mesh":7,"matrix":[0.0009999870089814067,3.258369962733099e-10,-5.642529776750393e-10,0.0,-3.2583699627330986e-10,0.0009999870089814067,-4.371060104962635e-11,0.0,5.642529776750393e-10,4.371079880810261e-11,0.0009999870089814067,0.0,0.0,0.0,0.0,1.0]},{"name":"eSeries_UR3e_044-mesh","mesh":8,"matrix":[0.0009999870089814067,3.258369962733099e-10,-5.642529776750393e-10,0.0,-3.2583699627330986e-10,0.0009999870089814067,-4.371060104962635e-11,0.0,5.642529776750393e-10,4.371079880810261e-11,0.0009999870089814067,0.0,0.0,0.0,0.0,1.0]}],"buffers":[{"uri":"gltf_buffer_0.bin","byteLength":16728},{"uri":"gltf_buffer_1.bin","byteLength":41640},{"uri":"gltf_buffer_2.bin","byteLength":41640},{"uri":"gltf_buffer_3.bin","byteLength":161484},{"uri":"gltf_buffer_4.bin","byteLength":437256},{"uri":"gltf_buffer_5.bin","byteLength":437256},{"uri":"gltf_buffer_6.bin","byteLength":240912},{"uri":"gltf_buffer_7.bin","byteLength":671664},{"uri":"gltf_buffer_8.bin","byteLength":671664},{"uri":"gltf_buffer_9.bin","byteLength":16440},{"uri":"gltf_buffer_10.bin","byteLength":45384},{"uri":"gltf_buffer_11.bin","byteLength":45384},{"uri":"gltf_buffer_12.bin","byteLength":9360},{"uri":"gltf_buffer_13.bin","byteLength":26784},{"uri":"gltf_buffer_14.bin","byteLength":26784},{"uri":"gltf_buffer_15.bin","byteLength":7404},{"uri":"gltf_buffer_16.bin","byteLength":22140},{"uri":"gltf_buffer_17.bin","byteLength":22140},{"uri":"gltf_buffer_18.bin","byteLength":6720},{"uri":"gltf_buffer_19.bin","byteLength":19008},{"uri":"gltf_buffer_20.bin","byteLength":19008},{"uri":"gltf_buffer_21.bin","byteLength":94032},{"uri":"gltf_buffer_22.bin","byteLength":265080},{"uri":"gltf_buffer_23.bin","byteLength":265080},{"uri":"gltf_buffer_24.bin","byteLength":7848},{"uri":"gltf_buffer_25.bin","byteLength":21600},{"uri":"gltf_buffer_26.bin","byteLength":21600}],"bufferViews":[{"buffer":0,"byteOffset":0,"byteLength":16728},{"buffer":1,"byteOffset":0,"byteLength":41640},{"buffer":2,"byteOffset":0,"byteLength":41640},{"buffer":3,"byteOffset":0,"byteLength":161484},{"buffer":4,"byteOffset":0,"byteLength":437256},{"buffer":5,"byteOffset":0,"byteLength":437256},{"buffer":6,"byteOffset":0,"byteLength":240912},{"buffer":7,"byteOffset":0,"byteLength":671664},{"buffer":8,"byteOffset":0,"byteLength":671664},{"buffer":9,"byteOffset":0,"byteLength":16440},{"buffer":10,"byteOffset":0,"byteLength":45384},{"buffer":11,"byteOffset":0,"byteLength":45384},{"buffer":12,"byteOffset":0,"byteLength":9360},{"buffer":13,"byteOffset":0,"byteLength":26784},{"buffer":14,"byteOffset":0,"byteLength":26784},{"buffer":15,"byteOffset":0,"byteLength":7404},{"buffer":16,"byteOffset":0,"byteLength":22140},{"buffer":17,"byteOffset":0,"byteLength":22140},{"buffer":18,"byteOffset":0,"byteLength":6720},{"buffer":19,"byteOffset":0,"byteLength":19008},{"buffer":20,"byteOffset":0,"byteLength":19008},{"buffer":21,"byteOffset":0,"byteLength":94032},{"buffer":22,"byteOffset":0,"byteLength":265080},{"buffer":23,"byteOffset":0,"byteLength":265080},{"buffer":24,"byteOffset":0,"byteLength":7848},{"buffer":25,"byteOffset":0,"byteLength":21600},{"buffer":26,"byteOffset":0,"byteLength":21600}]}