{"scene":0,"scenes":[{"nodes":[0],"extras":{"file_path":"/home/mspatz/code/Universal_Robots_ROS2_Description/meshes/ur20/visual/forearm.dae","file_name":"forearm.dae"}}],"asset":{"version":"2.0","generator":"https://github.com/mikedh/trimesh"},"accessors":[{"componentType":5125,"type":"SCALAR","bufferView":0,"count":2496,"max":[579],"min":[0]},{"componentType":5126,"type":"VEC3","byteOffset":0,"bufferView":1,"count":580,"max":[0.07507406920194626,-0.029727280139923096,0.6539123058319092],"min":[-0.07498723268508911,-0.17968100309371948,0.10510820150375366]},{"componentType":5126,"type":"VEC2","byteOffset":0,"bufferView":3,"count":580,"max":[0.7221794128417969,0.9989271759986877],"min":[0.013701260089874268,0.0014986991882324219]},{"componentType":5126,"count":580,"type":"VEC3","byteOffset":0,"bufferView":4,"max":[0.9999923706054688,0.9999967217445374,1.0],"min":[-0.9999948740005493,-0.9999986290931702,-1.0]},{"componentType":5125,"type":"SCALAR","bufferView":5,"count":2814,"max":[635],"min":[0]},{"componentType":5126,"type":"VEC3","byteOffset":0,"bufferView":6,"count":636,"max":[0.05343412980437279,-0.07583826035261154,0.7805488705635071],"min":[-0.053734831511974335,-0.1834051012992859,-0.07779394835233688]},{"componentType":5126,"type":"VEC2","byteOffset":0,"bufferView":7,"count":636,"max":[0.9638540148735046,0.7364403009414673],"min":[0.2606661021709442,0.03923767805099487]},{"componentType":5126,"count":636,"type":"VEC3","byteOffset":0,"bufferView":8,"max":[0.9688931107521057,0.48013389110565186,0.9999467134475708],"min":[-0.9695435762405396,-0.9992338418960571,-0.9999437928199768]},{"componentType":5125,"type":"SCALAR","bufferView":9,"count":5364,"max":[1371],"min":[0]},{"componentType":5126,"type":"VEC3","byteOffset":0,"bufferView":10,"count":1372,"max":[0.07517968863248825,-0.015499649569392204,0.7788035273551941],"min":[-0.07528948038816452,-0.17998570203781128,-0.07510697096586227]},{"componentType":5126,"type":"VEC2","byteOffset":0,"bufferView":11,"count":1372,"max":[0.998927116394043,0.9989272356033325],"min":[0.06698930263519287,0.003240823745727539]},{"componentType":5126,"count":1372,"type":"VEC3","byteOffset":0,"bufferView":12,"max":[0.9999979138374329,0.9999967217445374,1.0],"min":[-0.9999979138374329,-0.9999986290931702,-1.0]},{"componentType":5125,"type":"SCALAR","bufferView":13,"count":2202,"max":[797],"min":[0]},{"componentType":5126,"type":"VEC3","byteOffset":0,"bufferView":14,"count":798,"max":[0.07521820068359375,3.1292398716686876e-07,0.6674605011940002],"min":[-0.07502657175064087,-0.1797093003988266,-0.07511018961668015]},{"componentType":5126,"type":"VEC2","byteOffset":0,"bufferView":15,"count":798,"max":[0.9946048855781555,0.788743793964386],"min":[0.004521011840552092,0.0009561777114868164]},{"componentType":5126,"count":798,"type":"VEC3","byteOffset":0,"bufferView":16,"max":[0.9999923706054688,1.0,0.9999967217445374],"min":[-0.9999949336051941,-1.0,-0.9950169324874878]}],"meshes":[{"name":"Cylinder_035-mesh","extras":{"units":"meters","processed":true},"primitives":[{"attributes":{"POSITION":1,"TEXCOORD_0":2,"NORMAL":3},"indices":0,"mode":4,"material":0}]},{"name":"Cylinder_036-mesh","extras":{"units":"meters","processed":true},"primitives":[{"attributes":{"POSITION":5,"TEXCOORD_0":6,"NORMAL":7},"indices":4,"mode":4,"material":0}]},{"name":"Cylinder_037-mesh","extras":{"units":"meters","processed":true},"primitives":[{"attributes":{"POSITION":9,"TEXCOORD_0":10,"NORMAL":11},"indices":8,"mode":4,"material":0}]},{"name":"Cylinder_038-mesh","extras":{"units":"meters","processed":true},"primitives":[{"attributes":{"POSITION":13,"TEXCOORD_0":14,"NORMAL":15},"indices":12,"mode":4,"material":0}]}],"images":[{"bufferView":2,"mimeType":"image/png"}],"textures":[{"source":0}],"materials":[{"pbrMetallicRoughness":{"baseColorTexture":{"index":0},"baseColorFactor":[1.0,1.0,1.0,1.0],"roughnessFactor":1.0,"metallicFactor":0.0},"emissiveFactor":[0.0,0.0,0.0],"doubleSided":false}],"nodes":[{"name":"world","children":[1,2,3,4]},{"name":"Cylinder_035-mesh","mesh":0,"matrix":[1.0,0.0,0.0,0.0,0.0,6.123233995736766e-17,-1.0,0.0,0.0,1.0,6.123233995736766e-17,0.0,0.0,6.4110259380604695e-18,-0.1046999990940094,1.0]},{"name":"Cylinder_036-mesh","mesh":1,"matrix":[1.0,0.0,0.0,0.0,0.0,6.123233995736766e-17,-1.0,0.0,0.0,1.0,6.123233995736766e-17,0.0,0.0,6.4110259380604695e-18,-0.1046999990940094,1.0]},{"name":"Cylinder_037-mesh","mesh":2,"matrix":[1.0,0.0,0.0,0.0,0.0,6.123233995736766e-17,-1.0,0.0,0.0,1.0,6.123233995736766e-17,0.0,0.0,6.4110259380604695e-18,-0.1046999990940094,1.0]},{"name":"Cylinder_038-mesh","mesh":3,"matrix":[1.0,0.0,0.0,0.0,0.0,6.123233995736766e-17,-1.0,0.0,0.0,1.0,6.123233995736766e-17,0.0,0.0,6.4110259380604695e-18,-0.1046999990940094,1.0]}],"buffers":[{"uri":"gltf_buffer_0.bin","byteLength":9984},{"uri":"gltf_buffer_1.bin","byteLength":6960},{"uri":"gltf_buffer_2.bin","byteLength":1276308},{"uri":"gltf_buffer_3.bin","byteLength":4640},{"uri":"gltf_buffer_4.bin","byteLength":6960},{"uri":"gltf_buffer_5.bin","byteLength":11256},{"uri":"gltf_buffer_6.bin","byteLength":7632},{"uri":"gltf_buffer_7.bin","byteLength":5088},{"uri":"gltf_buffer_8.bin","byteLength":7632},{"uri":"gltf_buffer_9.bin","byteLength":21456},{"uri":"gltf_buffer_10.bin","byteLength":16464},{"uri":"gltf_buffer_11.bin","byteLength":10976},{"uri":"gltf_buffer_12.bin","byteLength":16464},{"uri":"gltf_buffer_13.bin","byteLength":8808},{"uri":"gltf_buffer_14.bin","byteLength":9576},{"uri":"gltf_buffer_15.bin","byteLength":6384},{"uri":"gltf_buffer_16.bin","byteLength":9576}],"bufferViews":[{"buffer":0,"byteOffset":0,"byteLength":9984},{"buffer":1,"byteOffset":0,"byteLength":6960},{"buffer":2,"byteOffset":0,"byteLength":1276308},{"buffer":3,"byteOffset":0,"byteLength":4640},{"buffer":4,"byteOffset":0,"byteLength":6960},{"buffer":5,"byteOffset":0,"byteLength":11256},{"buffer":6,"byteOffset":0,"byteLength":7632},{"buffer":7,"byteOffset":0,"byteLength":5088},{"buffer":8,"byteOffset":0,"byteLength":7632},{"buffer":9,"byteOffset":0,"byteLength":21456},{"buffer":10,"byteOffset":0,"byteLength":16464},{"buffer":11,"byteOffset":0,"byteLength":10976},{"buffer":12,"byteOffset":0,"byteLength":16464},{"buffer":13,"byteOffset":0,"byteLength":8808},{"buffer":14,"byteOffset":0,"byteLength":9576},{"buffer":15,"byteOffset":0,"byteLength":6384},{"buffer":16,"byteOffset":0,"byteLength":9576}]}