{"scene":0,"scenes":[{"nodes":[0],"extras":{"file_path":"/home/mspatz/code/Universal_Robots_ROS2_Description/meshes/ur10e/visual/upperarm.dae","file_name":"upperarm.dae"}}],"asset":{"version":"2.0","generator":"https://github.com/mikedh/trimesh"},"accessors":[{"componentType":5125,"type":"SCALAR","bufferView":0,"count":1554,"max":[1517],"min":[0]},{"componentType":5126,"type":"VEC3","byteOffset":0,"bufferView":1,"count":1518,"max":[74.88336181640625,538.6989135742188,74.91905212402344],"min":[-74.88323974609375,93.19586181640625,-74.8864974975586]},{"componentType":5126,"count":1518,"type":"VEC3","byteOffset":0,"bufferView":2,"max":[0.9991947412490845,0.9927645325660706,0.9995759725570679],"min":[-0.9991775155067444,-0.9999983310699463,-0.9992479681968689]},{"componentType":5125,"type":"SCALAR","bufferView":3,"count":32691,"max":[30984],"min":[0]},{"componentType":5126,"type":"VEC3","byteOffset":0,"bufferView":4,"count":30985,"max":[76.37361907958984,76.08828735351562,93.19689178466797],"min":[-76.35871887207031,-76.67862701416016,27.577529907226562]},{"componentType":5126,"count":30985,"type":"VEC3","byteOffset":0,"bufferView":5,"max":[0.99998539686203,0.9998748898506165,1.0],"min":[-0.9999781847000122,-0.9999651312828064,-0.9992210865020752]},{"componentType":5125,"type":"SCALAR","bufferView":6,"count":31752,"max":[30253],"min":[0]},{"componentType":5126,"type":"VEC3","byteOffset":0,"bufferView":7,"count":30254,"max":[60.08155059814453,672.4005737304688,72.02622985839844],"min":[-60.08436965942383,552.200927734375,8.765690803527832]},{"componentType":5126,"count":30254,"type":"VEC3","byteOffset":0,"bufferView":8,"max":[0.9999992847442627,0.9998234510421753,0.9999999403953552],"min":[-0.9999874234199524,-0.9996387362480164,-0.999359667301178]},{"componentType":5125,"type":"SCALAR","bufferView":9,"count":14379,"max":[12908],"min":[0]},{"componentType":5126,"type":"VEC3","byteOffset":0,"bufferView":10,"count":12909,"max":[58.3049201965332,670.5136108398438,62.46210861206055],"min":[-58.286258697509766,552.0975952148438,-63.40222930908203]},{"componentType":5126,"count":12909,"type":"VEC3","byteOffset":0,"bufferView":11,"max":[1.0,0.9994492530822754,0.9964226484298706],"min":[-1.0,-1.0,-1.0]},{"componentType":5125,"type":"SCALAR","bufferView":12,"count":3576,"max":[3248],"min":[0]},{"componentType":5126,"type":"VEC3","byteOffset":0,"bufferView":13,"count":3249,"max":[57.994850158691406,552.0985107421875,57.99258041381836],"min":[-57.99473190307617,538.6973266601562,-57.99702835083008]},{"componentType":5126,"count":3249,"type":"VEC3","byteOffset":0,"bufferView":14,"max":[0.9969300031661987,1.0,0.9969298839569092],"min":[-0.9969300031661987,-0.9999999403953552,-0.9969300031661987]},{"componentType":5125,"type":"SCALAR","bufferView":15,"count":31473,"max":[29261],"min":[0]},{"componentType":5126,"type":"VEC3","byteOffset":0,"bufferView":16,"count":29262,"max":[75.00009155273438,79.89779663085938,83.38011932373047],"min":[-74.99993896484375,-75.30232238769531,-81.40223693847656]},{"componentType":5126,"count":29262,"type":"VEC3","byteOffset":0,"bufferView":17,"max":[1.0,1.0,0.9997959136962891],"min":[-1.0,-0.9999855160713196,-1.0]},{"componentType":5125,"type":"SCALAR","bufferView":18,"count":3876,"max":[3667],"min":[0]},{"componentType":5126,"type":"VEC3","byteOffset":0,"bufferView":19,"count":3668,"max":[74.88246154785156,93.19864654541016,74.99482727050781],"min":[-74.88233947753906,79.89669036865234,-74.99687194824219]},{"componentType":5126,"count":3668,"type":"VEC3","byteOffset":0,"bufferView":20,"max":[1.0,0.9999967813491821,0.99774169921875],"min":[-1.0,-0.9999969005584717,-0.997684895992279]},{"componentType":5125,"type":"SCALAR","bufferView":21,"count":4128,"max":[3798],"min":[0]},{"componentType":5126,"type":"VEC3","byteOffset":0,"bufferView":22,"count":3799,"max":[58.00006103515625,670.2977294921875,-63.40222930908203],"min":[-57.99993896484375,554.1156005859375,-77.60379791259766]},{"componentType":5126,"count":3799,"type":"VEC3","byteOffset":0,"bufferView":23,"max":[0.9990102648735046,0.9996870160102844,1.0],"min":[-0.9999711513519287,-0.9990435242652893,-1.0]}],"meshes":[{"name":"eSeries_UR10e_028-mesh","extras":{"units":"meters","processed":true},"primitives":[{"attributes":{"POSITION":1,"NORMAL":2},"indices":0,"mode":4,"material":0}]},{"name":"eSeries_UR10e_046-mesh","extras":{"units":"meters","processed":true},"primitives":[{"attributes":{"POSITION":4,"NORMAL":5},"indices":3,"mode":4,"material":1}]},{"name":"eSeries_UR10e_047-mesh","extras":{"units":"meters","processed":true},"primitives":[{"attributes":{"POSITION":7,"NORMAL":8},"indices":6,"mode":4,"material":1}]},{"name":"eSeries_UR10e_049-mesh","extras":{"units":"meters","processed":true},"primitives":[{"attributes":{"POSITION":10,"NORMAL":11},"indices":9,"mode":4,"material":2}]},{"name":"eSeries_UR10e_050-mesh","extras":{"units":"meters","processed":true},"primitives":[{"attributes":{"POSITION":13,"NORMAL":14},"indices":12,"mode":4,"material":3}]},{"name":"eSeries_UR10e_051-mesh","extras":{"units":"meters","processed":true},"primitives":[{"attributes":{"POSITION":16,"NORMAL":17},"indices":15,"mode":4,"material":2}]},{"name":"eSeries_UR10e_052-mesh","extras":{"units":"meters","processed":true},"primitives":[{"attributes":{"POSITION":19,"NORMAL":20},"indices":18,"mode":4,"material":3}]},{"name":"eSeries_UR10e_053-mesh","extras":{"units":"meters","processed":true},"primitives":[{"attributes":{"POSITION":22,"NORMAL":23},"indices":21,"mode":4,"material":3}]}],"materials":[{"pbrMetallicRoughness":{"baseColorFactor":[0.8196078431372549,0.8196078431372549,0.8196078431372549,1.0],"roughnessFactor":1.0,"metallicFactor":0.0},"emissiveFactor":[0.0,0.0,0.0],"doubleSided":false},{"pbrMetallicRoughness":{"baseColorFactor":[0.49019607843137253,0.6784313725490196,0.8,1.0],"roughnessFactor":1.0,"metallicFactor":0.0},"emissiveFactor":[0.0,0.0,0.0],"doubleSided":false},{"pbrMetallicRoughness":{"baseColorFactor":[0.2784313725490196,0.2784313725490196,0.2784313725490196,1.0],"roughnessFactor":1.0,"metallicFactor":0.0},"emissiveFactor":[0.0,0.0,0.0],"doubleSided":false},{"pbrMetallicRoughness":{"baseColorFactor":[0.03137254901960784,0.03137254901960784,0.03137254901960784,1.0],"roughnessFactor":1.0,"metallicFactor":0.0},"emissiveFactor":[0.0,0.0,0.0],"doubleSided":false}],"nodes":[{"name":"world","children":[1,2,3,4,5,6,7,8]},{"name":"eSeries_UR10e_028-mesh","mesh":0,"matrix":[-0.0009999870089814067,-1.995176172649485e-26,3.2583699627330986e-10,0.0,0.0,0.0009999870089814067,-4.371079880810261e-11,0.0,-3.2583699627330986e-10,-4.371079880810261e-11,-0.0009999870089814067,0.0,0.0,0.0,0.0,1.0]},{"name":"eSeries_UR10e_046-mesh","mesh":1,"matrix":[-0.0009999870089814067,-1.995176172649485e-26,3.2583699627330986e-10,0.0,0.0,0.0009999870089814067,-4.371079880810261e-11,0.0,-3.2583699627330986e-10,-4.371079880810261e-11,-0.0009999870089814067,0.0,0.0,0.0,0.0,1.0]},{"name":"eSeries_UR10e_047-mesh","mesh":2,"matrix":[-0.0009999870089814067,-1.995176172649485e-26,3.2583699627330986e-10,0.0,0.0,0.0009999870089814067,-4.371079880810261e-11,0.0,-3.2583699627330986e-10,-4.371079880810261e-11,-0.0009999870089814067,0.0,0.0,0.0,0.0,1.0]},{"name":"eSeries_UR10e_049-mesh","mesh":3,"matrix":[-0.0009999870089814067,-1.995176172649485e-26,3.2583699627330986e-10,0.0,0.0,0.0009999870089814067,-4.371079880810261e-11,0.0,-3.2583699627330986e-10,-4.371079880810261e-11,-0.0009999870089814067,0.0,0.0,0.0,0.0,1.0]},{"name":"eSeries_UR10e_050-mesh","mesh":4,"matrix":[-0.0009999870089814067,-1.995176172649485e-26,3.2583699627330986e-10,0.0,0.0,0.0009999870089814067,-4.371079880810261e-11,0.0,-3.2583699627330986e-10,-4.371079880810261e-11,-0.0009999870089814067,0.0,0.0,0.0,0.0,1.0]},{"name":"eSeries_UR10e_051-mesh","mesh":5,"matrix":[-0.0009999870089814067,-1.995176172649485e-26,3.2583699627330986e-10,0.0,0.0,0.0009999870089814067,-4.371079880810261e-11,0.0,-3.2583699627330986e-10,-4.371079880810261e-11,-0.0009999870089814067,0.0,0.0,0.0,0.0,1.0]},{"name":"eSeries_UR10e_052-mesh","mesh":6,"matrix":[-0.0009999870089814067,-1.995176172649485e-26,3.2583699627330986e-10,0.0,0.0,0.0009999870089814067,-4.371079880810261e-11,0.0,-3.2583699627330986e-10,-4.371079880810261e-11,-0.0009999870089814067,0.0,0.0,0.0,0.0,1.0]},{"name":"eSeries_UR10e_053-mesh","mesh":7,"matrix":[-0.0009999870089814067,-1.995176172649485e-26,3.2583699627330986e-10,0.0,0.0,0.0009999870089814067,-4.371079880810261e-11,0.0,-3.2583699627330986e-10,-4.371079880810261e-11,-0.0009999870089814067,0.0,0.0,0.0,0.0,1.0]}],"buffers":[{"uri":"gltf_buffer_0.bin","byteLength":6216},{"uri":"gltf_buffer_1.bin","byteLength":18216},{"uri":"gltf_buffer_2.bin","byteLength":18216},{"uri":"gltf_buffer_3.bin","byteLength":130764},{"uri":"gltf_buffer_4.bin","byteLength":371820},{"uri":"gltf_buffer_5.bin","byteLength":371820},{"uri":"gltf_buffer_6.bin","byteLength":127008},{"uri":"gltf_buffer_7.bin","byteLength":363048},{"uri":"gltf_buffer_8.bin","byteLength":363048},{"uri":"gltf_buffer_9.bin","byteLength":57516},{"uri":"gltf_buffer_10.bin","byteLength":154908},{"uri":"gltf_buffer_11.bin","byteLength":154908},{"uri":"gltf_buffer_12.bin","byteLength":14304},{"uri":"gltf_buffer_13.bin","byteLength":38988},{"uri":"gltf_buffer_14.bin","byteLength":38988},{"uri":"gltf_buffer_15.bin","byteLength":125892},{"uri":"gltf_buffer_16.bin","byteLength":351144},{"uri":"gltf_buffer_17.bin","byteLength":351144},{"uri":"gltf_buffer_18.bin","byteLength":15504},{"uri":"gltf_buffer_19.bin","byteLength":44016},{"uri":"gltf_buffer_20.bin","byteLength":44016},{"uri":"gltf_buffer_21.bin","byteLength":16512},{"uri":"gltf_buffer_22.bin","byteLength":45588},{"uri":"gltf_buffer_23.bin","byteLength":45588}],"bufferViews":[{"buffer":0,"byteOffset":0,"byteLength":6216},{"buffer":1,"byteOffset":0,"byteLength":18216},{"buffer":2,"byteOffset":0,"byteLength":18216},{"buffer":3,"byteOffset":0,"byteLength":130764},{"buffer":4,"byteOffset":0,"byteLength":371820},{"buffer":5,"byteOffset":0,"byteLength":371820},{"buffer":6,"byteOffset":0,"byteLength":127008},{"buffer":7,"byteOffset":0,"byteLength":363048},{"buffer":8,"byteOffset":0,"byteLength":363048},{"buffer":9,"byteOffset":0,"byteLength":57516},{"buffer":10,"byteOffset":0,"byteLength":154908},{"buffer":11,"byteOffset":0,"byteLength":154908},{"buffer":12,"byteOffset":0,"byteLength":14304},{"buffer":13,"byteOffset":0,"byteLength":38988},{"buffer":14,"byteOffset":0,"byteLength":38988},{"buffer":15,"byteOffset":0,"byteLength":125892},{"buffer":16,"byteOffset":0,"byteLength":351144},{"buffer":17,"byteOffset":0,"byteLength":351144},{"buffer":18,"byteOffset":0,"byteLength":15504},{"buffer":19,"byteOffset":0,"byteLength":44016},{"buffer":20,"byteOffset":0,"byteLength":44016},{"buffer":21,"byteOffset":0,"byteLength":16512},{"buffer":22,"byteOffset":0,"byteLength":45588},{"buffer":23,"byteOffset":0,"byteLength":45588}]}