{"scene":0,"scenes":[{"nodes":[0],"extras":{"file_path":"/home/mspatz/code/Universal_Robots_ROS2_Description/meshes/ur3e/visual/wrist3.dae","file_name":"wrist3.dae"}}],"asset":{"version":"2.0","generator":"https://github.com/mikedh/trimesh"},"accessors":[{"componentType":5125,"type":"SCALAR","bufferView":0,"count":3381,"max":[2929],"min":[0]},{"componentType":5126,"type":"VEC3","byteOffset":0,"bufferView":1,"count":2930,"max":[31.538179397583008,37.788021087646484,-50.44786834716797],"min":[-31.532859802246094,-31.65406036376953,-92.21115112304688]},{"componentType":5126,"count":2930,"type":"VEC3","byteOffset":0,"bufferView":2,"max":[0.9997541904449463,1.0,1.0],"min":[-0.9999868273735046,-0.9998633861541748,-1.0]}],"meshes":[{"name":"eSeries_UR3e_002-mesh","extras":{"units":"meters","processed":true},"primitives":[{"attributes":{"POSITION":1,"NORMAL":2},"indices":0,"mode":4,"material":0}]}],"materials":[{"pbrMetallicRoughness":{"baseColorFactor":[0.8196078431372549,0.8196078431372549,0.8196078431372549,1.0],"roughnessFactor":1.0,"metallicFactor":0.0},"emissiveFactor":[0.0,0.0,0.0],"doubleSided":false}],"nodes":[{"name":"world","children":[1]},{"name":"eSeries_UR3e_002-mesh","mesh":0,"matrix":[0.0009999870089814067,3.258369962733099e-10,-5.642529776750393e-10,0.0,-3.2583699627330986e-10,0.0009999870089814067,-4.371060104962635e-11,0.0,5.642529776750393e-10,4.371079880810261e-11,0.0009999870089814067,0.0,0.0,0.0,0.0,1.0]}],"buffers":[{"uri":"gltf_buffer_0.bin","byteLength":13524},{"uri":"gltf_buffer_1.bin","byteLength":35160},{"uri":"gltf_buffer_2.bin","byteLength":35160}],"bufferViews":[{"buffer":0,"byteOffset":0,"byteLength":13524},{"buffer":1,"byteOffset":0,"byteLength":35160},{"buffer":2,"byteOffset":0,"byteLength":35160}]}