{"scene":0,"scenes":[{"nodes":[0],"extras":{"file_path":"/home/mspatz/code/Universal_Robots_ROS2_Description/meshes/ur10/visual/forearm.dae","file_name":"forearm.dae"}}],"asset":{"version":"2.0","generator":"https://github.com/mikedh/trimesh"},"accessors":[{"componentType":5125,"type":"SCALAR","bufferView":0,"count":27000,"max":[6225],"min":[0]},{"componentType":5126,"type":"VEC3","byteOffset":0,"bufferView":1,"count":6226,"max":[0.05799996107816696,0.060890790075063705,0.6183000802993774],"min":[-0.05799996107816696,-0.061536308377981186,-0.05629783123731613]},{"componentType":5126,"count":6226,"type":"VEC3","byteOffset":0,"bufferView":2,"max":[1.0,1.0,1.0],"min":[-1.0,-1.0,-1.0]},{"componentType":5125,"type":"SCALAR","bufferView":3,"count":44994,"max":[12719],"min":[0]},{"componentType":5126,"type":"VEC3","byteOffset":0,"bufferView":4,"count":12720,"max":[0.05999875068664551,-0.00864869263023138,0.6192001104354858],"min":[-0.05999987944960594,-0.06889480352401733,-0.05829982832074165]},{"componentType":5126,"count":12720,"type":"VEC3","byteOffset":0,"bufferView":5,"max":[0.9999906420707703,1.0,0.9999753832817078],"min":[-0.9999819993972778,-1.0,-0.9999937415122986]},{"componentType":5125,"type":"SCALAR","bufferView":6,"count":4497,"max":[3515],"min":[0]},{"componentType":5126,"type":"VEC3","byteOffset":0,"bufferView":7,"count":3516,"max":[0.03875374048948288,0.05863087996840477,0.6144599914550781],"min":[-0.03875052183866501,-0.06301558017730713,-0.05834989994764328]},{"componentType":5126,"count":3516,"type":"VEC3","byteOffset":0,"bufferView":8,"max":[0.998911440372467,1.0,1.0],"min":[-0.999972403049469,-1.0,-1.0]},{"componentType":5125,"type":"SCALAR","bufferView":9,"count":2028,"max":[436],"min":[0]},{"componentType":5126,"type":"VEC3","byteOffset":0,"bufferView":10,"count":437,"max":[0.04500066861510277,0.04414016008377075,0.519300103187561],"min":[-0.04500066861510277,-0.04575920104980469,0.08180207014083862]},{"componentType":5126,"count":437,"type":"VEC3","byteOffset":0,"bufferView":11,"max":[1.0,1.0,1.0],"min":[-1.0,-1.0,-0.4121619760990143]},{"componentType":5125,"type":"SCALAR","bufferView":12,"count":444,"max":[151],"min":[0]},{"componentType":5126,"type":"VEC3","byteOffset":0,"bufferView":13,"count":152,"max":[0.058601368218660355,0.06729990243911743,0.058972060680389404],"min":[-0.05729407072067261,0.058890748769044876,-0.05675894021987915]},{"componentType":5126,"count":152,"type":"VEC3","byteOffset":0,"bufferView":14,"max":[0.9999878406524658,1.0,0.9967606663703918],"min":[-0.9993730783462524,-1.0,-0.9975054264068604]}],"meshes":[{"name":"shape0-mesh","extras":{"units":"meters","processed":true},"primitives":[{"attributes":{"POSITION":1,"NORMAL":2},"indices":0,"mode":4,"material":0}]},{"name":"shape1-mesh","extras":{"units":"meters","processed":true},"primitives":[{"attributes":{"POSITION":4,"NORMAL":5},"indices":3,"mode":4,"material":1}]},{"name":"shape2-mesh","extras":{"units":"meters","processed":true},"primitives":[{"attributes":{"POSITION":7,"NORMAL":8},"indices":6,"mode":4,"material":2}]},{"name":"shape3-mesh","extras":{"units":"meters","processed":true},"primitives":[{"attributes":{"POSITION":10,"NORMAL":11},"indices":9,"mode":4,"material":3}]},{"name":"shape4-mesh","extras":{"units":"meters","processed":true},"primitives":[{"attributes":{"POSITION":13,"NORMAL":14},"indices":12,"mode":4,"material":4}]}],"materials":[{"pbrMetallicRoughness":{"baseColorFactor":[0.2235294117647059,0.2235294117647059,0.2235294117647059,1.0],"roughnessFactor":1.0,"metallicFactor":0.0},"emissiveFactor":[0.0,0.0,0.0],"doubleSided":false},{"pbrMetallicRoughness":{"baseColorFactor":[0.39215686274509803,0.5411764705882353,0.6392156862745098,1.0],"roughnessFactor":1.0,"metallicFactor":0.0},"emissiveFactor":[0.0,0.0,0.0],"doubleSided":false},{"pbrMetallicRoughness":{"baseColorFactor":[0.4627450980392157,0.4627450980392157,0.4627450980392157,1.0],"roughnessFactor":1.0,"metallicFactor":0.0},"emissiveFactor":[0.0,0.0,0.0],"doubleSided":false},{"pbrMetallicRoughness":{"baseColorFactor":[0.6549019607843137,0.6549019607843137,0.6549019607843137,1.0],"roughnessFactor":1.0,"metallicFactor":0.0},"emissiveFactor":[0.0,0.0,0.0],"doubleSided":false},{"pbrMetallicRoughness":{"baseColorFactor":[0.0784313725490196,0.0784313725490196,0.0784313725490196,1.0],"roughnessFactor":1.0,"metallicFactor":0.0},"emissiveFactor":[0.0,0.0,0.0],"doubleSided":false}],"nodes":[{"name":"world","children":[1,2,3,4,5]},{"name":"shape0-mesh","mesh":0,"matrix":[1.0,0.0,0.0,0.0,0.0,6.123233995736766e-17,-1.0,0.0,0.0,1.0,6.123233995736766e-17,0.0,0.0,0.0,0.0,1.0]},{"name":"shape1-mesh","mesh":1,"matrix":[1.0,0.0,0.0,0.0,0.0,6.123233995736766e-17,-1.0,0.0,0.0,1.0,6.123233995736766e-17,0.0,0.0,0.0,0.0,1.0]},{"name":"shape2-mesh","mesh":2,"matrix":[1.0,0.0,0.0,0.0,0.0,6.123233995736766e-17,-1.0,0.0,0.0,1.0,6.123233995736766e-17,0.0,0.0,0.0,0.0,1.0]},{"name":"shape3-mesh","mesh":3,"matrix":[1.0,0.0,0.0,0.0,0.0,6.123233995736766e-17,-1.0,0.0,0.0,1.0,6.123233995736766e-17,0.0,0.0,0.0,0.0,1.0]},{"name":"shape4-mesh","mesh":4,"matrix":[1.0,0.0,0.0,0.0,0.0,6.123233995736766e-17,-1.0,0.0,0.0,1.0,6.123233995736766e-17,0.0,0.0,0.0,0.0,1.0]}],"buffers":[{"uri":"gltf_buffer_0.bin","byteLength":108000},{"uri":"gltf_buffer_1.bin","byteLength":74712},{"uri":"gltf_buffer_2.bin","byteLength":74712},{"uri":"gltf_buffer_3.bin","byteLength":179976},{"uri":"gltf_buffer_4.bin","byteLength":152640},{"uri":"gltf_buffer_5.bin","byteLength":152640},{"uri":"gltf_buffer_6.bin","byteLength":17988},{"uri":"gltf_buffer_7.bin","byteLength":42192},{"uri":"gltf_buffer_8.bin","byteLength":42192},{"uri":"gltf_buffer_9.bin","byteLength":8112},{"uri":"gltf_buffer_10.bin","byteLength":5244},{"uri":"gltf_buffer_11.bin","byteLength":5244},{"uri":"gltf_buffer_12.bin","byteLength":1776},{"uri":"gltf_buffer_13.bin","byteLength":1824},{"uri":"gltf_buffer_14.bin","byteLength":1824}],"bufferViews":[{"buffer":0,"byteOffset":0,"byteLength":108000},{"buffer":1,"byteOffset":0,"byteLength":74712},{"buffer":2,"byteOffset":0,"byteLength":74712},{"buffer":3,"byteOffset":0,"byteLength":179976},{"buffer":4,"byteOffset":0,"byteLength":152640},{"buffer":5,"byteOffset":0,"byteLength":152640},{"buffer":6,"byteOffset":0,"byteLength":17988},{"buffer":7,"byteOffset":0,"byteLength":42192},{"buffer":8,"byteOffset":0,"byteLength":42192},{"buffer":9,"byteOffset":0,"byteLength":8112},{"buffer":10,"byteOffset":0,"byteLength":5244},{"buffer":11,"byteOffset":0,"byteLength":5244},{"buffer":12,"byteOffset":0,"byteLength":1776},{"buffer":13,"byteOffset":0,"byteLength":1824},{"buffer":14,"byteOffset":0,"byteLength":1824}]}