{"scene":0,"scenes":[{"nodes":[0],"extras":{"file_path":"/home/mspatz/code/Universal_Robots_ROS2_Description/meshes/ur5e/visual/shoulder.dae","file_name":"shoulder.dae"}}],"asset":{"version":"2.0","generator":"https://github.com/mikedh/trimesh"},"accessors":[{"componentType":5125,"type":"SCALAR","bufferView":0,"count":28761,"max":[26040],"min":[0]},{"componentType":5126,"type":"VEC3","byteOffset":0,"bufferView":1,"count":26041,"max":[58.331790924072266,61.96295166015625,60.2005615234375],"min":[-58.32910919189453,-63.9021110534668,-58.29792022705078]},{"componentType":5126,"count":26041,"type":"VEC3","byteOffset":0,"bufferView":2,"max":[1.0,0.9998782873153687,1.0],"min":[-1.0,-1.0,-0.999696671962738]},{"componentType":5125,"type":"SCALAR","bufferView":3,"count":6804,"max":[6215],"min":[0]},{"componentType":5126,"type":"VEC3","byteOffset":0,"bufferView":4,"count":6216,"max":[57.993438720703125,57.49089813232422,74.40113067626953],"min":[-58.0,-58.495121002197266,60.19844055175781]},{"componentType":5126,"count":6216,"type":"VEC3","byteOffset":0,"bufferView":5,"max":[0.9998035430908203,0.9998311400413513,1.0],"min":[-0.9999807476997375,-0.9997991919517517,-0.9999998211860657]},{"componentType":5125,"type":"SCALAR","bufferView":6,"count":34305,"max":[32549],"min":[0]},{"componentType":5126,"type":"VEC3","byteOffset":0,"bufferView":7,"count":32550,"max":[60.082130432128906,71.52474975585938,60.10211944580078],"min":[-60.09994888305664,8.268399238586426,-60.10340881347656]},{"componentType":5126,"count":32550,"type":"VEC3","byteOffset":0,"bufferView":8,"max":[0.9999934434890747,0.9999997615814209,0.9999545812606812],"min":[-0.9999798536300659,-0.9999727010726929,-0.9997880458831787]}],"meshes":[{"name":"eSeries_UR5e_001-mesh","extras":{"units":"meters","processed":true},"primitives":[{"attributes":{"POSITION":1,"NORMAL":2},"indices":0,"mode":4,"material":0}]},{"name":"eSeries_UR5e_067-mesh","extras":{"units":"meters","processed":true},"primitives":[{"attributes":{"POSITION":4,"NORMAL":5},"indices":3,"mode":4,"material":1}]},{"name":"eSeries_UR5e_068-mesh","extras":{"units":"meters","processed":true},"primitives":[{"attributes":{"POSITION":7,"NORMAL":8},"indices":6,"mode":4,"material":2}]}],"materials":[{"pbrMetallicRoughness":{"baseColorFactor":[0.2784313725490196,0.2784313725490196,0.2784313725490196,1.0],"roughnessFactor":1.0,"metallicFactor":0.0},"emissiveFactor":[0.0,0.0,0.0],"doubleSided":false},{"pbrMetallicRoughness":{"baseColorFactor":[0.03137254901960784,0.03137254901960784,0.03137254901960784,1.0],"roughnessFactor":1.0,"metallicFactor":0.0},"emissiveFactor":[0.0,0.0,0.0],"doubleSided":false},{"pbrMetallicRoughness":{"baseColorFactor":[0.49019607843137253,0.6784313725490196,0.8,1.0],"roughnessFactor":1.0,"metallicFactor":0.0},"emissiveFactor":[0.0,0.0,0.0],"doubleSided":false}],"nodes":[{"name":"world","children":[1,2,3]},{"name":"eSeries_UR5e_001-mesh","mesh":0,"matrix":[-0.0009999870089814067,-1.995176172649485e-26,3.2583699627330986e-10,0.0,0.0,0.0009999870089814067,-4.371079880810261e-11,0.0,-3.2583699627330986e-10,-4.371079880810261e-11,-0.0009999870089814067,0.0,0.0,0.0,0.0,1.0]},{"name":"eSeries_UR5e_067-mesh","mesh":1,"matrix":[-0.0009999870089814067,-1.995176172649485e-26,3.2583699627330986e-10,0.0,0.0,0.0009999870089814067,-4.371079880810261e-11,0.0,-3.2583699627330986e-10,-4.371079880810261e-11,-0.0009999870089814067,0.0,0.0,0.0,0.0,1.0]},{"name":"eSeries_UR5e_068-mesh","mesh":2,"matrix":[-0.0009999870089814067,-1.995176172649485e-26,3.2583699627330986e-10,0.0,0.0,0.0009999870089814067,-4.371079880810261e-11,0.0,-3.2583699627330986e-10,-4.371079880810261e-11,-0.0009999870089814067,0.0,0.0,0.0,0.0,1.0]}],"buffers":[{"uri":"gltf_buffer_0.bin","byteLength":115044},{"uri":"gltf_buffer_1.bin","byteLength":312492},{"uri":"gltf_buffer_2.bin","byteLength":312492},{"uri":"gltf_buffer_3.bin","byteLength":27216},{"uri":"gltf_buffer_4.bin","byteLength":74592},{"uri":"gltf_buffer_5.bin","byteLength":74592},{"uri":"gltf_buffer_6.bin","byteLength":137220},{"uri":"gltf_buffer_7.bin","byteLength":390600},{"uri":"gltf_buffer_8.bin","byteLength":390600}],"bufferViews":[{"buffer":0,"byteOffset":0,"byteLength":115044},{"buffer":1,"byteOffset":0,"byteLength":312492},{"buffer":2,"byteOffset":0,"byteLength":312492},{"buffer":3,"byteOffset":0,"byteLength":27216},{"buffer":4,"byteOffset":0,"byteLength":74592},{"buffer":5,"byteOffset":0,"byteLength":74592},{"buffer":6,"byteOffset":0,"byteLength":137220},{"buffer":7,"byteOffset":0,"byteLength":390600},{"buffer":8,"byteOffset":0,"byteLength":390600}]}