{"scene":0,"scenes":[{"nodes":[0],"extras":{"file_path":"/home/mspatz/code/Universal_Robots_ROS2_Description/meshes/ur3/visual/wrist2.dae","file_name":"wrist2.dae"}}],"asset":{"version":"2.0","generator":"https://github.com/mikedh/trimesh"},"accessors":[{"componentType":5125,"type":"SCALAR","bufferView":0,"count":13902,"max":[6016],"min":[0]},{"componentType":5126,"type":"VEC3","byteOffset":0,"bufferView":1,"count":6017,"max":[0.03216933831572533,-0.02076864056289196,0.11546280235052109],"min":[-0.03219157084822655,-0.04809165000915527,0.05121742933988571]},{"componentType":5126,"count":6017,"type":"VEC3","byteOffset":0,"bufferView":2,"max":[0.9996267557144165,0.9999963045120239,1.0],"min":[-0.9999402165412903,-0.9999991655349731,-0.9996345043182373]},{"componentType":5125,"type":"SCALAR","bufferView":3,"count":330,"max":[111],"min":[0]},{"componentType":5126,"type":"VEC3","byteOffset":0,"bufferView":4,"count":112,"max":[0.03132890909910202,0.02967113070189953,0.048151008784770966],"min":[-0.03149038180708885,-0.03357195109128952,0.04234914854168892]},{"componentType":5126,"count":112,"type":"VEC3","byteOffset":0,"bufferView":5,"max":[0.9883073568344116,0.9995819926261902,1.0],"min":[-0.9964971542358398,-0.9989750385284424,-1.0]},{"componentType":5125,"type":"SCALAR","bufferView":6,"count":7476,"max":[2725],"min":[0]},{"componentType":5126,"type":"VEC3","byteOffset":0,"bufferView":7,"count":2726,"max":[0.03150181844830513,0.04065107926726341,0.1146600991487503],"min":[-0.031511060893535614,-0.038410481065511703,0.038643889129161835]},{"componentType":5126,"count":2726,"type":"VEC3","byteOffset":0,"bufferView":8,"max":[0.9999403953552246,1.0,1.0],"min":[-0.9996013641357422,-0.9999653100967407,-1.0]}],"meshes":[{"name":"Part__Feature031-mesh","extras":{"units":"meters","processed":true},"primitives":[{"attributes":{"POSITION":1,"NORMAL":2},"indices":0,"mode":4,"material":0}]},{"name":"Part__Feature030-mesh","extras":{"units":"meters","processed":true},"primitives":[{"attributes":{"POSITION":4,"NORMAL":5},"indices":3,"mode":4,"material":1}]},{"name":"Part__Feature029-mesh","extras":{"units":"meters","processed":true},"primitives":[{"attributes":{"POSITION":7,"NORMAL":8},"indices":6,"mode":4,"material":1}]}],"materials":[{"pbrMetallicRoughness":{"baseColorFactor":[0.25098039215686274,0.34901960784313724,0.40784313725490196,1.0],"roughnessFactor":0.816496580927726,"metallicFactor":0.0},"emissiveFactor":[0.0,0.0,0.0],"doubleSided":false},{"pbrMetallicRoughness":{"baseColorFactor":[0.1411764705882353,0.1411764705882353,0.1411764705882353,1.0],"roughnessFactor":0.816496580927726,"metallicFactor":0.0},"emissiveFactor":[0.0,0.0,0.0],"doubleSided":false}],"nodes":[{"name":"world","children":[1,2,3]},{"name":"Part__Feature031-mesh","mesh":0,"matrix":[1.0,0.0,0.0,0.0,0.0,6.123233995736766e-17,-1.0,0.0,0.0,1.0,6.123233995736766e-17,0.0,0.0,0.0,0.0,1.0]},{"name":"Part__Feature030-mesh","mesh":1,"matrix":[1.0,0.0,0.0,0.0,0.0,6.123233995736766e-17,-1.0,0.0,0.0,1.0,6.123233995736766e-17,0.0,0.0,0.0,0.0,1.0]},{"name":"Part__Feature029-mesh","mesh":2,"matrix":[1.0,0.0,0.0,0.0,0.0,6.123233995736766e-17,-1.0,0.0,0.0,1.0,6.123233995736766e-17,0.0,0.0,0.0,0.0,1.0]}],"buffers":[{"uri":"gltf_buffer_0.bin","byteLength":55608},{"uri":"gltf_buffer_1.bin","byteLength":72204},{"uri":"gltf_buffer_2.bin","byteLength":72204},{"uri":"gltf_buffer_3.bin","byteLength":1320},{"uri":"gltf_buffer_4.bin","byteLength":1344},{"uri":"gltf_buffer_5.bin","byteLength":1344},{"uri":"gltf_buffer_6.bin","byteLength":29904},{"uri":"gltf_buffer_7.bin","byteLength":32712},{"uri":"gltf_buffer_8.bin","byteLength":32712}],"bufferViews":[{"buffer":0,"byteOffset":0,"byteLength":55608},{"buffer":1,"byteOffset":0,"byteLength":72204},{"buffer":2,"byteOffset":0,"byteLength":72204},{"buffer":3,"byteOffset":0,"byteLength":1320},{"buffer":4,"byteOffset":0,"byteLength":1344},{"buffer":5,"byteOffset":0,"byteLength":1344},{"buffer":6,"byteOffset":0,"byteLength":29904},{"buffer":7,"byteOffset":0,"byteLength":32712},{"buffer":8,"byteOffset":0,"byteLength":32712}]}