{"scene":0,"scenes":[{"nodes":[0],"extras":{"file_path":"/home/mspatz/code/Universal_Robots_ROS2_Description/meshes/ur10/visual/shoulder.dae","file_name":"shoulder.dae"}}],"asset":{"version":"2.0","generator":"https://github.com/mikedh/trimesh"},"accessors":[{"componentType":5125,"type":"SCALAR","bufferView":0,"count":18033,"max":[4335],"min":[0]},{"componentType":5126,"type":"VEC3","byteOffset":0,"bufferView":1,"count":4336,"max":[0.07501000165939331,0.08599995821714401,0.08237498253583908],"min":[-0.07501000165939331,-0.07501000165939331,-0.08899997919797897]},{"componentType":5126,"count":4336,"type":"VEC3","byteOffset":0,"bufferView":2,"max":[1.0,1.0,1.0],"min":[-1.0,-1.0,-1.0]},{"componentType":5125,"type":"SCALAR","bufferView":3,"count":23808,"max":[22066],"min":[0]},{"componentType":5126,"type":"VEC3","byteOffset":0,"bufferView":4,"count":22067,"max":[0.07517290115356445,0.07519984245300293,0.08820097893476486],"min":[-0.07515078037977219,-0.07519972324371338,0.028142860159277916]},{"componentType":5126,"count":22067,"type":"VEC3","byteOffset":0,"bufferView":5,"max":[0.9999915957450867,0.9998489618301392,1.0],"min":[-0.9998495578765869,-0.9998809695243835,-1.0]},{"componentType":5125,"type":"SCALAR","bufferView":6,"count":2397,"max":[1926],"min":[0]},{"componentType":5126,"type":"VEC3","byteOffset":0,"bufferView":7,"count":1927,"max":[0.06873636692762375,0.08516097068786621,0.08663201332092285],"min":[-0.06870371103286743,-0.05856930837035179,0.07069998234510422]},{"componentType":5126,"count":1927,"type":"VEC3","byteOffset":0,"bufferView":8,"max":[0.9992117881774902,0.9997999668121338,1.0],"min":[-0.9976521134376526,-0.9997999668121338,-1.0]}],"meshes":[{"name":"shape0-mesh","extras":{"units":"meters","processed":true},"primitives":[{"attributes":{"POSITION":1,"NORMAL":2},"indices":0,"mode":4,"material":0}]},{"name":"shape1_001-mesh","extras":{"units":"meters","processed":true},"primitives":[{"attributes":{"POSITION":4,"NORMAL":5},"indices":3,"mode":4,"material":1}]},{"name":"shape2_001-mesh","extras":{"units":"meters","processed":true},"primitives":[{"attributes":{"POSITION":7,"NORMAL":8},"indices":6,"mode":4,"material":2}]}],"materials":[{"pbrMetallicRoughness":{"baseColorFactor":[0.2235294117647059,0.2235294117647059,0.2235294117647059,1.0],"roughnessFactor":1.0,"metallicFactor":0.0},"emissiveFactor":[0.0,0.0,0.0],"doubleSided":false},{"pbrMetallicRoughness":{"baseColorFactor":[0.39215686274509803,0.5411764705882353,0.6392156862745098,1.0],"roughnessFactor":1.0,"metallicFactor":0.0},"emissiveFactor":[0.0,0.0,0.0],"doubleSided":false},{"pbrMetallicRoughness":{"baseColorFactor":[0.4627450980392157,0.4627450980392157,0.4627450980392157,1.0],"roughnessFactor":1.0,"metallicFactor":0.0},"emissiveFactor":[0.0,0.0,0.0],"doubleSided":false}],"nodes":[{"name":"world","children":[1,2,3]},{"name":"shape0-mesh","mesh":0,"matrix":[1.0,0.0,0.0,0.0,0.0,6.123233995736766e-17,-1.0,0.0,0.0,1.0,6.123233995736766e-17,0.0,0.0,0.0,0.0,1.0]},{"name":"shape1_001-mesh","mesh":1,"matrix":[1.0,0.0,0.0,0.0,0.0,6.123233995736766e-17,-1.0,0.0,0.0,1.0,6.123233995736766e-17,0.0,0.0,0.0,0.0,1.0]},{"name":"shape2_001-mesh","mesh":2,"matrix":[1.0,0.0,0.0,0.0,0.0,6.123233995736766e-17,-1.0,0.0,0.0,1.0,6.123233995736766e-17,0.0,0.0,0.0,0.0,1.0]}],"buffers":[{"uri":"gltf_buffer_0.bin","byteLength":72132},{"uri":"gltf_buffer_1.bin","byteLength":52032},{"uri":"gltf_buffer_2.bin","byteLength":52032},{"uri":"gltf_buffer_3.bin","byteLength":95232},{"uri":"gltf_buffer_4.bin","byteLength":264804},{"uri":"gltf_buffer_5.bin","byteLength":264804},{"uri":"gltf_buffer_6.bin","byteLength":9588},{"uri":"gltf_buffer_7.bin","byteLength":23124},{"uri":"gltf_buffer_8.bin","byteLength":23124}],"bufferViews":[{"buffer":0,"byteOffset":0,"byteLength":72132},{"buffer":1,"byteOffset":0,"byteLength":52032},{"buffer":2,"byteOffset":0,"byteLength":52032},{"buffer":3,"byteOffset":0,"byteLength":95232},{"buffer":4,"byteOffset":0,"byteLength":264804},{"buffer":5,"byteOffset":0,"byteLength":264804},{"buffer":6,"byteOffset":0,"byteLength":9588},{"buffer":7,"byteOffset":0,"byteLength":23124},{"buffer":8,"byteOffset":0,"byteLength":23124}]}