{"scene":0,"scenes":[{"nodes":[0],"extras":{"file_path":"/home/mspatz/code/Universal_Robots_ROS2_Description/meshes/ur10/visual/wrist2.dae","file_name":"wrist2.dae"}}],"asset":{"version":"2.0","generator":"https://github.com/mikedh/trimesh"},"accessors":[{"componentType":5125,"type":"SCALAR","bufferView":0,"count":20997,"max":[3501],"min":[0]},{"componentType":5126,"type":"VEC3","byteOffset":0,"bufferView":1,"count":3502,"max":[0.04500066861510277,0.061590731143951416,0.16099999845027924],"min":[-0.04500066861510277,-0.04871422052383423,0.061999909579753876]},{"componentType":5126,"count":3502,"type":"VEC3","byteOffset":0,"bufferView":2,"max":[0.9999999403953552,0.999973714351654,0.9988513588905334],"min":[-1.0,-0.9995260238647461,-1.0]},{"componentType":5125,"type":"SCALAR","bufferView":3,"count":89307,"max":[14883],"min":[0]},{"componentType":5126,"type":"VEC3","byteOffset":0,"bufferView":4,"count":14884,"max":[0.04563099145889282,-0.010417220182716846,0.16189999878406525],"min":[-0.04535609111189842,-0.05717812851071358,0.07090990990400314]},{"componentType":5126,"count":14884,"type":"VEC3","byteOffset":0,"bufferView":5,"max":[0.9995877146720886,0.9999613761901855,0.9998539686203003],"min":[-0.9994291663169861,-0.9999397397041321,-0.999998927116394]},{"componentType":5125,"type":"SCALAR","bufferView":6,"count":1800,"max":[1423],"min":[0]},{"componentType":5126,"type":"VEC3","byteOffset":0,"bufferView":7,"count":1424,"max":[0.035873349756002426,-0.035210251808166504,0.1571698933839798],"min":[-0.03559594973921776,-0.0537102185189724,0.062269918620586395]},{"componentType":5126,"count":1424,"type":"VEC3","byteOffset":0,"bufferView":8,"max":[0.9984838366508484,1.0,0.9997190237045288],"min":[-0.999901294708252,-1.0,-1.0]}],"meshes":[{"name":"shape0_002-mesh","extras":{"units":"meters","processed":true},"primitives":[{"attributes":{"POSITION":1,"NORMAL":2},"indices":0,"mode":4,"material":0}]},{"name":"shape1_002-mesh","extras":{"units":"meters","processed":true},"primitives":[{"attributes":{"POSITION":4,"NORMAL":5},"indices":3,"mode":4,"material":1}]},{"name":"shape2_002-mesh","extras":{"units":"meters","processed":true},"primitives":[{"attributes":{"POSITION":7,"NORMAL":8},"indices":6,"mode":4,"material":2}]}],"materials":[{"pbrMetallicRoughness":{"baseColorFactor":[0.2235294117647059,0.2235294117647059,0.2235294117647059,1.0],"roughnessFactor":1.0,"metallicFactor":0.0},"emissiveFactor":[0.0,0.0,0.0],"doubleSided":false},{"pbrMetallicRoughness":{"baseColorFactor":[0.39215686274509803,0.5411764705882353,0.6392156862745098,1.0],"roughnessFactor":1.0,"metallicFactor":0.0},"emissiveFactor":[0.0,0.0,0.0],"doubleSided":false},{"pbrMetallicRoughness":{"baseColorFactor":[0.4627450980392157,0.4627450980392157,0.4627450980392157,1.0],"roughnessFactor":1.0,"metallicFactor":0.0},"emissiveFactor":[0.0,0.0,0.0],"doubleSided":false}],"nodes":[{"name":"world","children":[1,2,3]},{"name":"shape0_002-mesh","mesh":0,"matrix":[1.0,0.0,0.0,0.0,0.0,6.123233995736766e-17,-1.0,0.0,0.0,1.0,6.123233995736766e-17,0.0,0.0,0.0,0.0,1.0]},{"name":"shape1_002-mesh","mesh":1,"matrix":[1.0,0.0,0.0,0.0,0.0,6.123233995736766e-17,-1.0,0.0,0.0,1.0,6.123233995736766e-17,0.0,0.0,0.0,0.0,1.0]},{"name":"shape2_002-mesh","mesh":2,"matrix":[1.0,0.0,0.0,0.0,0.0,6.123233995736766e-17,-1.0,0.0,0.0,1.0,6.123233995736766e-17,0.0,0.0,0.0,0.0,1.0]}],"buffers":[{"uri":"gltf_buffer_0.bin","byteLength":83988},{"uri":"gltf_buffer_1.bin","byteLength":42024},{"uri":"gltf_buffer_2.bin","byteLength":42024},{"uri":"gltf_buffer_3.bin","byteLength":357228},{"uri":"gltf_buffer_4.bin","byteLength":178608},{"uri":"gltf_buffer_5.bin","byteLength":178608},{"uri":"gltf_buffer_6.bin","byteLength":7200},{"uri":"gltf_buffer_7.bin","byteLength":17088},{"uri":"gltf_buffer_8.bin","byteLength":17088}],"bufferViews":[{"buffer":0,"byteOffset":0,"byteLength":83988},{"buffer":1,"byteOffset":0,"byteLength":42024},{"buffer":2,"byteOffset":0,"byteLength":42024},{"buffer":3,"byteOffset":0,"byteLength":357228},{"buffer":4,"byteOffset":0,"byteLength":178608},{"buffer":5,"byteOffset":0,"byteLength":178608},{"buffer":6,"byteOffset":0,"byteLength":7200},{"buffer":7,"byteOffset":0,"byteLength":17088},{"buffer":8,"byteOffset":0,"byteLength":17088}]}