{"scene":0,"scenes":[{"nodes":[0],"extras":{"file_path":"/home/mspatz/code/Universal_Robots_ROS2_Description/meshes/ur30/visual/upperarm.dae","file_name":"upperarm.dae"}}],"asset":{"version":"2.0","generator":"https://github.com/mikedh/trimesh"},"accessors":[{"componentType":5125,"type":"SCALAR","bufferView":0,"count":756,"max":[279],"min":[0]},{"componentType":5126,"type":"VEC3","byteOffset":0,"bufferView":1,"count":280,"max":[0.09034007042646408,0.21801359951496124,0.5478283762931824],"min":[-0.08997678011655807,-0.0001502189988968894,-0.08987683057785034]},{"componentType":5126,"type":"VEC2","byteOffset":0,"bufferView":3,"count":280,"max":[0.9925493001937866,0.9989272356033325],"min":[0.14917820692062378,0.015780627727508545]},{"componentType":5126,"count":280,"type":"VEC3","byteOffset":0,"bufferView":4,"max":[0.9999966621398926,0.9999985694885254,1.0],"min":[-0.9999986290931702,-0.9999966621398926,-1.0]},{"componentType":5125,"type":"SCALAR","bufferView":5,"count":1626,"max":[355],"min":[0]},{"componentType":5126,"type":"VEC3","byteOffset":0,"bufferView":6,"count":356,"max":[0.09023743122816086,0.3529112935066223,0.764723002910614],"min":[-0.08976846188306808,0.1728886067867279,0.3468778133392334]},{"componentType":5126,"type":"VEC2","byteOffset":0,"bufferView":7,"count":356,"max":[0.8048911094665527,0.9989271759986877],"min":[0.001072764047421515,0.5185167789459229]},{"componentType":5126,"count":356,"type":"VEC3","byteOffset":0,"bufferView":8,"max":[0.9999947547912598,0.9999986290931702,1.0],"min":[-0.999992311000824,-0.9999966025352478,-0.0005496729863807559]},{"componentType":5125,"type":"SCALAR","bufferView":9,"count":2814,"max":[637],"min":[0]},{"componentType":5126,"type":"VEC3","byteOffset":0,"bufferView":10,"count":638,"max":[0.06429415196180344,0.2221089005470276,0.71473228931427],"min":[-0.06406170129776001,0.09327702969312668,-0.0931617021560669]},{"componentType":5126,"type":"VEC2","byteOffset":0,"bufferView":11,"count":638,"max":[0.932340681552887,0.9989272356033325],"min":[0.08713597059249878,0.048117876052856445]},{"componentType":5126,"count":638,"type":"VEC3","byteOffset":0,"bufferView":12,"max":[0.9654771685600281,0.9989945292472839,0.9999449849128723],"min":[-0.9687349796295166,-0.466817170381546,-0.9999622106552124]},{"componentType":5125,"type":"SCALAR","bufferView":13,"count":6696,"max":[1651],"min":[0]},{"componentType":5126,"type":"VEC3","byteOffset":0,"bufferView":14,"count":1652,"max":[0.09034007042646408,0.21801359951496124,0.7125480771064758],"min":[-0.08997683972120285,-0.0008882730035111308,-0.08994346112012863]},{"componentType":5126,"type":"VEC2","byteOffset":0,"bufferView":15,"count":1652,"max":[0.9986544251441956,0.9989272356033325],"min":[0.001072764047421515,0.0014709234237670898]},{"componentType":5126,"count":1652,"type":"VEC3","byteOffset":0,"bufferView":16,"max":[0.9999966621398926,1.0,1.0],"min":[-0.9999986290931702,-1.0,-1.0]}],"meshes":[{"name":"Cylinder_001-mesh","extras":{"units":"meters","processed":true},"primitives":[{"attributes":{"POSITION":1,"TEXCOORD_0":2,"NORMAL":3},"indices":0,"mode":4,"material":0}]},{"name":"Cylinder_031-mesh","extras":{"units":"meters","processed":true},"primitives":[{"attributes":{"POSITION":5,"TEXCOORD_0":6,"NORMAL":7},"indices":4,"mode":4,"material":0}]},{"name":"Cylinder_012-mesh","extras":{"units":"meters","processed":true},"primitives":[{"attributes":{"POSITION":9,"TEXCOORD_0":10,"NORMAL":11},"indices":8,"mode":4,"material":0}]},{"name":"Cylinder_011-mesh","extras":{"units":"meters","processed":true},"primitives":[{"attributes":{"POSITION":13,"TEXCOORD_0":14,"NORMAL":15},"indices":12,"mode":4,"material":0}]}],"images":[{"bufferView":2,"mimeType":"image/png"}],"textures":[{"source":0}],"materials":[{"pbrMetallicRoughness":{"baseColorTexture":{"index":0},"baseColorFactor":[1.0,1.0,1.0,1.0],"roughnessFactor":1.0,"metallicFactor":0.0},"emissiveFactor":[0.0,0.0,0.0],"doubleSided":false}],"nodes":[{"name":"world","children":[1,2,3,4]},{"name":"Cylinder_001-mesh","mesh":0,"matrix":[0.9999999999997293,-5.960464712632212e-07,4.311421086223576e-07,0.0,4.3114066149135e-07,-2.4279002422523624e-06,-0.9999999999969594,0.0,5.960475180290422e-07,0.999999999996875,-2.42789998521276e-06,0.0,6.439956822024682e-10,-5.368960046329432e-05,0.1301368157311189,1.0]},{"name":"Cylinder_031-mesh","mesh":1,"matrix":[0.9999999999987981,1.549718747817434e-06,-4.569564405752454e-08,0.0,-4.569557629110806e-08,-4.3711520477663234e-08,-0.999999999999998,0.0,-1.5497187498117226e-06,0.9999999999987984,-4.371144972404422e-08,0.0,0.0001271662558551488,-0.21694870293696317,0.2650107896279376,1.0]},{"name":"Cylinder_012-mesh","mesh":2,"matrix":[0.9999999999997293,-5.960464712632212e-07,4.311421086223576e-07,0.0,4.3114066149135e-07,-2.4279002422523624e-06,-0.9999999999969594,0.0,5.960475180290422e-07,0.999999999996875,-2.42789998521276e-06,0.0,6.439956822024682e-10,-5.368960046329432e-05,0.1301368157311189,1.0]},{"name":"Cylinder_011-mesh","mesh":3,"matrix":[0.9999999999997293,-5.960464712632212e-07,4.311421086223576e-07,0.0,4.3114066149135e-07,-2.4279002422523624e-06,-0.9999999999969594,0.0,5.960475180290422e-07,0.999999999996875,-2.42789998521276e-06,0.0,6.439956822024682e-10,-5.368960046329432e-05,0.1301368157311189,1.0]}],"buffers":[{"uri":"gltf_buffer_0.bin","byteLength":3024},{"uri":"gltf_buffer_1.bin","byteLength":3360},{"uri":"gltf_buffer_2.bin","byteLength":1275560},{"uri":"gltf_buffer_3.bin","byteLength":2240},{"uri":"gltf_buffer_4.bin","byteLength":3360},{"uri":"gltf_buffer_5.bin","byteLength":6504},{"uri":"gltf_buffer_6.bin","byteLength":4272},{"uri":"gltf_buffer_7.bin","byteLength":2848},{"uri":"gltf_buffer_8.bin","byteLength":4272},{"uri":"gltf_buffer_9.bin","byteLength":11256},{"uri":"gltf_buffer_10.bin","byteLength":7656},{"uri":"gltf_buffer_11.bin","byteLength":5104},{"uri":"gltf_buffer_12.bin","byteLength":7656},{"uri":"gltf_buffer_13.bin","byteLength":26784},{"uri":"gltf_buffer_14.bin","byteLength":19824},{"uri":"gltf_buffer_15.bin","byteLength":13216},{"uri":"gltf_buffer_16.bin","byteLength":19824}],"bufferViews":[{"buffer":0,"byteOffset":0,"byteLength":3024},{"buffer":1,"byteOffset":0,"byteLength":3360},{"buffer":2,"byteOffset":0,"byteLength":1275560},{"buffer":3,"byteOffset":0,"byteLength":2240},{"buffer":4,"byteOffset":0,"byteLength":3360},{"buffer":5,"byteOffset":0,"byteLength":6504},{"buffer":6,"byteOffset":0,"byteLength":4272},{"buffer":7,"byteOffset":0,"byteLength":2848},{"buffer":8,"byteOffset":0,"byteLength":4272},{"buffer":9,"byteOffset":0,"byteLength":11256},{"buffer":10,"byteOffset":0,"byteLength":7656},{"buffer":11,"byteOffset":0,"byteLength":5104},{"buffer":12,"byteOffset":0,"byteLength":7656},{"buffer":13,"byteOffset":0,"byteLength":26784},{"buffer":14,"byteOffset":0,"byteLength":19824},{"buffer":15,"byteOffset":0,"byteLength":13216},{"buffer":16,"byteOffset":0,"byteLength":19824}]}