{"scene":0,"scenes":[{"nodes":[0],"extras":{"file_path":"/home/mspatz/code/Universal_Robots_ROS2_Description/meshes/ur3e/visual/wrist1.dae","file_name":"wrist1.dae"}}],"asset":{"version":"2.0","generator":"https://github.com/mikedh/trimesh"},"accessors":[{"componentType":5125,"type":"SCALAR","bufferView":0,"count":16641,"max":[14856],"min":[0]},{"componentType":5126,"type":"VEC3","byteOffset":0,"bufferView":1,"count":14857,"max":[31.508220672607422,42.692138671875,-50.34967041015625],"min":[-31.50020980834961,-37.148048400878906,-135.55270385742188]},{"componentType":5126,"count":14857,"type":"VEC3","byteOffset":0,"bufferView":2,"max":[1.0,1.0,1.0],"min":[-1.0,-0.9999990463256836,-0.999817430973053]},{"componentType":5125,"type":"SCALAR","bufferView":3,"count":33504,"max":[31460],"min":[0]},{"componentType":5126,"type":"VEC3","byteOffset":0,"bufferView":4,"count":31461,"max":[32.22166061401367,-19.67683982849121,-72.12055206298828],"min":[-32.223121643066406,-46.98406982421875,-136.35470581054688]},{"componentType":5126,"count":31461,"type":"VEC3","byteOffset":0,"bufferView":5,"max":[0.999988317489624,0.9998464584350586,0.9998486638069153],"min":[-0.9998506903648376,-1.0,-0.9999580383300781]},{"componentType":5125,"type":"SCALAR","bufferView":6,"count":4782,"max":[4254],"min":[0]},{"componentType":5126,"type":"VEC3","byteOffset":0,"bufferView":7,"count":4255,"max":[31.48484992980957,49.942081451416016,-72.5496826171875],"min":[-31.48526954650879,42.692138671875,-135.54969787597656]},{"componentType":5126,"count":4255,"type":"VEC3","byteOffset":0,"bufferView":8,"max":[0.9999459385871887,1.0,0.9999995827674866],"min":[-0.9999639987945557,-1.0,-0.9999623894691467]}],"meshes":[{"name":"eSeries_UR3e_034-mesh","extras":{"units":"meters","processed":true},"primitives":[{"attributes":{"POSITION":1,"NORMAL":2},"indices":0,"mode":4,"material":0}]},{"name":"eSeries_UR3e_050-mesh","extras":{"units":"meters","processed":true},"primitives":[{"attributes":{"POSITION":4,"NORMAL":5},"indices":3,"mode":4,"material":1}]},{"name":"eSeries_UR3e_052-mesh","extras":{"units":"meters","processed":true},"primitives":[{"attributes":{"POSITION":7,"NORMAL":8},"indices":6,"mode":4,"material":2}]}],"materials":[{"pbrMetallicRoughness":{"baseColorFactor":[0.2784313725490196,0.2784313725490196,0.2784313725490196,1.0],"roughnessFactor":1.0,"metallicFactor":0.0},"emissiveFactor":[0.0,0.0,0.0],"doubleSided":false},{"pbrMetallicRoughness":{"baseColorFactor":[0.49019607843137253,0.6784313725490196,0.8,1.0],"roughnessFactor":1.0,"metallicFactor":0.0},"emissiveFactor":[0.0,0.0,0.0],"doubleSided":false},{"pbrMetallicRoughness":{"baseColorFactor":[0.03137254901960784,0.03137254901960784,0.03137254901960784,1.0],"roughnessFactor":1.0,"metallicFactor":0.0},"emissiveFactor":[0.0,0.0,0.0],"doubleSided":false}],"nodes":[{"name":"world","children":[1,2,3]},{"name":"eSeries_UR3e_034-mesh","mesh":0,"matrix":[0.0009999870089814067,3.258369962733099e-10,-5.642529776750393e-10,0.0,-3.2583699627330986e-10,0.0009999870089814067,-4.371060104962635e-11,0.0,5.642529776750393e-10,4.371079880810261e-11,0.0009999870089814067,0.0,0.0,0.0,0.0,1.0]},{"name":"eSeries_UR3e_050-mesh","mesh":1,"matrix":[0.0009999870089814067,3.258369962733099e-10,-5.642529776750393e-10,0.0,-3.2583699627330986e-10,0.0009999870089814067,-4.371060104962635e-11,0.0,5.642529776750393e-10,4.371079880810261e-11,0.0009999870089814067,0.0,0.0,0.0,0.0,1.0]},{"name":"eSeries_UR3e_052-mesh","mesh":2,"matrix":[0.0009999870089814067,3.258369962733099e-10,-5.642529776750393e-10,0.0,-3.2583699627330986e-10,0.0009999870089814067,-4.371060104962635e-11,0.0,5.642529776750393e-10,4.371079880810261e-11,0.0009999870089814067,0.0,0.0,0.0,0.0,1.0]}],"buffers":[{"uri":"gltf_buffer_0.bin","byteLength":66564},{"uri":"gltf_buffer_1.bin","byteLength":178284},{"uri":"gltf_buffer_2.bin","byteLength":178284},{"uri":"gltf_buffer_3.bin","byteLength":134016},{"uri":"gltf_buffer_4.bin","byteLength":377532},{"uri":"gltf_buffer_5.bin","byteLength":377532},{"uri":"gltf_buffer_6.bin","byteLength":19128},{"uri":"gltf_buffer_7.bin","byteLength":51060},{"uri":"gltf_buffer_8.bin","byteLength":51060}],"bufferViews":[{"buffer":0,"byteOffset":0,"byteLength":66564},{"buffer":1,"byteOffset":0,"byteLength":178284},{"buffer":2,"byteOffset":0,"byteLength":178284},{"buffer":3,"byteOffset":0,"byteLength":134016},{"buffer":4,"byteOffset":0,"byteLength":377532},{"buffer":5,"byteOffset":0,"byteLength":377532},{"buffer":6,"byteOffset":0,"byteLength":19128},{"buffer":7,"byteOffset":0,"byteLength":51060},{"buffer":8,"byteOffset":0,"byteLength":51060}]}