{"scene":0,"scenes":[{"nodes":[0],"extras":{"file_path":"/home/mspatz/code/Universal_Robots_ROS2_Description/meshes/ur10/visual/wrist3.dae","file_name":"wrist3.dae"}}],"asset":{"version":"2.0","generator":"https://github.com/mikedh/trimesh"},"accessors":[{"componentType":5125,"type":"SCALAR","bufferView":0,"count":3600,"max":[1501],"min":[0]},{"componentType":5126,"type":"VEC3","byteOffset":0,"bufferView":1,"count":1502,"max":[0.04496634006500244,0.09209077805280685,0.04600000008940697],"min":[-0.04496634006500244,0.061590731143951416,-0.04407000169157982]},{"componentType":5126,"count":1502,"type":"VEC3","byteOffset":0,"bufferView":2,"max":[0.9998612403869629,1.0,1.0],"min":[-0.9999421834945679,-1.0,-1.0]}],"meshes":[{"name":"shape0_003-mesh","extras":{"units":"meters","processed":true},"primitives":[{"attributes":{"POSITION":1,"NORMAL":2},"indices":0,"mode":4,"material":0}]}],"materials":[{"pbrMetallicRoughness":{"baseColorFactor":[0.4627450980392157,0.4627450980392157,0.4627450980392157,1.0],"roughnessFactor":1.0,"metallicFactor":0.0},"emissiveFactor":[0.0,0.0,0.0],"doubleSided":false}],"nodes":[{"name":"world","children":[1]},{"name":"shape0_003-mesh","mesh":0,"matrix":[1.0,0.0,0.0,0.0,0.0,6.123233995736766e-17,-1.0,0.0,0.0,1.0,6.123233995736766e-17,0.0,0.0,0.0,0.0,1.0]}],"buffers":[{"uri":"gltf_buffer_0.bin","byteLength":14400},{"uri":"gltf_buffer_1.bin","byteLength":18024},{"uri":"gltf_buffer_2.bin","byteLength":18024}],"bufferViews":[{"buffer":0,"byteOffset":0,"byteLength":14400},{"buffer":1,"byteOffset":0,"byteLength":18024},{"buffer":2,"byteOffset":0,"byteLength":18024}]}