{"scene":0,"scenes":[{"nodes":[0],"extras":{"file_path":"/home/mspatz/code/Universal_Robots_ROS2_Description/meshes/ur20/visual/wrist1.dae","file_name":"wrist1.dae"}}],"asset":{"version":"2.0","generator":"https://github.com/mikedh/trimesh"},"accessors":[{"componentType":5125,"type":"SCALAR","bufferView":0,"count":1407,"max":[317],"min":[0]},{"componentType":5126,"type":"VEC3","byteOffset":0,"bufferView":1,"count":318,"max":[0.03559345006942749,0.12916450202465057,0.01847285032272339],"min":[-0.03572164848446846,0.04627031087875366,-0.05242890119552612]},{"componentType":5126,"type":"VEC2","byteOffset":0,"bufferView":3,"count":318,"max":[0.9365484118461609,0.8001185655593872],"min":[0.16536079347133636,0.028052091598510742]},{"componentType":5126,"count":318,"type":"VEC3","byteOffset":0,"bufferView":4,"max":[0.9642252922058105,0.9999934434890747,0.4785062074661255],"min":[-0.9689204692840576,-0.5039546489715576,-0.9992315173149109]},{"componentType":5125,"type":"SCALAR","bufferView":5,"count":3930,"max":[1070],"min":[0]},{"componentType":5126,"type":"VEC3","byteOffset":0,"bufferView":6,"count":1071,"max":[0.050070520490407944,0.1274051070213318,0.084651879966259],"min":[-0.05006510019302368,0.0009510290110483766,-0.049979500472545624]},{"componentType":5126,"type":"VEC2","byteOffset":0,"bufferView":7,"count":1071,"max":[0.9979017972946167,0.9230957627296448],"min":[0.001072764047421515,1.6808509826660156e-05]},{"componentType":5126,"count":1071,"type":"VEC3","byteOffset":0,"bufferView":8,"max":[0.9999949932098389,1.0,1.0],"min":[-0.9999979734420776,-1.0,-1.0]},{"componentType":5125,"type":"SCALAR","bufferView":9,"count":960,"max":[359],"min":[0]},{"componentType":5126,"type":"VEC3","byteOffset":0,"bufferView":10,"count":360,"max":[0.050078511238098145,0.12739969789981842,0.08317548036575317],"min":[-0.05006510019302368,-1.3932600495536462e-06,-0.04998784884810448]},{"componentType":5126,"type":"VEC2","byteOffset":0,"bufferView":11,"count":360,"max":[0.9931597709655762,0.925335705280304],"min":[0.5676347017288208,0.0030853748321533203]},{"componentType":5126,"count":360,"type":"VEC3","byteOffset":0,"bufferView":12,"max":[0.9999948740005493,0.9999967217445374,0.9999967217445374],"min":[-0.9999924898147583,-0.9999986290931702,-0.9999986290931702]}],"meshes":[{"name":"Cylinder_039-mesh","extras":{"units":"meters","processed":true},"primitives":[{"attributes":{"POSITION":1,"TEXCOORD_0":2,"NORMAL":3},"indices":0,"mode":4,"material":0}]},{"name":"Cylinder_040-mesh","extras":{"units":"meters","processed":true},"primitives":[{"attributes":{"POSITION":5,"TEXCOORD_0":6,"NORMAL":7},"indices":4,"mode":4,"material":0}]},{"name":"Cylinder_041-mesh","extras":{"units":"meters","processed":true},"primitives":[{"attributes":{"POSITION":9,"TEXCOORD_0":10,"NORMAL":11},"indices":8,"mode":4,"material":0}]}],"images":[{"bufferView":2,"mimeType":"image/png"}],"textures":[{"source":0}],"materials":[{"pbrMetallicRoughness":{"baseColorTexture":{"index":0},"baseColorFactor":[1.0,1.0,1.0,1.0],"roughnessFactor":1.0,"metallicFactor":0.0},"emissiveFactor":[0.0,0.0,0.0],"doubleSided":false}],"nodes":[{"name":"world","children":[1,2,3]},{"name":"Cylinder_039-mesh","mesh":0,"matrix":[0.9999999999989075,3.316130442558105e-07,1.4404401881613122e-06,0.0,1.4404401881613914e-06,8.534300988231034e-17,-0.9999999999989627,0.0,-3.3161304425546653e-07,0.9999999999999449,-4.775813653419435e-13,0.0,0.0,0.0,0.0,1.0]},{"name":"Cylinder_040-mesh","mesh":1,"matrix":[0.9999999999999454,3.3161302449013133e-07,2.0305441449870608e-23,0.0,-7.363287642761318e-23,2.8327694488238675e-16,-0.9999999999999999,0.0,-3.316130244901313e-07,0.9999999999999448,6.123233995736428e-17,0.0,0.0,0.0,0.0,1.0]},{"name":"Cylinder_041-mesh","mesh":2,"matrix":[0.9999999999988958,3.316130442558106e-07,1.4486201847279335e-06,0.0,1.4486201847280131e-06,7.743965791740584e-17,-0.9999999999989505,0.0,-3.316130442554628e-07,0.9999999999999449,-4.802950780615225e-13,0.0,0.0,0.0,0.0,1.0]}],"buffers":[{"uri":"gltf_buffer_0.bin","byteLength":5628},{"uri":"gltf_buffer_1.bin","byteLength":3816},{"uri":"gltf_buffer_2.bin","byteLength":1276308},{"uri":"gltf_buffer_3.bin","byteLength":2544},{"uri":"gltf_buffer_4.bin","byteLength":3816},{"uri":"gltf_buffer_5.bin","byteLength":15720},{"uri":"gltf_buffer_6.bin","byteLength":12852},{"uri":"gltf_buffer_7.bin","byteLength":8568},{"uri":"gltf_buffer_8.bin","byteLength":12852},{"uri":"gltf_buffer_9.bin","byteLength":3840},{"uri":"gltf_buffer_10.bin","byteLength":4320},{"uri":"gltf_buffer_11.bin","byteLength":2880},{"uri":"gltf_buffer_12.bin","byteLength":4320}],"bufferViews":[{"buffer":0,"byteOffset":0,"byteLength":5628},{"buffer":1,"byteOffset":0,"byteLength":3816},{"buffer":2,"byteOffset":0,"byteLength":1276308},{"buffer":3,"byteOffset":0,"byteLength":2544},{"buffer":4,"byteOffset":0,"byteLength":3816},{"buffer":5,"byteOffset":0,"byteLength":15720},{"buffer":6,"byteOffset":0,"byteLength":12852},{"buffer":7,"byteOffset":0,"byteLength":8568},{"buffer":8,"byteOffset":0,"byteLength":12852},{"buffer":9,"byteOffset":0,"byteLength":3840},{"buffer":10,"byteOffset":0,"byteLength":4320},{"buffer":11,"byteOffset":0,"byteLength":2880},{"buffer":12,"byteOffset":0,"byteLength":4320}]}