{"scene":0,"scenes":[{"nodes":[0],"extras":{"file_path":"/home/mspatz/code/Universal_Robots_ROS2_Description/meshes/ur20/visual/base.dae","file_name":"base.dae"}}],"asset":{"version":"2.0","generator":"https://github.com/mikedh/trimesh"},"accessors":[{"componentType":5125,"type":"SCALAR","bufferView":0,"count":432,"max":[119],"min":[0]},{"componentType":5126,"type":"VEC3","byteOffset":0,"bufferView":1,"count":120,"max":[0.09051983803510666,0.09051477164030075,0.06597775220870972],"min":[-0.09049563854932785,-0.09039895981550217,0.05627774819731712]},{"componentType":5126,"type":"VEC2","byteOffset":0,"bufferView":3,"count":120,"max":[0.9883865118026733,0.5764806866645813],"min":[0.463584303855896,0.03374141454696655]},{"componentType":5126,"count":120,"type":"VEC3","byteOffset":0,"bufferView":4,"max":[0.9956613183021545,0.9956872463226318,0.06711088120937347],"min":[-0.9959841966629028,-0.996281087398529,0.03885017707943916]},{"componentType":5125,"type":"SCALAR","bufferView":5,"count":324,"max":[79],"min":[0]},{"componentType":5126,"type":"VEC3","byteOffset":0,"bufferView":6,"count":80,"max":[0.090004563331604,0.0899994894862175,0.08797775954008102],"min":[-0.08998048305511475,-0.08988434076309204,0.06597775220870972]},{"componentType":5126,"type":"VEC2","byteOffset":0,"bufferView":7,"count":80,"max":[0.9735658764839172,0.3899403214454651],"min":[0.0669892430305481,0.032207489013671875]},{"componentType":5126,"count":80,"type":"VEC3","byteOffset":0,"bufferView":8,"max":[0.9964150786399841,0.9964410066604614,0.9452203512191772],"min":[-0.9967391490936279,-0.997033417224884,0.0]},{"componentType":5125,"type":"SCALAR","bufferView":9,"count":5610,"max":[2080],"min":[0]},{"componentType":5126,"type":"VEC3","byteOffset":0,"bufferView":10,"count":2081,"max":[0.12251029908657074,0.12251029908657074,0.05627774819731712],"min":[-0.12256620079278946,-0.12251029908657074,-0.019478200003504753]},{"componentType":5126,"type":"VEC2","byteOffset":0,"bufferView":11,"count":2081,"max":[0.9815999269485474,0.9143528938293457],"min":[0.001072764047421515,0.019331693649291992]},{"componentType":5126,"count":2081,"type":"VEC3","byteOffset":0,"bufferView":12,"max":[0.9999995231628418,0.999999463558197,1.0],"min":[-0.9999902844429016,-0.999998152256012,-1.0]}],"meshes":[{"name":"Cylinder_013-mesh","extras":{"units":"meters","processed":true},"primitives":[{"attributes":{"POSITION":1,"TEXCOORD_0":2,"NORMAL":3},"indices":0,"mode":4,"material":0}]},{"name":"Cylinder_014-mesh","extras":{"units":"meters","processed":true},"primitives":[{"attributes":{"POSITION":5,"TEXCOORD_0":6,"NORMAL":7},"indices":4,"mode":4,"material":0}]},{"name":"Cylinder_015-mesh","extras":{"units":"meters","processed":true},"primitives":[{"attributes":{"POSITION":9,"TEXCOORD_0":10,"NORMAL":11},"indices":8,"mode":4,"material":0}]}],"images":[{"bufferView":2,"mimeType":"image/png"}],"textures":[{"source":0}],"materials":[{"pbrMetallicRoughness":{"baseColorTexture":{"index":0},"baseColorFactor":[1.0,1.0,1.0,1.0],"roughnessFactor":1.0,"metallicFactor":0.0},"emissiveFactor":[0.0,0.0,0.0],"doubleSided":false}],"nodes":[{"name":"world","children":[1,2,3]},{"name":"Cylinder_013-mesh","mesh":0,"matrix":[-0.9999999999995242,7.470421084672296e-07,-6.278330654097949e-07,0.0,-6.278330909809471e-07,-3.42288198793699e-08,0.999999999999802,0.0,7.470420870027653e-07,0.9999999999997202,3.422928871244797e-08,0.0,2.9701499038026213e-09,0.019670389592647552,-5.959070125033511e-09,1.0]},{"name":"Cylinder_014-mesh","mesh":1,"matrix":[-0.9999999999995242,7.470421084672296e-07,-6.278330654097949e-07,0.0,-6.278330909809471e-07,-3.42288198793699e-08,0.999999999999802,0.0,7.470420870027653e-07,0.9999999999997202,3.422928871244797e-08,0.0,2.9701499038026213e-09,0.019670389592647552,-5.959070125033511e-09,1.0]},{"name":"Cylinder_015-mesh","mesh":2,"matrix":[-0.9999999999995242,7.470421084672296e-07,-6.278330654097949e-07,0.0,-6.278330909809471e-07,-3.42288198793699e-08,0.999999999999802,0.0,7.470420870027653e-07,0.9999999999997202,3.422928871244797e-08,0.0,2.9701499038026213e-09,0.019670389592647552,-5.959070125033511e-09,1.0]}],"buffers":[{"uri":"gltf_buffer_0.bin","byteLength":1728},{"uri":"gltf_buffer_1.bin","byteLength":1440},{"uri":"gltf_buffer_2.bin","byteLength":1276308},{"uri":"gltf_buffer_3.bin","byteLength":960},{"uri":"gltf_buffer_4.bin","byteLength":1440},{"uri":"gltf_buffer_5.bin","byteLength":1296},{"uri":"gltf_buffer_6.bin","byteLength":960},{"uri":"gltf_buffer_7.bin","byteLength":640},{"uri":"gltf_buffer_8.bin","byteLength":960},{"uri":"gltf_buffer_9.bin","byteLength":22440},{"uri":"gltf_buffer_10.bin","byteLength":24972},{"uri":"gltf_buffer_11.bin","byteLength":16648},{"uri":"gltf_buffer_12.bin","byteLength":24972}],"bufferViews":[{"buffer":0,"byteOffset":0,"byteLength":1728},{"buffer":1,"byteOffset":0,"byteLength":1440},{"buffer":2,"byteOffset":0,"byteLength":1276308},{"buffer":3,"byteOffset":0,"byteLength":960},{"buffer":4,"byteOffset":0,"byteLength":1440},{"buffer":5,"byteOffset":0,"byteLength":1296},{"buffer":6,"byteOffset":0,"byteLength":960},{"buffer":7,"byteOffset":0,"byteLength":640},{"buffer":8,"byteOffset":0,"byteLength":960},{"buffer":9,"byteOffset":0,"byteLength":22440},{"buffer":10,"byteOffset":0,"byteLength":24972},{"buffer":11,"byteOffset":0,"byteLength":16648},{"buffer":12,"byteOffset":0,"byteLength":24972}]}