{"scene":0,"scenes":[{"nodes":[0],"extras":{"file_path":"/home/mspatz/code/Universal_Robots_ROS2_Description/meshes/ur20/visual/shoulder.dae","file_name":"shoulder.dae"}}],"asset":{"version":"2.0","generator":"https://github.com/mikedh/trimesh"},"accessors":[{"componentType":5125,"type":"SCALAR","bufferView":0,"count":408,"max":[151],"min":[0]},{"componentType":5126,"type":"VEC3","byteOffset":0,"bufferView":1,"count":152,"max":[0.08999282121658325,0.1340000033378601,0.30687180161476135],"min":[-0.08999084681272507,-0.08989197015762329,0.08897273987531662]},{"componentType":5126,"type":"VEC2","byteOffset":0,"bufferView":3,"count":152,"max":[0.9929847717285156,0.9989272356033325],"min":[0.08004634827375412,0.034326374530792236]},{"componentType":5126,"count":152,"type":"VEC3","byteOffset":0,"bufferView":4,"max":[0.9999937415122986,0.9963474869728088,0.9999999403953552],"min":[-0.9999921321868896,-0.9968855381011963,-0.9999974370002747]},{"componentType":5125,"type":"SCALAR","bufferView":5,"count":2928,"max":[666],"min":[0]},{"componentType":5126,"type":"VEC3","byteOffset":0,"bufferView":6,"count":667,"max":[0.09049224108457565,0.1340000033378601,0.31376761198043823],"min":[-0.0904737114906311,-0.08999364823102951,0.08977687358856201]},{"componentType":5126,"type":"VEC2","byteOffset":0,"bufferView":7,"count":667,"max":[0.9561923742294312,0.9989272356033325],"min":[0.08713597059249878,0.10889697074890137]},{"componentType":5126,"count":667,"type":"VEC3","byteOffset":0,"bufferView":8,"max":[0.9999953508377075,1.0,0.9993956685066223],"min":[-0.9999986886978149,-0.9999918341636658,-0.9997522234916687]}],"meshes":[{"name":"Cylinder_011-mesh","extras":{"units":"meters","processed":true},"primitives":[{"attributes":{"POSITION":1,"TEXCOORD_0":2,"NORMAL":3},"indices":0,"mode":4,"material":0}]},{"name":"Cylinder_012-mesh","extras":{"units":"meters","processed":true},"primitives":[{"attributes":{"POSITION":5,"TEXCOORD_0":6,"NORMAL":7},"indices":4,"mode":4,"material":0}]}],"images":[{"bufferView":2,"mimeType":"image/png"}],"textures":[{"source":0}],"materials":[{"pbrMetallicRoughness":{"baseColorTexture":{"index":0},"baseColorFactor":[1.0,1.0,1.0,1.0],"roughnessFactor":1.0,"metallicFactor":0.0},"emissiveFactor":[0.0,0.0,0.0],"doubleSided":false}],"nodes":[{"name":"world","children":[1,2]},{"name":"Cylinder_011-mesh","mesh":0,"matrix":[0.999999999999775,6.715440608925756e-07,2.4638485465876057e-21,0.0,4.597210194310894e-14,-6.845730931552058e-08,-0.9999999999999982,0.0,-6.715440608925745e-07,0.9999999999997727,-6.845730820531011e-08,0.0,-6.604779834162855e-09,-0.21690000593662262,3.758109810056169e-09,1.0]},{"name":"Cylinder_012-mesh","mesh":1,"matrix":[0.999999999999775,6.715440608925756e-07,2.4638485465876057e-21,0.0,4.597210194310894e-14,-6.845730931552058e-08,-0.9999999999999982,0.0,-6.715440608925745e-07,0.9999999999997727,-6.845730820531011e-08,0.0,-6.604779834162855e-09,-0.21690000593662262,3.758109810056169e-09,1.0]}],"buffers":[{"uri":"gltf_buffer_0.bin","byteLength":1632},{"uri":"gltf_buffer_1.bin","byteLength":1824},{"uri":"gltf_buffer_2.bin","byteLength":1276308},{"uri":"gltf_buffer_3.bin","byteLength":1216},{"uri":"gltf_buffer_4.bin","byteLength":1824},{"uri":"gltf_buffer_5.bin","byteLength":11712},{"uri":"gltf_buffer_6.bin","byteLength":8004},{"uri":"gltf_buffer_7.bin","byteLength":5336},{"uri":"gltf_buffer_8.bin","byteLength":8004}],"bufferViews":[{"buffer":0,"byteOffset":0,"byteLength":1632},{"buffer":1,"byteOffset":0,"byteLength":1824},{"buffer":2,"byteOffset":0,"byteLength":1276308},{"buffer":3,"byteOffset":0,"byteLength":1216},{"buffer":4,"byteOffset":0,"byteLength":1824},{"buffer":5,"byteOffset":0,"byteLength":11712},{"buffer":6,"byteOffset":0,"byteLength":8004},{"buffer":7,"byteOffset":0,"byteLength":5336},{"buffer":8,"byteOffset":0,"byteLength":8004}]}