{"scene":0,"scenes":[{"nodes":[0],"extras":{"file_path":"/home/mspatz/code/Universal_Robots_ROS2_Description/meshes/ur3/visual/base.dae","file_name":"base.dae"}}],"asset":{"version":"2.0","generator":"https://github.com/mikedh/trimesh"},"accessors":[{"componentType":5125,"type":"SCALAR","bufferView":0,"count":22749,"max":[6010],"min":[0]},{"componentType":5126,"type":"VEC3","byteOffset":0,"bufferView":1,"count":6011,"max":[0.06401193141937256,0.0639999508857727,0.0860518217086792],"min":[-0.06401193141937256,-0.09949176758527756,-0.0007128349971026182]},{"componentType":5126,"count":6011,"type":"VEC3","byteOffset":0,"bufferView":2,"max":[0.999996542930603,1.0,1.0],"min":[-0.9999962449073792,-1.0,-1.0]},{"componentType":5125,"type":"SCALAR","bufferView":3,"count":1227,"max":[669],"min":[0]},{"componentType":5126,"type":"VEC3","byteOffset":0,"bufferView":4,"count":670,"max":[0.04438132047653198,0.04433351010084152,0.06269115209579468],"min":[-0.04439079016447067,-0.04439067095518112,0.0]},{"componentType":5126,"count":670,"type":"VEC3","byteOffset":0,"bufferView":5,"max":[0.9914364218711853,0.9914646148681641,1.0],"min":[-0.9914364218711853,-0.9914364218711853,-1.0]}],"meshes":[{"name":"Base-mesh","extras":{"units":"meters","processed":true},"primitives":[{"attributes":{"POSITION":1,"NORMAL":2},"indices":0,"mode":4,"material":0}]},{"name":"Base-mesh_1","extras":{"units":"meters","processed":true},"primitives":[{"attributes":{"POSITION":4,"NORMAL":5},"indices":3,"mode":4,"material":1}]}],"materials":[{"pbrMetallicRoughness":{"baseColorFactor":[0.27058823529411763,0.27058823529411763,0.27058823529411763,1.0],"roughnessFactor":0.19611613513818404,"metallicFactor":0.0},"emissiveFactor":[0.0,0.0,0.0],"doubleSided":false},{"pbrMetallicRoughness":{"baseColorFactor":[0.0,0.0,0.0,1.0],"roughnessFactor":0.19611613513818404,"metallicFactor":0.0},"emissiveFactor":[0.0,0.0,0.0],"doubleSided":false}],"nodes":[{"name":"world","children":[1,2]},{"name":"Base-mesh","mesh":0,"matrix":[1.0,0.0,0.0,0.0,0.0,6.123233995736766e-17,-1.0,0.0,0.0,1.0,6.123233995736766e-17,0.0,0.0,0.0,0.0,1.0]},{"name":"Base-mesh_1","mesh":1,"matrix":[1.0,0.0,0.0,0.0,0.0,6.123233995736766e-17,-1.0,0.0,0.0,1.0,6.123233995736766e-17,0.0,0.0,0.0,0.0,1.0]}],"buffers":[{"uri":"gltf_buffer_0.bin","byteLength":90996},{"uri":"gltf_buffer_1.bin","byteLength":72132},{"uri":"gltf_buffer_2.bin","byteLength":72132},{"uri":"gltf_buffer_3.bin","byteLength":4908},{"uri":"gltf_buffer_4.bin","byteLength":8040},{"uri":"gltf_buffer_5.bin","byteLength":8040}],"bufferViews":[{"buffer":0,"byteOffset":0,"byteLength":90996},{"buffer":1,"byteOffset":0,"byteLength":72132},{"buffer":2,"byteOffset":0,"byteLength":72132},{"buffer":3,"byteOffset":0,"byteLength":4908},{"buffer":4,"byteOffset":0,"byteLength":8040},{"buffer":5,"byteOffset":0,"byteLength":8040}]}