{"scene":0,"scenes":[{"nodes":[0],"extras":{"file_path":"/home/mspatz/code/Universal_Robots_ROS2_Description/meshes/ur3e/visual/shoulder.dae","file_name":"shoulder.dae"}}],"asset":{"version":"2.0","generator":"https://github.com/mikedh/trimesh"},"accessors":[{"componentType":5125,"type":"SCALAR","bufferView":0,"count":3249,"max":[2874],"min":[0]},{"componentType":5126,"type":"VEC3","byteOffset":0,"bufferView":1,"count":2875,"max":[45.018890380859375,47.58557891845703,44.9999885559082],"min":[-45.00539016723633,-57.05194854736328,-52.90010070800781]},{"componentType":5126,"count":2875,"type":"VEC3","byteOffset":0,"bufferView":2,"max":[0.9999649524688721,0.9995027780532837,0.9999999403953552],"min":[-0.9999358654022217,-1.0,-1.0]},{"componentType":5125,"type":"SCALAR","bufferView":3,"count":2556,"max":[2329],"min":[0]},{"componentType":5126,"type":"VEC3","byteOffset":0,"bufferView":4,"count":2330,"max":[45.01464080810547,44.94049835205078,-52.90000915527344],"min":[-45.00004959106445,-45.20854949951172,-62.95066833496094]},{"componentType":5126,"count":2330,"type":"VEC3","byteOffset":0,"bufferView":5,"max":[0.9990112781524658,0.9995768070220947,1.0],"min":[-0.9999980330467224,-0.9998449087142944,-1.0]},{"componentType":5125,"type":"SCALAR","bufferView":6,"count":72930,"max":[68236],"min":[0]},{"componentType":5126,"type":"VEC3","byteOffset":0,"bufferView":7,"count":68237,"max":[46.98326873779297,58.048458099365234,46.9976806640625],"min":[-46.98469161987305,10.947819709777832,-47.010650634765625]},{"componentType":5126,"count":68237,"type":"VEC3","byteOffset":0,"bufferView":8,"max":[0.9999996423721313,1.0,0.9999988079071045],"min":[-0.9999992847442627,-0.9999551177024841,-0.9999893307685852]}],"meshes":[{"name":"eSeries_UR3e_029-mesh","extras":{"units":"meters","processed":true},"primitives":[{"attributes":{"POSITION":1,"NORMAL":2},"indices":0,"mode":4,"material":0}]},{"name":"eSeries_UR3e_036-mesh","extras":{"units":"meters","processed":true},"primitives":[{"attributes":{"POSITION":4,"NORMAL":5},"indices":3,"mode":4,"material":1}]},{"name":"eSeries_UR3e_037-mesh","extras":{"units":"meters","processed":true},"primitives":[{"attributes":{"POSITION":7,"NORMAL":8},"indices":6,"mode":4,"material":2}]}],"materials":[{"pbrMetallicRoughness":{"baseColorFactor":[0.2784313725490196,0.2784313725490196,0.2784313725490196,1.0],"roughnessFactor":1.0,"metallicFactor":0.0},"emissiveFactor":[0.0,0.0,0.0],"doubleSided":false},{"pbrMetallicRoughness":{"baseColorFactor":[0.03137254901960784,0.03137254901960784,0.03137254901960784,1.0],"roughnessFactor":1.0,"metallicFactor":0.0},"emissiveFactor":[0.0,0.0,0.0],"doubleSided":false},{"pbrMetallicRoughness":{"baseColorFactor":[0.49019607843137253,0.6784313725490196,0.8,1.0],"roughnessFactor":1.0,"metallicFactor":0.0},"emissiveFactor":[0.0,0.0,0.0],"doubleSided":false}],"nodes":[{"name":"world","children":[1,2,3]},{"name":"eSeries_UR3e_029-mesh","mesh":0,"matrix":[0.0009999870089814067,3.258369962733099e-10,-5.642529776750393e-10,0.0,-3.2583699627330986e-10,0.0009999870089814067,-4.371060104962635e-11,0.0,5.642529776750393e-10,4.371079880810261e-11,0.0009999870089814067,0.0,0.0,0.0,0.0,1.0]},{"name":"eSeries_UR3e_036-mesh","mesh":1,"matrix":[0.0009999870089814067,3.258369962733099e-10,-5.642529776750393e-10,0.0,-3.2583699627330986e-10,0.0009999870089814067,-4.371060104962635e-11,0.0,5.642529776750393e-10,4.371079880810261e-11,0.0009999870089814067,0.0,0.0,0.0,0.0,1.0]},{"name":"eSeries_UR3e_037-mesh","mesh":2,"matrix":[0.0009999870089814067,3.258369962733099e-10,-5.642529776750393e-10,0.0,-3.2583699627330986e-10,0.0009999870089814067,-4.371060104962635e-11,0.0,5.642529776750393e-10,4.371079880810261e-11,0.0009999870089814067,0.0,0.0,0.0,0.0,1.0]}],"buffers":[{"uri":"gltf_buffer_0.bin","byteLength":12996},{"uri":"gltf_buffer_1.bin","byteLength":34500},{"uri":"gltf_buffer_2.bin","byteLength":34500},{"uri":"gltf_buffer_3.bin","byteLength":10224},{"uri":"gltf_buffer_4.bin","byteLength":27960},{"uri":"gltf_buffer_5.bin","byteLength":27960},{"uri":"gltf_buffer_6.bin","byteLength":291720},{"uri":"gltf_buffer_7.bin","byteLength":818844},{"uri":"gltf_buffer_8.bin","byteLength":818844}],"bufferViews":[{"buffer":0,"byteOffset":0,"byteLength":12996},{"buffer":1,"byteOffset":0,"byteLength":34500},{"buffer":2,"byteOffset":0,"byteLength":34500},{"buffer":3,"byteOffset":0,"byteLength":10224},{"buffer":4,"byteOffset":0,"byteLength":27960},{"buffer":5,"byteOffset":0,"byteLength":27960},{"buffer":6,"byteOffset":0,"byteLength":291720},{"buffer":7,"byteOffset":0,"byteLength":818844},{"buffer":8,"byteOffset":0,"byteLength":818844}]}