{"scene":0,"scenes":[{"nodes":[0],"extras":{"file_path":"/home/mspatz/code/Universal_Robots_ROS2_Description/meshes/ur30/visual/forearm.dae","file_name":"forearm.dae"}}],"asset":{"version":"2.0","generator":"https://github.com/mikedh/trimesh"},"accessors":[{"componentType":5125,"type":"SCALAR","bufferView":0,"count":2202,"max":[797],"min":[0]},{"componentType":5126,"type":"VEC3","byteOffset":0,"bufferView":1,"count":798,"max":[0.07521820068359375,3.1292398716686876e-07,0.44228559732437134],"min":[-0.07502657175064087,-0.1797093003988266,-0.07511018961668015]},{"componentType":5126,"type":"VEC2","byteOffset":0,"bufferView":3,"count":798,"max":[0.9946048855781555,0.788743793964386],"min":[0.004521011840552092,0.0009561777114868164]},{"componentType":5126,"count":798,"type":"VEC3","byteOffset":0,"bufferView":4,"max":[0.9999948740005493,1.0,0.9999966621398926],"min":[-0.9999949336051941,-1.0,-0.9999985694885254]},{"componentType":5125,"type":"SCALAR","bufferView":5,"count":5748,"max":[1517],"min":[0]},{"componentType":5126,"type":"VEC3","byteOffset":0,"bufferView":6,"count":1518,"max":[0.07517968863248825,-0.015499649569392204,0.5536285042762756],"min":[-0.07528948038816452,-0.17998570203781128,-0.07510697096586227]},{"componentType":5126,"type":"VEC2","byteOffset":0,"bufferView":7,"count":1518,"max":[0.998927116394043,0.9989272356033325],"min":[0.016755929216742516,0.0010573863983154297]},{"componentType":5126,"count":1518,"type":"VEC3","byteOffset":0,"bufferView":8,"max":[0.9999978542327881,1.0,1.0],"min":[-0.9999978542327881,-0.9999986290931702,-1.0]},{"componentType":5125,"type":"SCALAR","bufferView":9,"count":2814,"max":[635],"min":[0]},{"componentType":5126,"type":"VEC3","byteOffset":0,"bufferView":10,"count":636,"max":[0.05343412980437279,-0.07583826035261154,0.5553739070892334],"min":[-0.05373512953519821,-0.1834051012992859,-0.07779394835233688]},{"componentType":5126,"type":"VEC2","byteOffset":0,"bufferView":11,"count":636,"max":[0.9638540148735046,0.7364403009414673],"min":[0.2606661021709442,0.03923767805099487]},{"componentType":5126,"count":636,"type":"VEC3","byteOffset":0,"bufferView":12,"max":[0.9680948257446289,0.4616802930831909,0.999947726726532],"min":[-0.9687423706054688,-0.9989932179450989,-0.9999499917030334]},{"componentType":5125,"type":"SCALAR","bufferView":13,"count":2496,"max":[579],"min":[0]},{"componentType":5126,"type":"VEC3","byteOffset":0,"bufferView":14,"count":580,"max":[0.07499872893095016,0.11817190051078796,1.2825989723205566],"min":[-0.0750625729560852,-0.031781550496816635,0.9589694738388062]},{"componentType":5126,"type":"VEC2","byteOffset":0,"bufferView":15,"count":580,"max":[0.7221794128417969,0.9989271759986877],"min":[0.013701310381293297,0.0014986991882324219]},{"componentType":5126,"count":580,"type":"VEC3","byteOffset":0,"bufferView":16,"max":[0.999992311000824,0.9999966621398926,1.0],"min":[-0.9999948143959045,-0.9999986290931702,-1.0]}],"meshes":[{"name":"Cylinder_006-mesh","extras":{"units":"meters","processed":true},"primitives":[{"attributes":{"POSITION":1,"TEXCOORD_0":2,"NORMAL":3},"indices":0,"mode":4,"material":0}]},{"name":"Cylinder_002-mesh","extras":{"units":"meters","processed":true},"primitives":[{"attributes":{"POSITION":5,"TEXCOORD_0":6,"NORMAL":7},"indices":4,"mode":4,"material":0}]},{"name":"Cylinder_003-mesh","extras":{"units":"meters","processed":true},"primitives":[{"attributes":{"POSITION":9,"TEXCOORD_0":10,"NORMAL":11},"indices":8,"mode":4,"material":0}]},{"name":"Cylinder_036-mesh","extras":{"units":"meters","processed":true},"primitives":[{"attributes":{"POSITION":13,"TEXCOORD_0":14,"NORMAL":15},"indices":12,"mode":4,"material":0}]}],"images":[{"bufferView":2,"mimeType":"image/png"}],"textures":[{"source":0}],"materials":[{"pbrMetallicRoughness":{"baseColorTexture":{"index":0},"baseColorFactor":[1.0,1.0,1.0,1.0],"roughnessFactor":1.0,"metallicFactor":0.0},"emissiveFactor":[0.0,0.0,0.0],"doubleSided":false}],"nodes":[{"name":"world","children":[1,2,3,4]},{"name":"Cylinder_006-mesh","mesh":0,"matrix":[0.999999999999891,-2.3841851799094065e-07,4.0133967240918033e-07,0.0,4.013391504382804e-07,-2.189480211196844e-06,-0.9999999999975225,0.0,2.384193967196195e-07,0.9999999999975746,-2.189480115490255e-06,0.0,3.3876279042587404e-10,-5.960459859850214e-08,-0.10482359631731425,1.0]},{"name":"Cylinder_002-mesh","mesh":1,"matrix":[0.999999999999891,-2.3841851799094065e-07,4.0133967240918033e-07,0.0,4.013391504382804e-07,-2.189480211196844e-06,-0.9999999999975225,0.0,2.384193967196195e-07,0.9999999999975746,-2.189480115490255e-06,0.0,3.3876279042587404e-10,-5.960459859850214e-08,-0.10482359631731425,1.0]},{"name":"Cylinder_003-mesh","mesh":2,"matrix":[0.999999999999891,-2.3841851799094065e-07,4.0133967240918033e-07,0.0,4.013391504382804e-07,-2.189480211196844e-06,-0.9999999999975225,0.0,2.384193967196195e-07,0.9999999999975746,-2.189480115490255e-06,0.0,3.3876279042587404e-10,-5.960459859850214e-08,-0.10482359631731425,1.0]},{"name":"Cylinder_036-mesh","mesh":3,"matrix":[0.9999999999987981,1.549718747817434e-06,-4.569564405752454e-08,0.0,-4.569557629110806e-08,-4.3711520477663234e-08,-0.999999999999998,0.0,-1.5497187498117226e-06,0.9999999999987984,-4.371144972404422e-08,0.0,7.669754323807472e-05,-0.853860914710538,0.04307603655797784,1.0]}],"buffers":[{"uri":"gltf_buffer_0.bin","byteLength":8808},{"uri":"gltf_buffer_1.bin","byteLength":9576},{"uri":"gltf_buffer_2.bin","byteLength":1275560},{"uri":"gltf_buffer_3.bin","byteLength":6384},{"uri":"gltf_buffer_4.bin","byteLength":9576},{"uri":"gltf_buffer_5.bin","byteLength":22992},{"uri":"gltf_buffer_6.bin","byteLength":18216},{"uri":"gltf_buffer_7.bin","byteLength":12144},{"uri":"gltf_buffer_8.bin","byteLength":18216},{"uri":"gltf_buffer_9.bin","byteLength":11256},{"uri":"gltf_buffer_10.bin","byteLength":7632},{"uri":"gltf_buffer_11.bin","byteLength":5088},{"uri":"gltf_buffer_12.bin","byteLength":7632},{"uri":"gltf_buffer_13.bin","byteLength":9984},{"uri":"gltf_buffer_14.bin","byteLength":6960},{"uri":"gltf_buffer_15.bin","byteLength":4640},{"uri":"gltf_buffer_16.bin","byteLength":6960}],"bufferViews":[{"buffer":0,"byteOffset":0,"byteLength":8808},{"buffer":1,"byteOffset":0,"byteLength":9576},{"buffer":2,"byteOffset":0,"byteLength":1275560},{"buffer":3,"byteOffset":0,"byteLength":6384},{"buffer":4,"byteOffset":0,"byteLength":9576},{"buffer":5,"byteOffset":0,"byteLength":22992},{"buffer":6,"byteOffset":0,"byteLength":18216},{"buffer":7,"byteOffset":0,"byteLength":12144},{"buffer":8,"byteOffset":0,"byteLength":18216},{"buffer":9,"byteOffset":0,"byteLength":11256},{"buffer":10,"byteOffset":0,"byteLength":7632},{"buffer":11,"byteOffset":0,"byteLength":5088},{"buffer":12,"byteOffset":0,"byteLength":7632},{"buffer":13,"byteOffset":0,"byteLength":9984},{"buffer":14,"byteOffset":0,"byteLength":6960},{"buffer":15,"byteOffset":0,"byteLength":4640},{"buffer":16,"byteOffset":0,"byteLength":6960}]}