{"scene":0,"scenes":[{"nodes":[0],"extras":{"file_path":"/home/mspatz/code/Universal_Robots_ROS2_Description/meshes/ur5/visual/wrist3.dae","file_name":"wrist3.dae"}}],"asset":{"version":"2.0","generator":"https://github.com/mikedh/trimesh"},"accessors":[{"componentType":5125,"type":"SCALAR","bufferView":0,"count":3666,"max":[1244],"min":[0]},{"componentType":5126,"type":"VEC3","byteOffset":0,"bufferView":1,"count":1245,"max":[0.037499960511922836,0.081824891269207,0.037499960511922836],"min":[-0.037499960511922836,0.047324951738119125,-0.037499960511922836]},{"componentType":5126,"count":1245,"type":"VEC3","byteOffset":0,"bufferView":2,"max":[1.0,1.0,1.0],"min":[-1.0,-1.0,-1.0]},{"componentType":5125,"type":"SCALAR","bufferView":3,"count":1308,"max":[439],"min":[0]},{"componentType":5126,"type":"VEC3","byteOffset":0,"bufferView":4,"count":440,"max":[0.020302530378103256,0.081824891269207,0.042999979108572006],"min":[-0.020302530378103256,0.05885034054517746,-0.023249920457601547]},{"componentType":5126,"count":440,"type":"VEC3","byteOffset":0,"bufferView":5,"max":[1.0,0.992703378200531,1.0],"min":[-1.0,-0.9927111268043518,-1.0]}],"meshes":[{"name":"ActorShape0_0-Mesh_003-mesh","extras":{"units":"meters","processed":true},"primitives":[{"attributes":{"POSITION":1,"NORMAL":2},"indices":0,"mode":4,"material":0}]},{"name":"ActorShape0_0-Mesh_003-mesh_1","extras":{"units":"meters","processed":true},"primitives":[{"attributes":{"POSITION":4,"NORMAL":5},"indices":3,"mode":4,"material":1}]}],"materials":[{"pbrMetallicRoughness":{"baseColorFactor":[0.21568627450980393,0.21568627450980393,0.21568627450980393,1.0],"roughnessFactor":0.816496580927726,"metallicFactor":0.0},"emissiveFactor":[0.0,0.0,0.0],"doubleSided":false},{"pbrMetallicRoughness":{"baseColorFactor":[0.09803921568627451,0.10196078431372549,0.10980392156862745,1.0],"roughnessFactor":1.0,"metallicFactor":0.0},"emissiveFactor":[0.0,0.0,0.0],"doubleSided":false}],"nodes":[{"name":"world","children":[1,2]},{"name":"ActorShape0_0-Mesh_003-mesh","mesh":0,"matrix":[1.0,0.0,0.0,0.0,0.0,6.123233995736766e-17,-1.0,0.0,0.0,1.0,6.123233995736766e-17,0.0,0.0,0.0,0.0,1.0]},{"name":"ActorShape0_0-Mesh_003-mesh_1","mesh":1,"matrix":[1.0,0.0,0.0,0.0,0.0,6.123233995736766e-17,-1.0,0.0,0.0,1.0,6.123233995736766e-17,0.0,0.0,0.0,0.0,1.0]}],"buffers":[{"uri":"gltf_buffer_0.bin","byteLength":14664},{"uri":"gltf_buffer_1.bin","byteLength":14940},{"uri":"gltf_buffer_2.bin","byteLength":14940},{"uri":"gltf_buffer_3.bin","byteLength":5232},{"uri":"gltf_buffer_4.bin","byteLength":5280},{"uri":"gltf_buffer_5.bin","byteLength":5280}],"bufferViews":[{"buffer":0,"byteOffset":0,"byteLength":14664},{"buffer":1,"byteOffset":0,"byteLength":14940},{"buffer":2,"byteOffset":0,"byteLength":14940},{"buffer":3,"byteOffset":0,"byteLength":5232},{"buffer":4,"byteOffset":0,"byteLength":5280},{"buffer":5,"byteOffset":0,"byteLength":5280}]}