{"scene":0,"scenes":[{"nodes":[0],"extras":{"file_path":"/home/mspatz/code/Universal_Robots_ROS2_Description/meshes/ur16e/visual/upperarm.dae","file_name":"upperarm.dae"}}],"asset":{"version":"2.0","generator":"https://github.com/mikedh/trimesh"},"accessors":[{"componentType":5125,"type":"SCALAR","bufferView":0,"count":528,"max":[501],"min":[0]},{"componentType":5126,"type":"VEC3","byteOffset":0,"bufferView":1,"count":502,"max":[57.901859283447266,538.6989135742188,57.899559020996094],"min":[-57.89516067504883,530.3353271484375,-57.89744186401367]},{"componentType":5126,"count":502,"type":"VEC3","byteOffset":0,"bufferView":2,"max":[0.9968941807746887,0.06592082232236862,0.9968941807746887],"min":[-0.997104287147522,-0.9961820244789124,-0.9969589710235596]},{"componentType":5125,"type":"SCALAR","bufferView":3,"count":789,"max":[780],"min":[0]},{"componentType":5126,"type":"VEC3","byteOffset":0,"bufferView":4,"count":781,"max":[74.88336181640625,121.7396011352539,74.91905212402344],"min":[-74.88323974609375,93.19586181640625,-74.8864974975586]},{"componentType":5126,"count":781,"type":"VEC3","byteOffset":0,"bufferView":5,"max":[0.9991946220397949,0.9927647113800049,0.997661292552948],"min":[-0.9991773962974548,-0.9999982714653015,-0.9973946809768677]},{"componentType":5125,"type":"SCALAR","bufferView":6,"count":237,"max":[234],"min":[0]},{"componentType":5126,"type":"VEC3","byteOffset":0,"bufferView":7,"count":235,"max":[55.247459411621094,397.26800537109375,55.272220611572266],"min":[-55.37131881713867,118.75420379638672,-55.25352096557617]},{"componentType":5126,"count":235,"type":"VEC3","byteOffset":0,"bufferView":8,"max":[0.9988791942596436,0.002138434909284115,0.9995753765106201],"min":[-0.9973158240318298,-0.0021126267965883017,-0.9992480278015137]},{"componentType":5125,"type":"SCALAR","bufferView":9,"count":4128,"max":[3800],"min":[0]},{"componentType":5126,"type":"VEC3","byteOffset":0,"bufferView":10,"count":3801,"max":[58.00006103515625,670.2977294921875,-63.40222930908203],"min":[-57.99993896484375,554.1156005859375,-77.60379791259766]},{"componentType":5126,"count":3801,"type":"VEC3","byteOffset":0,"bufferView":11,"max":[0.9990101456642151,0.9996874332427979,1.0],"min":[-0.9999711513519287,-0.9990435242652893,-1.0]},{"componentType":5125,"type":"SCALAR","bufferView":12,"count":3876,"max":[3668],"min":[0]},{"componentType":5126,"type":"VEC3","byteOffset":0,"bufferView":13,"count":3669,"max":[74.88246154785156,93.19864654541016,74.99482727050781],"min":[-74.88233947753906,79.89669036865234,-74.99687194824219]},{"componentType":5126,"count":3669,"type":"VEC3","byteOffset":0,"bufferView":14,"max":[1.0,0.9999969005584717,0.9977416396141052],"min":[-1.0,-0.9999966621398926,-0.997684895992279]},{"componentType":5125,"type":"SCALAR","bufferView":15,"count":31473,"max":[29261],"min":[0]},{"componentType":5126,"type":"VEC3","byteOffset":0,"bufferView":16,"count":29262,"max":[75.00009155273438,79.89779663085938,83.38011932373047],"min":[-74.99993896484375,-75.30232238769531,-81.40223693847656]},{"componentType":5126,"count":29262,"type":"VEC3","byteOffset":0,"bufferView":17,"max":[1.0,1.0,0.9997959136962891],"min":[-1.0,-0.9999855160713196,-1.0]},{"componentType":5125,"type":"SCALAR","bufferView":18,"count":3576,"max":[3256],"min":[0]},{"componentType":5126,"type":"VEC3","byteOffset":0,"bufferView":19,"count":3257,"max":[57.994850158691406,552.0985107421875,57.99258041381836],"min":[-57.99473190307617,538.6973266601562,-57.99702835083008]},{"componentType":5126,"count":3257,"type":"VEC3","byteOffset":0,"bufferView":20,"max":[0.996929943561554,1.0,0.996929943561554],"min":[-0.9969300031661987,-1.0,-0.9969300627708435]},{"componentType":5125,"type":"SCALAR","bufferView":21,"count":14376,"max":[12887],"min":[0]},{"componentType":5126,"type":"VEC3","byteOffset":0,"bufferView":22,"count":12888,"max":[58.3049201965332,670.5136108398438,62.46210861206055],"min":[-58.286258697509766,552.0975952148438,-63.40222930908203]},{"componentType":5126,"count":12888,"type":"VEC3","byteOffset":0,"bufferView":23,"max":[1.0,0.9994475841522217,0.9964261054992676],"min":[-1.0,-1.0,-1.0]},{"componentType":5125,"type":"SCALAR","bufferView":24,"count":31752,"max":[30249],"min":[0]},{"componentType":5126,"type":"VEC3","byteOffset":0,"bufferView":25,"count":30250,"max":[60.08155059814453,672.4005737304688,72.02622985839844],"min":[-60.08436965942383,552.200927734375,8.765690803527832]},{"componentType":5126,"count":30250,"type":"VEC3","byteOffset":0,"bufferView":26,"max":[0.9999992251396179,0.9998226165771484,0.9999999403953552],"min":[-0.9999874830245972,-0.9996432662010193,-0.999358594417572]},{"componentType":5125,"type":"SCALAR","bufferView":27,"count":32691,"max":[30985],"min":[0]},{"componentType":5126,"type":"VEC3","byteOffset":0,"bufferView":28,"count":30986,"max":[76.37361907958984,76.08828735351562,93.19689178466797],"min":[-76.35871887207031,-76.67862701416016,27.577529907226562]},{"componentType":5126,"count":30986,"type":"VEC3","byteOffset":0,"bufferView":29,"max":[0.99998539686203,0.9998748898506165,1.0],"min":[-0.999978244304657,-0.9999651312828064,-0.999219536781311]}],"meshes":[{"name":"eSeries_UR10e_002-mesh","extras":{"units":"meters","processed":true},"primitives":[{"attributes":{"POSITION":1,"NORMAL":2},"indices":0,"mode":4,"material":0}]},{"name":"eSeries_UR10e_001-mesh","extras":{"units":"meters","processed":true},"primitives":[{"attributes":{"POSITION":4,"NORMAL":5},"indices":3,"mode":4,"material":0}]},{"name":"eSeries_UR10e_000-mesh","extras":{"units":"meters","processed":true},"primitives":[{"attributes":{"POSITION":7,"NORMAL":8},"indices":6,"mode":4,"material":0}]},{"name":"eSeries_UR10e_053-mesh","extras":{"units":"meters","processed":true},"primitives":[{"attributes":{"POSITION":10,"NORMAL":11},"indices":9,"mode":4,"material":1}]},{"name":"eSeries_UR10e_052-mesh","extras":{"units":"meters","processed":true},"primitives":[{"attributes":{"POSITION":13,"NORMAL":14},"indices":12,"mode":4,"material":1}]},{"name":"eSeries_UR10e_051-mesh","extras":{"units":"meters","processed":true},"primitives":[{"attributes":{"POSITION":16,"NORMAL":17},"indices":15,"mode":4,"material":2}]},{"name":"eSeries_UR10e_050-mesh","extras":{"units":"meters","processed":true},"primitives":[{"attributes":{"POSITION":19,"NORMAL":20},"indices":18,"mode":4,"material":1}]},{"name":"eSeries_UR10e_049-mesh","extras":{"units":"meters","processed":true},"primitives":[{"attributes":{"POSITION":22,"NORMAL":23},"indices":21,"mode":4,"material":2}]},{"name":"eSeries_UR10e_047-mesh","extras":{"units":"meters","processed":true},"primitives":[{"attributes":{"POSITION":25,"NORMAL":26},"indices":24,"mode":4,"material":3}]},{"name":"eSeries_UR10e_046-mesh","extras":{"units":"meters","processed":true},"primitives":[{"attributes":{"POSITION":28,"NORMAL":29},"indices":27,"mode":4,"material":3}]}],"materials":[{"pbrMetallicRoughness":{"baseColorFactor":[0.8196078431372549,0.8196078431372549,0.8196078431372549,1.0],"roughnessFactor":1.0,"metallicFactor":0.0},"emissiveFactor":[0.0,0.0,0.0],"doubleSided":false},{"pbrMetallicRoughness":{"baseColorFactor":[0.03137254901960784,0.03137254901960784,0.03137254901960784,1.0],"roughnessFactor":1.0,"metallicFactor":0.0},"emissiveFactor":[0.0,0.0,0.0],"doubleSided":false},{"pbrMetallicRoughness":{"baseColorFactor":[0.2784313725490196,0.2784313725490196,0.2784313725490196,1.0],"roughnessFactor":1.0,"metallicFactor":0.0},"emissiveFactor":[0.0,0.0,0.0],"doubleSided":false},{"pbrMetallicRoughness":{"baseColorFactor":[0.49019607843137253,0.6784313725490196,0.8,1.0],"roughnessFactor":1.0,"metallicFactor":0.0},"emissiveFactor":[0.0,0.0,0.0],"doubleSided":false}],"nodes":[{"name":"world","children":[1,2,3,4,5,6,7,8,9,10]},{"name":"eSeries_UR10e_002-mesh","mesh":0,"matrix":[-0.0009999870089814067,-2.384442457916666e-26,3.894090050415855e-10,0.0,0.0,0.0009999870089814067,-4.371079880810261e-11,0.0,-3.894090050415855e-10,-4.371079880810261e-11,-0.0009999870089814067,0.0,0.0,-0.13429999351501465,-8.223502859183649e-18,1.0]},{"name":"eSeries_UR10e_001-mesh","mesh":1,"matrix":[-0.0009999870089814067,-2.384442457916666e-26,3.894090050415855e-10,0.0,0.0,0.0009999870089814067,-4.371079880810261e-11,0.0,-3.894090050415855e-10,-4.371079880810261e-11,-0.0009999870089814067,0.0,0.0,0.0,0.0,1.0]},{"name":"eSeries_UR10e_000-mesh","mesh":2,"matrix":[-0.0009999870089814067,-2.384442457916666e-26,3.894090050415855e-10,0.0,0.0,0.0009999870089814067,-4.371079880810261e-11,0.0,-3.894090050415855e-10,-4.371079880810261e-11,-0.0009999870089814067,0.0,0.0,0.0,0.0,1.0]},{"name":"eSeries_UR10e_053-mesh","mesh":3,"matrix":[-0.0009999870089814067,-2.384442457916666e-26,3.894090050415855e-10,0.0,0.0,0.0009999870089814067,-4.371079880810261e-11,0.0,-3.894090050415855e-10,-4.371079880810261e-11,-0.0009999870089814067,0.0,0.0,-0.13429999351501465,-8.223502859183649e-18,1.0]},{"name":"eSeries_UR10e_052-mesh","mesh":4,"matrix":[-0.0009999870089814067,-2.384442457916666e-26,3.894090050415855e-10,0.0,0.0,0.0009999870089814067,-4.371079880810261e-11,0.0,-3.894090050415855e-10,-4.371079880810261e-11,-0.0009999870089814067,0.0,0.0,0.0,0.0,1.0]},{"name":"eSeries_UR10e_051-mesh","mesh":5,"matrix":[-0.0009999870089814067,-2.384442457916666e-26,3.894090050415855e-10,0.0,0.0,0.0009999870089814067,-4.371079880810261e-11,0.0,-3.894090050415855e-10,-4.371079880810261e-11,-0.0009999870089814067,0.0,0.0,0.0,0.0,1.0]},{"name":"eSeries_UR10e_050-mesh","mesh":6,"matrix":[-0.0009999870089814067,-2.384442457916666e-26,3.894090050415855e-10,0.0,0.0,0.0009999870089814067,-4.371079880810261e-11,0.0,-3.894090050415855e-10,-4.371079880810261e-11,-0.0009999870089814067,0.0,0.0,-0.13429999351501465,-8.223502859183649e-18,1.0]},{"name":"eSeries_UR10e_049-mesh","mesh":7,"matrix":[-0.0009999870089814067,-2.384442457916666e-26,3.894090050415855e-10,0.0,0.0,0.0009999870089814067,-4.371079880810261e-11,0.0,-3.894090050415855e-10,-4.371079880810261e-11,-0.0009999870089814067,0.0,0.0,-0.13429999351501465,-8.223502859183649e-18,1.0]},{"name":"eSeries_UR10e_047-mesh","mesh":8,"matrix":[-0.0009999870089814067,-2.384442457916666e-26,3.894090050415855e-10,0.0,0.0,0.0009999870089814067,-4.371079880810261e-11,0.0,-3.894090050415855e-10,-4.371079880810261e-11,-0.0009999870089814067,0.0,0.0,-0.13429999351501465,-8.223502859183649e-18,1.0]},{"name":"eSeries_UR10e_046-mesh","mesh":9,"matrix":[-0.0009999870089814067,-2.384442457916666e-26,3.894090050415855e-10,0.0,0.0,0.0009999870089814067,-4.371079880810261e-11,0.0,-3.894090050415855e-10,-4.371079880810261e-11,-0.0009999870089814067,0.0,0.0,0.0,0.0,1.0]}],"buffers":[{"uri":"gltf_buffer_0.bin","byteLength":2112},{"uri":"gltf_buffer_1.bin","byteLength":6024},{"uri":"gltf_buffer_2.bin","byteLength":6024},{"uri":"gltf_buffer_3.bin","byteLength":3156},{"uri":"gltf_buffer_4.bin","byteLength":9372},{"uri":"gltf_buffer_5.bin","byteLength":9372},{"uri":"gltf_buffer_6.bin","byteLength":948},{"uri":"gltf_buffer_7.bin","byteLength":2820},{"uri":"gltf_buffer_8.bin","byteLength":2820},{"uri":"gltf_buffer_9.bin","byteLength":16512},{"uri":"gltf_buffer_10.bin","byteLength":45612},{"uri":"gltf_buffer_11.bin","byteLength":45612},{"uri":"gltf_buffer_12.bin","byteLength":15504},{"uri":"gltf_buffer_13.bin","byteLength":44028},{"uri":"gltf_buffer_14.bin","byteLength":44028},{"uri":"gltf_buffer_15.bin","byteLength":125892},{"uri":"gltf_buffer_16.bin","byteLength":351144},{"uri":"gltf_buffer_17.bin","byteLength":351144},{"uri":"gltf_buffer_18.bin","byteLength":14304},{"uri":"gltf_buffer_19.bin","byteLength":39084},{"uri":"gltf_buffer_20.bin","byteLength":39084},{"uri":"gltf_buffer_21.bin","byteLength":57504},{"uri":"gltf_buffer_22.bin","byteLength":154656},{"uri":"gltf_buffer_23.bin","byteLength":154656},{"uri":"gltf_buffer_24.bin","byteLength":127008},{"uri":"gltf_buffer_25.bin","byteLength":363000},{"uri":"gltf_buffer_26.bin","byteLength":363000},{"uri":"gltf_buffer_27.bin","byteLength":130764},{"uri":"gltf_buffer_28.bin","byteLength":371832},{"uri":"gltf_buffer_29.bin","byteLength":371832}],"bufferViews":[{"buffer":0,"byteOffset":0,"byteLength":2112},{"buffer":1,"byteOffset":0,"byteLength":6024},{"buffer":2,"byteOffset":0,"byteLength":6024},{"buffer":3,"byteOffset":0,"byteLength":3156},{"buffer":4,"byteOffset":0,"byteLength":9372},{"buffer":5,"byteOffset":0,"byteLength":9372},{"buffer":6,"byteOffset":0,"byteLength":948},{"buffer":7,"byteOffset":0,"byteLength":2820},{"buffer":8,"byteOffset":0,"byteLength":2820},{"buffer":9,"byteOffset":0,"byteLength":16512},{"buffer":10,"byteOffset":0,"byteLength":45612},{"buffer":11,"byteOffset":0,"byteLength":45612},{"buffer":12,"byteOffset":0,"byteLength":15504},{"buffer":13,"byteOffset":0,"byteLength":44028},{"buffer":14,"byteOffset":0,"byteLength":44028},{"buffer":15,"byteOffset":0,"byteLength":125892},{"buffer":16,"byteOffset":0,"byteLength":351144},{"buffer":17,"byteOffset":0,"byteLength":351144},{"buffer":18,"byteOffset":0,"byteLength":14304},{"buffer":19,"byteOffset":0,"byteLength":39084},{"buffer":20,"byteOffset":0,"byteLength":39084},{"buffer":21,"byteOffset":0,"byteLength":57504},{"buffer":22,"byteOffset":0,"byteLength":154656},{"buffer":23,"byteOffset":0,"byteLength":154656},{"buffer":24,"byteOffset":0,"byteLength":127008},{"buffer":25,"byteOffset":0,"byteLength":363000},{"buffer":26,"byteOffset":0,"byteLength":363000},{"buffer":27,"byteOffset":0,"byteLength":130764},{"buffer":28,"byteOffset":0,"byteLength":371832},{"buffer":29,"byteOffset":0,"byteLength":371832}]}