{"scene":0,"scenes":[{"nodes":[0],"extras":{"file_path":"/home/mspatz/code/Universal_Robots_ROS2_Description/meshes/ur5e/visual/wrist2.dae","file_name":"wrist2.dae"}}],"asset":{"version":"2.0","generator":"https://github.com/mikedh/trimesh"},"accessors":[{"componentType":5125,"type":"SCALAR","bufferView":0,"count":25557,"max":[23101],"min":[0]},{"componentType":5126,"type":"VEC3","byteOffset":0,"bufferView":1,"count":23102,"max":[37.86132049560547,137.29119873046875,45.598331451416016],"min":[-37.87813186645508,53.58734130859375,-40.99794006347656]},{"componentType":5126,"count":23102,"type":"VEC3","byteOffset":0,"bufferView":2,"max":[0.9999998807907104,0.9999380111694336,1.0],"min":[-0.9999998211860657,-1.0,-1.0]},{"componentType":5125,"type":"SCALAR","bufferView":3,"count":24930,"max":[23442],"min":[0]},{"componentType":5126,"type":"VEC3","byteOffset":0,"bufferView":4,"count":23443,"max":[39.34746170043945,138.78370666503906,-7.513350009918213],"min":[-39.349971771240234,60.08934020996094,-56.73234939575195]},{"componentType":5126,"count":23443,"type":"VEC3","byteOffset":0,"bufferView":5,"max":[0.9999274611473083,0.9999945163726807,0.9945592880249023],"min":[-0.9999275207519531,-0.9998787045478821,-1.0]},{"componentType":5125,"type":"SCALAR","bufferView":6,"count":10353,"max":[9372],"min":[0]},{"componentType":5126,"type":"VEC3","byteOffset":0,"bufferView":7,"count":9373,"max":[37.500038146972656,136.93490600585938,53.148311614990234],"min":[-37.499961853027344,61.93986892700195,45.588279724121094]},{"componentType":5126,"count":9373,"type":"VEC3","byteOffset":0,"bufferView":8,"max":[0.9999984502792358,0.9998347759246826,1.0],"min":[-0.9993796348571777,-0.9998215436935425,-1.0]}],"meshes":[{"name":"eSeries_UR5e_049-mesh","extras":{"units":"meters","processed":true},"primitives":[{"attributes":{"POSITION":1,"NORMAL":2},"indices":0,"mode":4,"material":0}]},{"name":"eSeries_UR5e_085-mesh","extras":{"units":"meters","processed":true},"primitives":[{"attributes":{"POSITION":4,"NORMAL":5},"indices":3,"mode":4,"material":1}]},{"name":"eSeries_UR5e_086-mesh","extras":{"units":"meters","processed":true},"primitives":[{"attributes":{"POSITION":7,"NORMAL":8},"indices":6,"mode":4,"material":2}]}],"materials":[{"pbrMetallicRoughness":{"baseColorFactor":[0.2784313725490196,0.2784313725490196,0.2784313725490196,1.0],"roughnessFactor":1.0,"metallicFactor":0.0},"emissiveFactor":[0.0,0.0,0.0],"doubleSided":false},{"pbrMetallicRoughness":{"baseColorFactor":[0.49019607843137253,0.6784313725490196,0.8,1.0],"roughnessFactor":1.0,"metallicFactor":0.0},"emissiveFactor":[0.0,0.0,0.0],"doubleSided":false},{"pbrMetallicRoughness":{"baseColorFactor":[0.03137254901960784,0.03137254901960784,0.03137254901960784,1.0],"roughnessFactor":1.0,"metallicFactor":0.0},"emissiveFactor":[0.0,0.0,0.0],"doubleSided":false}],"nodes":[{"name":"world","children":[1,2,3]},{"name":"eSeries_UR5e_049-mesh","mesh":0,"matrix":[-0.0009999870089814067,-1.995176172649485e-26,3.2583699627330986e-10,0.0,0.0,0.0009999870089814067,-4.371079880810261e-11,0.0,-3.2583699627330986e-10,-4.371079880810261e-11,-0.0009999870089814067,0.0,0.0,0.0,0.0,1.0]},{"name":"eSeries_UR5e_085-mesh","mesh":1,"matrix":[-0.0009999870089814067,-1.995176172649485e-26,3.2583699627330986e-10,0.0,0.0,0.0009999870089814067,-4.371079880810261e-11,0.0,-3.2583699627330986e-10,-4.371079880810261e-11,-0.0009999870089814067,0.0,0.0,0.0,0.0,1.0]},{"name":"eSeries_UR5e_086-mesh","mesh":2,"matrix":[-0.0009999870089814067,-1.995176172649485e-26,3.2583699627330986e-10,0.0,0.0,0.0009999870089814067,-4.371079880810261e-11,0.0,-3.2583699627330986e-10,-4.371079880810261e-11,-0.0009999870089814067,0.0,0.0,0.0,0.0,1.0]}],"buffers":[{"uri":"gltf_buffer_0.bin","byteLength":102228},{"uri":"gltf_buffer_1.bin","byteLength":277224},{"uri":"gltf_buffer_2.bin","byteLength":277224},{"uri":"gltf_buffer_3.bin","byteLength":99720},{"uri":"gltf_buffer_4.bin","byteLength":281316},{"uri":"gltf_buffer_5.bin","byteLength":281316},{"uri":"gltf_buffer_6.bin","byteLength":41412},{"uri":"gltf_buffer_7.bin","byteLength":112476},{"uri":"gltf_buffer_8.bin","byteLength":112476}],"bufferViews":[{"buffer":0,"byteOffset":0,"byteLength":102228},{"buffer":1,"byteOffset":0,"byteLength":277224},{"buffer":2,"byteOffset":0,"byteLength":277224},{"buffer":3,"byteOffset":0,"byteLength":99720},{"buffer":4,"byteOffset":0,"byteLength":281316},{"buffer":5,"byteOffset":0,"byteLength":281316},{"buffer":6,"byteOffset":0,"byteLength":41412},{"buffer":7,"byteOffset":0,"byteLength":112476},{"buffer":8,"byteOffset":0,"byteLength":112476}]}