{"scene":0,"scenes":[{"nodes":[0],"extras":{"file_path":"/home/mspatz/code/Universal_Robots_ROS2_Description/meshes/ur5/visual/upperarm.dae","file_name":"upperarm.dae"}}],"asset":{"version":"2.0","generator":"https://github.com/mikedh/trimesh"},"accessors":[{"componentType":5125,"type":"SCALAR","bufferView":0,"count":12162,"max":[2675],"min":[0]},{"componentType":5126,"type":"VEC3","byteOffset":0,"bufferView":1,"count":2676,"max":[0.05799973011016846,0.06044507026672363,0.070499949157238],"min":[-0.05799973011016846,-0.05989973992109299,-0.0579906702041626]},{"componentType":5126,"count":2676,"type":"VEC3","byteOffset":0,"bufferView":2,"max":[1.0,0.9999598264694214,1.0],"min":[-1.0,-1.0,-0.999871015548706]},{"componentType":5125,"type":"SCALAR","bufferView":3,"count":408,"max":[137],"min":[0]},{"componentType":5126,"type":"VEC3","byteOffset":0,"bufferView":4,"count":138,"max":[0.057899829000234604,-0.059899620711803436,0.05776463821530342],"min":[-0.057899948209524155,-0.06519997119903564,-0.057764701545238495]},{"componentType":5126,"count":138,"type":"VEC3","byteOffset":0,"bufferView":5,"max":[1.0,0.0,0.9976709485054016],"min":[-1.0,-1.0,-0.9976709485054016]},{"componentType":5125,"type":"SCALAR","bufferView":6,"count":27906,"max":[6353],"min":[0]},{"componentType":5126,"type":"VEC3","byteOffset":0,"bufferView":7,"count":6354,"max":[0.05949980020523071,0.06851094216108322,0.48449990153312683],"min":[-0.05949974060058594,0.00608295202255249,0.3655000925064087]},{"componentType":5126,"count":6354,"type":"VEC3","byteOffset":0,"bufferView":8,"max":[0.9999281764030457,0.9996408820152283,1.0],"min":[-0.9999427199363708,-0.9682942628860474,-0.9999368786811829]},{"componentType":5125,"type":"SCALAR","bufferView":9,"count":12162,"max":[2674],"min":[0]},{"componentType":5126,"type":"VEC3","byteOffset":0,"bufferView":10,"count":2675,"max":[0.05799973011016846,0.06044507026672363,0.4829910099506378],"min":[-0.05799973011016846,-0.05989973992109299,0.35450008511543274]},{"componentType":5126,"count":2675,"type":"VEC3","byteOffset":0,"bufferView":11,"max":[1.0,0.9999598264694214,1.0],"min":[-1.0,-1.0,-1.0]},{"componentType":5126,"type":"VEC3","byteOffset":0,"bufferView":12,"count":138,"max":[0.057899829000234604,-0.059899620711803436,0.48276498913764954],"min":[-0.057899948209524155,-0.06519997119903564,0.367235004901886]},{"componentType":5126,"count":138,"type":"VEC3","byteOffset":0,"bufferView":13,"max":[1.0,0.0,0.9976688623428345],"min":[-1.0,-1.0,-0.9976688623428345]},{"componentType":5125,"type":"SCALAR","bufferView":14,"count":7356,"max":[1333],"min":[0]},{"componentType":5126,"type":"VEC3","byteOffset":0,"bufferView":15,"count":1334,"max":[0.057132359594106674,0.057149291038513184,0.3544999957084656],"min":[-0.057132359594106674,-0.057149291038513184,0.07050000876188278]},{"componentType":5126,"count":1334,"type":"VEC3","byteOffset":0,"bufferView":16,"max":[0.9994078278541565,0.999015212059021,1.0],"min":[-0.9997445344924927,-0.9984270930290222,-1.0]},{"componentType":5125,"type":"SCALAR","bufferView":17,"count":27906,"max":[6360],"min":[0]},{"componentType":5126,"type":"VEC3","byteOffset":0,"bufferView":18,"count":6361,"max":[0.05949980020523071,0.06851094216108322,0.05949980020523071],"min":[-0.05949974060058594,0.006083071231842041,-0.05949980020523071]},{"componentType":5126,"count":6361,"type":"VEC3","byteOffset":0,"bufferView":19,"max":[0.9999427199363708,0.9996618032455444,1.0],"min":[-0.9999281764030457,-0.9724317193031311,-0.999877393245697]}],"meshes":[{"name":"ActorShape0_0-Mesh_024-mesh","extras":{"units":"meters","processed":true},"primitives":[{"attributes":{"POSITION":1,"NORMAL":2},"indices":0,"mode":4,"material":0}]},{"name":"ActorShape0_0-Mesh_024-mesh_1","extras":{"units":"meters","processed":true},"primitives":[{"attributes":{"POSITION":4,"NORMAL":5},"indices":3,"mode":4,"material":1}]},{"name":"ActorShape1_0-Mesh_018-mesh","extras":{"units":"meters","processed":true},"primitives":[{"attributes":{"POSITION":7,"NORMAL":8},"indices":6,"mode":4,"material":2}]},{"name":"ActorShape2_0-Mesh_011-mesh","extras":{"units":"meters","processed":true},"primitives":[{"attributes":{"POSITION":10,"NORMAL":11},"indices":9,"mode":4,"material":0}]},{"name":"ActorShape2_0-Mesh_011-mesh_1","extras":{"units":"meters","processed":true},"primitives":[{"attributes":{"POSITION":12,"NORMAL":13},"indices":3,"mode":4,"material":1}]},{"name":"ActorShape3_0-Mesh_011-mesh","extras":{"units":"meters","processed":true},"primitives":[{"attributes":{"POSITION":15,"NORMAL":16},"indices":14,"mode":4,"material":3}]},{"name":"ActorShape4_0-Mesh_004-mesh","extras":{"units":"meters","processed":true},"primitives":[{"attributes":{"POSITION":18,"NORMAL":19},"indices":17,"mode":4,"material":2}]}],"materials":[{"pbrMetallicRoughness":{"baseColorFactor":[0.1411764705882353,0.1411764705882353,0.1411764705882353,1.0],"roughnessFactor":0.816496580927726,"metallicFactor":0.0},"emissiveFactor":[0.0,0.0,0.0],"doubleSided":false},{"pbrMetallicRoughness":{"baseColorFactor":[0.050980392156862744,0.050980392156862744,0.050980392156862744,1.0],"roughnessFactor":0.816496580927726,"metallicFactor":0.0},"emissiveFactor":[0.0,0.0,0.0],"doubleSided":false},{"pbrMetallicRoughness":{"baseColorFactor":[0.25098039215686274,0.34901960784313724,0.40784313725490196,1.0],"roughnessFactor":0.816496580927726,"metallicFactor":0.0},"emissiveFactor":[0.0,0.0,0.0],"doubleSided":false},{"pbrMetallicRoughness":{"baseColorFactor":[0.4196078431372549,0.4196078431372549,0.4196078431372549,1.0],"roughnessFactor":0.816496580927726,"metallicFactor":0.0},"emissiveFactor":[0.0,0.0,0.0],"doubleSided":false}],"nodes":[{"name":"world","children":[1,2,3,4,5,6,7]},{"name":"ActorShape0_0-Mesh_024-mesh","mesh":0,"matrix":[1.0,0.0,0.0,0.0,0.0,6.123233995736766e-17,-1.0,0.0,0.0,1.0,6.123233995736766e-17,0.0,0.0,0.0,0.0,1.0]},{"name":"ActorShape0_0-Mesh_024-mesh_1","mesh":1,"matrix":[1.0,0.0,0.0,0.0,0.0,6.123233995736766e-17,-1.0,0.0,0.0,1.0,6.123233995736766e-17,0.0,0.0,0.0,0.0,1.0]},{"name":"ActorShape1_0-Mesh_018-mesh","mesh":2,"matrix":[1.0,0.0,0.0,0.0,0.0,6.123233995736766e-17,-1.0,0.0,0.0,1.0,6.123233995736766e-17,0.0,0.0,0.0,0.0,1.0]},{"name":"ActorShape2_0-Mesh_011-mesh","mesh":3,"matrix":[1.0,0.0,0.0,0.0,0.0,6.123233995736766e-17,-1.0,0.0,0.0,1.0,6.123233995736766e-17,0.0,0.0,0.0,0.0,1.0]},{"name":"ActorShape2_0-Mesh_011-mesh_1","mesh":4,"matrix":[1.0,0.0,0.0,0.0,0.0,6.123233995736766e-17,-1.0,0.0,0.0,1.0,6.123233995736766e-17,0.0,0.0,0.0,0.0,1.0]},{"name":"ActorShape3_0-Mesh_011-mesh","mesh":5,"matrix":[1.0,0.0,0.0,0.0,0.0,6.123233995736766e-17,-1.0,0.0,0.0,1.0,6.123233995736766e-17,0.0,0.0,0.0,0.0,1.0]},{"name":"ActorShape4_0-Mesh_004-mesh","mesh":6,"matrix":[1.0,0.0,0.0,0.0,0.0,6.123233995736766e-17,-1.0,0.0,0.0,1.0,6.123233995736766e-17,0.0,0.0,0.0,0.0,1.0]}],"buffers":[{"uri":"gltf_buffer_0.bin","byteLength":48648},{"uri":"gltf_buffer_1.bin","byteLength":32112},{"uri":"gltf_buffer_2.bin","byteLength":32112},{"uri":"gltf_buffer_3.bin","byteLength":1632},{"uri":"gltf_buffer_4.bin","byteLength":1656},{"uri":"gltf_buffer_5.bin","byteLength":1656},{"uri":"gltf_buffer_6.bin","byteLength":111624},{"uri":"gltf_buffer_7.bin","byteLength":76248},{"uri":"gltf_buffer_8.bin","byteLength":76248},{"uri":"gltf_buffer_9.bin","byteLength":48648},{"uri":"gltf_buffer_10.bin","byteLength":32100},{"uri":"gltf_buffer_11.bin","byteLength":32100},{"uri":"gltf_buffer_12.bin","byteLength":1656},{"uri":"gltf_buffer_13.bin","byteLength":1656},{"uri":"gltf_buffer_14.bin","byteLength":29424},{"uri":"gltf_buffer_15.bin","byteLength":16008},{"uri":"gltf_buffer_16.bin","byteLength":16008},{"uri":"gltf_buffer_17.bin","byteLength":111624},{"uri":"gltf_buffer_18.bin","byteLength":76332},{"uri":"gltf_buffer_19.bin","byteLength":76332}],"bufferViews":[{"buffer":0,"byteOffset":0,"byteLength":48648},{"buffer":1,"byteOffset":0,"byteLength":32112},{"buffer":2,"byteOffset":0,"byteLength":32112},{"buffer":3,"byteOffset":0,"byteLength":1632},{"buffer":4,"byteOffset":0,"byteLength":1656},{"buffer":5,"byteOffset":0,"byteLength":1656},{"buffer":6,"byteOffset":0,"byteLength":111624},{"buffer":7,"byteOffset":0,"byteLength":76248},{"buffer":8,"byteOffset":0,"byteLength":76248},{"buffer":9,"byteOffset":0,"byteLength":48648},{"buffer":10,"byteOffset":0,"byteLength":32100},{"buffer":11,"byteOffset":0,"byteLength":32100},{"buffer":12,"byteOffset":0,"byteLength":1656},{"buffer":13,"byteOffset":0,"byteLength":1656},{"buffer":14,"byteOffset":0,"byteLength":29424},{"buffer":15,"byteOffset":0,"byteLength":16008},{"buffer":16,"byteOffset":0,"byteLength":16008},{"buffer":17,"byteOffset":0,"byteLength":111624},{"buffer":18,"byteOffset":0,"byteLength":76332},{"buffer":19,"byteOffset":0,"byteLength":76332}]}