{"scene":0,"scenes":[{"nodes":[0],"extras":{"file_path":"/home/mspatz/code/Universal_Robots_ROS2_Description/meshes/ur10e/visual/shoulder.dae","file_name":"shoulder.dae"}}],"asset":{"version":"2.0","generator":"https://github.com/mikedh/trimesh"},"accessors":[{"componentType":5125,"type":"SCALAR","bufferView":0,"count":43092,"max":[39938],"min":[0]},{"componentType":5126,"type":"VEC3","byteOffset":0,"bufferView":1,"count":39939,"max":[75.00012969970703,84.07978057861328,80.20057678222656],"min":[-75.00077819824219,-81.70233154296875,-75.0]},{"componentType":5126,"count":39939,"type":"VEC3","byteOffset":0,"bufferView":2,"max":[1.0,1.0,1.0],"min":[-1.0,-1.0,-0.9999664425849915]},{"componentType":5125,"type":"SCALAR","bufferView":3,"count":6693,"max":[6170],"min":[0]},{"componentType":5126,"type":"VEC3","byteOffset":0,"bufferView":4,"count":6171,"max":[74.97994995117188,74.693359375,94.60001373291016],"min":[-75.0,-75.30232238769531,80.19599151611328]},{"componentType":5126,"count":6171,"type":"VEC3","byteOffset":0,"bufferView":5,"max":[0.9999620318412781,0.9995230436325073,1.0],"min":[-0.9998540282249451,-0.9999620318412781,-1.0]},{"componentType":5125,"type":"SCALAR","bufferView":6,"count":40494,"max":[38202],"min":[0]},{"componentType":5126,"type":"VEC3","byteOffset":0,"bufferView":7,"count":38203,"max":[76.37123107910156,93.89717864990234,76.39153289794922],"min":[-76.37645721435547,28.277969360351562,-76.37882995605469]},{"componentType":5126,"count":38203,"type":"VEC3","byteOffset":0,"bufferView":8,"max":[0.9999263882637024,1.0,0.9996399283409119],"min":[-0.9999427795410156,-0.9999975562095642,-0.9998747706413269]}],"meshes":[{"name":"eSeries_UR10e_023-mesh","extras":{"units":"meters","processed":true},"primitives":[{"attributes":{"POSITION":1,"NORMAL":2},"indices":0,"mode":4,"material":0}]},{"name":"eSeries_UR10e_044-mesh","extras":{"units":"meters","processed":true},"primitives":[{"attributes":{"POSITION":4,"NORMAL":5},"indices":3,"mode":4,"material":1}]},{"name":"eSeries_UR10e_045-mesh","extras":{"units":"meters","processed":true},"primitives":[{"attributes":{"POSITION":7,"NORMAL":8},"indices":6,"mode":4,"material":2}]}],"materials":[{"pbrMetallicRoughness":{"baseColorFactor":[0.2784313725490196,0.2784313725490196,0.2784313725490196,1.0],"roughnessFactor":1.0,"metallicFactor":0.0},"emissiveFactor":[0.0,0.0,0.0],"doubleSided":false},{"pbrMetallicRoughness":{"baseColorFactor":[0.03137254901960784,0.03137254901960784,0.03137254901960784,1.0],"roughnessFactor":1.0,"metallicFactor":0.0},"emissiveFactor":[0.0,0.0,0.0],"doubleSided":false},{"pbrMetallicRoughness":{"baseColorFactor":[0.49019607843137253,0.6784313725490196,0.8,1.0],"roughnessFactor":1.0,"metallicFactor":0.0},"emissiveFactor":[0.0,0.0,0.0],"doubleSided":false}],"nodes":[{"name":"world","children":[1,2,3]},{"name":"eSeries_UR10e_023-mesh","mesh":0,"matrix":[-0.0009999870089814067,-1.995176172649485e-26,3.2583699627330986e-10,0.0,0.0,0.0009999870089814067,-4.371079880810261e-11,0.0,-3.2583699627330986e-10,-4.371079880810261e-11,-0.0009999870089814067,0.0,0.0,0.0,0.0,1.0]},{"name":"eSeries_UR10e_044-mesh","mesh":1,"matrix":[-0.0009999870089814067,-1.995176172649485e-26,3.2583699627330986e-10,0.0,0.0,0.0009999870089814067,-4.371079880810261e-11,0.0,-3.2583699627330986e-10,-4.371079880810261e-11,-0.0009999870089814067,0.0,0.0,0.0,0.0,1.0]},{"name":"eSeries_UR10e_045-mesh","mesh":2,"matrix":[-0.0009999870089814067,-1.995176172649485e-26,3.2583699627330986e-10,0.0,0.0,0.0009999870089814067,-4.371079880810261e-11,0.0,-3.2583699627330986e-10,-4.371079880810261e-11,-0.0009999870089814067,0.0,0.0,0.0,0.0,1.0]}],"buffers":[{"uri":"gltf_buffer_0.bin","byteLength":172368},{"uri":"gltf_buffer_1.bin","byteLength":479268},{"uri":"gltf_buffer_2.bin","byteLength":479268},{"uri":"gltf_buffer_3.bin","byteLength":26772},{"uri":"gltf_buffer_4.bin","byteLength":74052},{"uri":"gltf_buffer_5.bin","byteLength":74052},{"uri":"gltf_buffer_6.bin","byteLength":161976},{"uri":"gltf_buffer_7.bin","byteLength":458436},{"uri":"gltf_buffer_8.bin","byteLength":458436}],"bufferViews":[{"buffer":0,"byteOffset":0,"byteLength":172368},{"buffer":1,"byteOffset":0,"byteLength":479268},{"buffer":2,"byteOffset":0,"byteLength":479268},{"buffer":3,"byteOffset":0,"byteLength":26772},{"buffer":4,"byteOffset":0,"byteLength":74052},{"buffer":5,"byteOffset":0,"byteLength":74052},{"buffer":6,"byteOffset":0,"byteLength":161976},{"buffer":7,"byteOffset":0,"byteLength":458436},{"buffer":8,"byteOffset":0,"byteLength":458436}]}