{"scene":0,"scenes":[{"nodes":[0],"extras":{"file_path":"/home/mspatz/code/Universal_Robots_ROS2_Description/meshes/ur3/visual/shoulder.dae","file_name":"shoulder.dae"}}],"asset":{"version":"2.0","generator":"https://github.com/mikedh/trimesh"},"accessors":[{"componentType":5125,"type":"SCALAR","bufferView":0,"count":8004,"max":[2251],"min":[0]},{"componentType":5126,"type":"VEC3","byteOffset":0,"bufferView":1,"count":2252,"max":[0.04501330107450485,0.054003410041332245,0.04860407114028931],"min":[-0.045009490102529526,-0.04500621184706688,-0.06585097312927246]},{"componentType":5126,"count":2252,"type":"VEC3","byteOffset":0,"bufferView":2,"max":[0.9999990463256836,1.0,1.0],"min":[-0.9999930262565613,-0.9999998211860657,-1.0]},{"componentType":5125,"type":"SCALAR","bufferView":3,"count":39192,"max":[16923],"min":[0]},{"componentType":5126,"type":"VEC3","byteOffset":0,"bufferView":4,"count":16924,"max":[0.04535185918211937,0.04508918151259422,0.0570824109017849],"min":[-0.045609891414642334,-0.04589742049574852,0.010302119888365269]},{"componentType":5126,"count":16924,"type":"VEC3","byteOffset":0,"bufferView":5,"max":[0.9999025464057922,0.9999939203262329,1.0],"min":[-0.9999497532844543,-0.9998589754104614,-1.0]},{"componentType":5125,"type":"SCALAR","bufferView":6,"count":378,"max":[307],"min":[0]},{"componentType":5126,"type":"VEC3","byteOffset":0,"bufferView":7,"count":308,"max":[0.0027953980024904013,0.05375444144010544,0.04510151967406273],"min":[-0.002822935115545988,0.048238929361104965,0.03909986838698387]},{"componentType":5126,"count":308,"type":"VEC3","byteOffset":0,"bufferView":8,"max":[0.9854954481124878,0.997747004032135,1.0],"min":[-0.9981118440628052,-0.9941844940185547,-1.0]},{"componentType":5125,"type":"SCALAR","bufferView":9,"count":348,"max":[285],"min":[0]},{"componentType":5126,"type":"VEC3","byteOffset":0,"bufferView":10,"count":286,"max":[0.002657890086993575,-0.03567713126540184,0.04510097950696945],"min":[-0.0029647350311279297,-0.04117327183485031,0.035100340843200684]},{"componentType":5126,"count":286,"type":"VEC3","byteOffset":0,"bufferView":11,"max":[0.9959007501602173,0.992377519607544,1.0],"min":[-0.9956483244895935,-0.9774300456047058,-1.0]},{"componentType":5125,"type":"SCALAR","bufferView":12,"count":348,"max":[285],"min":[0]},{"componentType":5126,"type":"VEC3","byteOffset":0,"bufferView":13,"count":286,"max":[-0.030297990888357162,0.021372370421886444,0.05360101908445358],"min":[-0.03580480068922043,0.015815669670701027,0.04360032081604004]},{"componentType":5126,"count":286,"type":"VEC3","byteOffset":0,"bufferView":14,"max":[0.9906845092773438,0.9972602128982544,1.0],"min":[-0.9920049905776978,-0.9904800057411194,-1.0]},{"componentType":5125,"type":"SCALAR","bufferView":15,"count":348,"max":[285],"min":[0]},{"componentType":5126,"type":"VEC3","byteOffset":0,"bufferView":16,"count":286,"max":[0.03560096025466919,0.021357709541916847,0.05360120162367821],"min":[0.029981430619955063,0.01577037014067173,0.04360044002532959]},{"componentType":5126,"count":286,"type":"VEC3","byteOffset":0,"bufferView":17,"max":[0.9794182777404785,0.9949919581413269,1.0],"min":[-0.9998084306716919,-0.9906892776489258,-1.0]}],"meshes":[{"name":"Part__Feature009_001-mesh","extras":{"units":"meters","processed":true},"primitives":[{"attributes":{"POSITION":1,"NORMAL":2},"indices":0,"mode":4,"material":0}]},{"name":"Part__Feature004_001-mesh","extras":{"units":"meters","processed":true},"primitives":[{"attributes":{"POSITION":4,"NORMAL":5},"indices":3,"mode":4,"material":1}]},{"name":"Part__Feature008_001-mesh","extras":{"units":"meters","processed":true},"primitives":[{"attributes":{"POSITION":7,"NORMAL":8},"indices":6,"mode":4,"material":2}]},{"name":"Part__Feature007_001-mesh","extras":{"units":"meters","processed":true},"primitives":[{"attributes":{"POSITION":10,"NORMAL":11},"indices":9,"mode":4,"material":0}]},{"name":"Part__Feature005_001-mesh","extras":{"units":"meters","processed":true},"primitives":[{"attributes":{"POSITION":13,"NORMAL":14},"indices":12,"mode":4,"material":2}]},{"name":"Part__Feature006_001-mesh","extras":{"units":"meters","processed":true},"primitives":[{"attributes":{"POSITION":16,"NORMAL":17},"indices":15,"mode":4,"material":0}]}],"materials":[{"pbrMetallicRoughness":{"baseColorFactor":[0.11372549019607843,0.11372549019607843,0.11372549019607843,1.0],"roughnessFactor":0.816496580927726,"metallicFactor":0.0},"emissiveFactor":[0.0,0.0,0.0],"doubleSided":false},{"pbrMetallicRoughness":{"baseColorFactor":[0.2,0.2784313725490196,0.32941176470588235,1.0],"roughnessFactor":0.816496580927726,"metallicFactor":0.0},"emissiveFactor":[0.0,0.0,0.0],"doubleSided":false},{"pbrMetallicRoughness":{"baseColorFactor":[0.0392156862745098,0.0392156862745098,0.0392156862745098,1.0],"roughnessFactor":0.816496580927726,"metallicFactor":0.0},"emissiveFactor":[0.0,0.0,0.0],"doubleSided":false}],"nodes":[{"name":"world","children":[1,2,3,4,5,6]},{"name":"Part__Feature009_001-mesh","mesh":0,"matrix":[1.0,0.0,0.0,0.0,0.0,6.123233995736766e-17,-1.0,0.0,0.0,1.0,6.123233995736766e-17,0.0,0.0,0.0,0.0,1.0]},{"name":"Part__Feature004_001-mesh","mesh":1,"matrix":[1.0,0.0,0.0,0.0,0.0,6.123233995736766e-17,-1.0,0.0,0.0,1.0,6.123233995736766e-17,0.0,0.0,0.0,0.0,1.0]},{"name":"Part__Feature008_001-mesh","mesh":2,"matrix":[1.0,0.0,0.0,0.0,0.0,6.123233995736766e-17,-1.0,0.0,0.0,1.0,6.123233995736766e-17,0.0,0.0,0.0,0.0,1.0]},{"name":"Part__Feature007_001-mesh","mesh":3,"matrix":[1.0,0.0,0.0,0.0,0.0,6.123233995736766e-17,-1.0,0.0,0.0,1.0,6.123233995736766e-17,0.0,0.0,0.0,0.0,1.0]},{"name":"Part__Feature005_001-mesh","mesh":4,"matrix":[1.0,0.0,0.0,0.0,0.0,6.123233995736766e-17,-1.0,0.0,0.0,1.0,6.123233995736766e-17,0.0,0.0,0.0,0.0,1.0]},{"name":"Part__Feature006_001-mesh","mesh":5,"matrix":[1.0,0.0,0.0,0.0,0.0,6.123233995736766e-17,-1.0,0.0,0.0,1.0,6.123233995736766e-17,0.0,0.0,0.0,0.0,1.0]}],"buffers":[{"uri":"gltf_buffer_0.bin","byteLength":32016},{"uri":"gltf_buffer_1.bin","byteLength":27024},{"uri":"gltf_buffer_2.bin","byteLength":27024},{"uri":"gltf_buffer_3.bin","byteLength":156768},{"uri":"gltf_buffer_4.bin","byteLength":203088},{"uri":"gltf_buffer_5.bin","byteLength":203088},{"uri":"gltf_buffer_6.bin","byteLength":1512},{"uri":"gltf_buffer_7.bin","byteLength":3696},{"uri":"gltf_buffer_8.bin","byteLength":3696},{"uri":"gltf_buffer_9.bin","byteLength":1392},{"uri":"gltf_buffer_10.bin","byteLength":3432},{"uri":"gltf_buffer_11.bin","byteLength":3432},{"uri":"gltf_buffer_12.bin","byteLength":1392},{"uri":"gltf_buffer_13.bin","byteLength":3432},{"uri":"gltf_buffer_14.bin","byteLength":3432},{"uri":"gltf_buffer_15.bin","byteLength":1392},{"uri":"gltf_buffer_16.bin","byteLength":3432},{"uri":"gltf_buffer_17.bin","byteLength":3432}],"bufferViews":[{"buffer":0,"byteOffset":0,"byteLength":32016},{"buffer":1,"byteOffset":0,"byteLength":27024},{"buffer":2,"byteOffset":0,"byteLength":27024},{"buffer":3,"byteOffset":0,"byteLength":156768},{"buffer":4,"byteOffset":0,"byteLength":203088},{"buffer":5,"byteOffset":0,"byteLength":203088},{"buffer":6,"byteOffset":0,"byteLength":1512},{"buffer":7,"byteOffset":0,"byteLength":3696},{"buffer":8,"byteOffset":0,"byteLength":3696},{"buffer":9,"byteOffset":0,"byteLength":1392},{"buffer":10,"byteOffset":0,"byteLength":3432},{"buffer":11,"byteOffset":0,"byteLength":3432},{"buffer":12,"byteOffset":0,"byteLength":1392},{"buffer":13,"byteOffset":0,"byteLength":3432},{"buffer":14,"byteOffset":0,"byteLength":3432},{"buffer":15,"byteOffset":0,"byteLength":1392},{"buffer":16,"byteOffset":0,"byteLength":3432},{"buffer":17,"byteOffset":0,"byteLength":3432}]}