{"scene":0,"scenes":[{"nodes":[0],"extras":{"file_path":"/home/mspatz/code/Universal_Robots_ROS2_Description/meshes/ur5/visual/wrist1.dae","file_name":"wrist1.dae"}}],"asset":{"version":"2.0","generator":"https://github.com/mikedh/trimesh"},"accessors":[{"componentType":5125,"type":"SCALAR","bufferView":0,"count":846,"max":[285],"min":[0]},{"componentType":5126,"type":"VEC3","byteOffset":0,"bufferView":1,"count":286,"max":[0.037499960511922836,0.1304125040769577,0.04749995097517967],"min":[-0.03750007972121239,0.04750001057982445,-0.0374908410012722]},{"componentType":5126,"count":286,"type":"VEC3","byteOffset":0,"bufferView":2,"max":[1.0,0.9976688623428345,1.0],"min":[-1.0,-1.0,-1.3869300346414093e-05]},{"componentType":5125,"type":"SCALAR","bufferView":3,"count":9294,"max":[1983],"min":[0]},{"componentType":5126,"type":"VEC3","byteOffset":0,"bufferView":4,"count":1984,"max":[0.037499960511922836,0.13046739995479584,0.04224966838955879],"min":[-0.03750007972121239,0.04750001057982445,-0.039448440074920654]},{"componentType":5126,"count":1984,"type":"VEC3","byteOffset":0,"bufferView":5,"max":[1.0,0.9996630549430847,0.9999963641166687],"min":[-1.0,-0.9999725818634033,-0.9999909996986389]},{"componentType":5125,"type":"SCALAR","bufferView":6,"count":32082,"max":[6794],"min":[0]},{"componentType":5126,"type":"VEC3","byteOffset":0,"bufferView":7,"count":6795,"max":[0.03874992951750755,0.13235369324684143,-0.005912661086767912],"min":[-0.03874986991286278,0.05485372990369797,-0.05719989165663719]},{"componentType":5126,"count":6795,"type":"VEC3","byteOffset":0,"bufferView":8,"max":[0.9999808073043823,0.9998092651367188,1.0],"min":[-0.9999160766601562,-0.9999183416366577,-1.0]}],"meshes":[{"name":"ActorShape0_0-Mesh_025-mesh","extras":{"units":"meters","processed":true},"primitives":[{"attributes":{"POSITION":1,"NORMAL":2},"indices":0,"mode":4,"material":0}]},{"name":"ActorShape0_0-Mesh_025-mesh_1","extras":{"units":"meters","processed":true},"primitives":[{"attributes":{"POSITION":4,"NORMAL":5},"indices":3,"mode":4,"material":1}]},{"name":"ActorShape1_0-Mesh_019-mesh","extras":{"units":"meters","processed":true},"primitives":[{"attributes":{"POSITION":7,"NORMAL":8},"indices":6,"mode":4,"material":2}]}],"materials":[{"pbrMetallicRoughness":{"baseColorFactor":[0.050980392156862744,0.050980392156862744,0.050980392156862744,1.0],"roughnessFactor":0.816496580927726,"metallicFactor":0.0},"emissiveFactor":[0.0,0.0,0.0],"doubleSided":false},{"pbrMetallicRoughness":{"baseColorFactor":[0.1411764705882353,0.1411764705882353,0.1411764705882353,1.0],"roughnessFactor":0.816496580927726,"metallicFactor":0.0},"emissiveFactor":[0.0,0.0,0.0],"doubleSided":false},{"pbrMetallicRoughness":{"baseColorFactor":[0.25098039215686274,0.34901960784313724,0.40784313725490196,1.0],"roughnessFactor":0.816496580927726,"metallicFactor":0.0},"emissiveFactor":[0.0,0.0,0.0],"doubleSided":false}],"nodes":[{"name":"world","children":[1,2,3]},{"name":"ActorShape0_0-Mesh_025-mesh","mesh":0,"matrix":[1.0,0.0,0.0,0.0,0.0,6.123233995736766e-17,-1.0,0.0,0.0,1.0,6.123233995736766e-17,0.0,0.0,0.0,0.0,1.0]},{"name":"ActorShape0_0-Mesh_025-mesh_1","mesh":1,"matrix":[1.0,0.0,0.0,0.0,0.0,6.123233995736766e-17,-1.0,0.0,0.0,1.0,6.123233995736766e-17,0.0,0.0,0.0,0.0,1.0]},{"name":"ActorShape1_0-Mesh_019-mesh","mesh":2,"matrix":[1.0,0.0,0.0,0.0,0.0,6.123233995736766e-17,-1.0,0.0,0.0,1.0,6.123233995736766e-17,0.0,0.0,0.0,0.0,1.0]}],"buffers":[{"uri":"gltf_buffer_0.bin","byteLength":3384},{"uri":"gltf_buffer_1.bin","byteLength":3432},{"uri":"gltf_buffer_2.bin","byteLength":3432},{"uri":"gltf_buffer_3.bin","byteLength":37176},{"uri":"gltf_buffer_4.bin","byteLength":23808},{"uri":"gltf_buffer_5.bin","byteLength":23808},{"uri":"gltf_buffer_6.bin","byteLength":128328},{"uri":"gltf_buffer_7.bin","byteLength":81540},{"uri":"gltf_buffer_8.bin","byteLength":81540}],"bufferViews":[{"buffer":0,"byteOffset":0,"byteLength":3384},{"buffer":1,"byteOffset":0,"byteLength":3432},{"buffer":2,"byteOffset":0,"byteLength":3432},{"buffer":3,"byteOffset":0,"byteLength":37176},{"buffer":4,"byteOffset":0,"byteLength":23808},{"buffer":5,"byteOffset":0,"byteLength":23808},{"buffer":6,"byteOffset":0,"byteLength":128328},{"buffer":7,"byteOffset":0,"byteLength":81540},{"buffer":8,"byteOffset":0,"byteLength":81540}]}