{"scene":0,"scenes":[{"nodes":[0],"extras":{"file_path":"/home/mspatz/code/Universal_Robots_ROS2_Description/meshes/ur3/visual/upperarm.dae","file_name":"upperarm.dae"}}],"asset":{"version":"2.0","generator":"https://github.com/mikedh/trimesh"},"accessors":[{"componentType":5125,"type":"SCALAR","bufferView":0,"count":39192,"max":[21570],"min":[0]},{"componentType":5126,"type":"VEC3","byteOffset":0,"bufferView":1,"count":21571,"max":[0.04562913998961449,0.057137418538331985,0.045090071856975555],"min":[-0.04536515101790428,0.010362139903008938,-0.04588007181882858]},{"componentType":5126,"count":21571,"type":"VEC3","byteOffset":0,"bufferView":2,"max":[0.9999113082885742,0.999954342842102,1.0],"min":[-0.9999483227729797,-1.0,-0.9999093413352966]},{"componentType":5125,"type":"SCALAR","bufferView":3,"count":348,"max":[289],"min":[0]},{"componentType":5126,"type":"VEC3","byteOffset":0,"bufferView":4,"count":290,"max":[0.03579330071806908,0.05365030840039253,0.02138531021773815],"min":[0.03027760051190853,0.04365025833249092,0.015842489898204803]},{"componentType":5126,"count":290,"type":"VEC3","byteOffset":0,"bufferView":5,"max":[0.9846583604812622,1.0,0.9908910989761353],"min":[-0.9914353489875793,-1.0,-0.9993287920951843]},{"componentType":5125,"type":"SCALAR","bufferView":6,"count":348,"max":[287],"min":[0]},{"componentType":5126,"type":"VEC3","byteOffset":0,"bufferView":7,"count":288,"max":[0.002904831897467375,0.04515032842755318,-0.035645898431539536],"min":[-0.002621293067932129,0.035150278359651566,-0.04119914025068283]},{"componentType":5126,"count":288,"type":"VEC3","byteOffset":0,"bufferView":8,"max":[0.9998593926429749,1.0,0.9979771375656128],"min":[-0.997142493724823,-1.0,-0.9987934231758118]},{"componentType":5125,"type":"SCALAR","bufferView":9,"count":378,"max":[315],"min":[0]},{"componentType":5126,"type":"VEC3","byteOffset":0,"bufferView":10,"count":316,"max":[0.0027679800987243652,0.045149918645620346,0.05372457951307297],"min":[-0.0027586219366639853,0.03914982080459595,0.04822266101837158]},{"componentType":5126,"count":316,"type":"VEC3","byteOffset":0,"bufferView":11,"max":[0.9907369017601013,1.0,0.9983503222465515],"min":[-0.9962407946586609,-1.0,-0.9990510940551758]},{"componentType":5125,"type":"SCALAR","bufferView":12,"count":8007,"max":[2618],"min":[0]},{"componentType":5126,"type":"VEC3","byteOffset":0,"bufferView":13,"count":2619,"max":[0.0450095497071743,0.048630889505147934,0.05400288105010986],"min":[-0.04500693082809448,-0.06580048054456711,-0.045005910098552704]},{"componentType":5126,"count":2619,"type":"VEC3","byteOffset":0,"bufferView":14,"max":[0.9999997615814209,0.9999732971191406,1.0],"min":[-0.999999463558197,-1.0,-0.9999995827674866]},{"componentType":5125,"type":"SCALAR","bufferView":15,"count":2472,"max":[801],"min":[0]},{"componentType":5126,"type":"VEC3","byteOffset":0,"bufferView":16,"count":802,"max":[0.0448906384408474,0.04502379149198532,0.19905030727386475],"min":[-0.044979389756917953,-0.04508113116025925,0.051850080490112305]},{"componentType":5126,"count":802,"type":"VEC3","byteOffset":0,"bufferView":17,"max":[0.999758243560791,0.9998931884765625,1.0],"min":[-0.9999649524688721,-0.9970735311508179,-1.0]},{"componentType":5125,"type":"SCALAR","bufferView":18,"count":330,"max":[109],"min":[0]},{"componentType":5126,"type":"VEC3","byteOffset":0,"bufferView":19,"count":110,"max":[0.03705257177352905,0.037739090621471405,0.19815030694007874],"min":[-0.03802561014890671,-0.037827249616384506,0.1896498054265976]},{"componentType":5126,"count":110,"type":"VEC3","byteOffset":0,"bufferView":20,"max":[0.9968593120574951,0.9937571287155151,1.0],"min":[-0.9999402165412903,-0.9971896409988403,-1.0]},{"componentType":5125,"type":"SCALAR","bufferView":21,"count":330,"max":[109],"min":[0]},{"componentType":5126,"type":"VEC3","byteOffset":0,"bufferView":22,"count":110,"max":[0.04506777971982956,0.04551684111356735,0.06265020370483398],"min":[-0.04560232162475586,-0.045603811740875244,0.053999900817871094]},{"componentType":5126,"count":110,"type":"VEC3","byteOffset":0,"bufferView":23,"max":[0.9997968673706055,0.9998882412910461,1.0],"min":[-0.9998598694801331,-0.9992508292198181,-1.0]},{"componentType":5125,"type":"SCALAR","bufferView":24,"count":330,"max":[111],"min":[0]},{"componentType":5126,"type":"VEC3","byteOffset":0,"bufferView":25,"count":112,"max":[0.0376436710357666,-0.04220002144575119,0.28141748905181885],"min":[-0.03804469108581543,-0.05030030012130737,0.20599569380283356]},{"componentType":5126,"count":112,"type":"VEC3","byteOffset":0,"bufferView":26,"max":[0.999832808971405,1.0,0.9999175667762756],"min":[-0.9999369978904724,-1.0,-0.9999157190322876]},{"componentType":5125,"type":"SCALAR","bufferView":27,"count":4266,"max":[1245],"min":[0]},{"componentType":5126,"type":"VEC3","byteOffset":0,"bufferView":28,"count":1246,"max":[0.03877604007720947,0.05725007876753807,0.2823924124240875],"min":[-0.038732290267944336,0.005964993964880705,0.20483280718326569]},{"componentType":5126,"count":1246,"type":"VEC3","byteOffset":0,"bufferView":29,"max":[0.9998546242713928,0.9998587965965271,0.9999945163726807],"min":[-0.9997609257698059,-0.9907299280166626,-0.9997639060020447]},{"componentType":5125,"type":"SCALAR","bufferView":30,"count":3204,"max":[786],"min":[0]},{"componentType":5126,"type":"VEC3","byteOffset":0,"bufferView":31,"count":787,"max":[0.03750859946012497,0.039490580558776855,0.2811793088912964],"min":[-0.03750789165496826,-0.042200978845357895,0.19814980030059814]},{"componentType":5126,"count":787,"type":"VEC3","byteOffset":0,"bufferView":32,"max":[0.9999970197677612,0.9990995526313782,0.9992730021476746],"min":[-0.9999837875366211,-1.0,-1.0]}],"meshes":[{"name":"Part__Feature010-mesh","extras":{"units":"meters","processed":true},"primitives":[{"attributes":{"POSITION":1,"NORMAL":2},"indices":0,"mode":4,"material":0}]},{"name":"Part__Feature011-mesh","extras":{"units":"meters","processed":true},"primitives":[{"attributes":{"POSITION":4,"NORMAL":5},"indices":3,"mode":4,"material":1}]},{"name":"Part__Feature013-mesh","extras":{"units":"meters","processed":true},"primitives":[{"attributes":{"POSITION":7,"NORMAL":8},"indices":6,"mode":4,"material":1}]},{"name":"Part__Feature014-mesh","extras":{"units":"meters","processed":true},"primitives":[{"attributes":{"POSITION":10,"NORMAL":11},"indices":9,"mode":4,"material":1}]},{"name":"Part__Feature015-mesh","extras":{"units":"meters","processed":true},"primitives":[{"attributes":{"POSITION":13,"NORMAL":14},"indices":12,"mode":4,"material":1}]},{"name":"Part__Feature016-mesh","extras":{"units":"meters","processed":true},"primitives":[{"attributes":{"POSITION":16,"NORMAL":17},"indices":15,"mode":4,"material":2}]},{"name":"Part__Feature017-mesh","extras":{"units":"meters","processed":true},"primitives":[{"attributes":{"POSITION":19,"NORMAL":20},"indices":18,"mode":4,"material":1}]},{"name":"Part__Feature018-mesh","extras":{"units":"meters","processed":true},"primitives":[{"attributes":{"POSITION":22,"NORMAL":23},"indices":21,"mode":4,"material":1}]},{"name":"Part__Feature020-mesh","extras":{"units":"meters","processed":true},"primitives":[{"attributes":{"POSITION":25,"NORMAL":26},"indices":24,"mode":4,"material":1}]},{"name":"Part__Feature021-mesh","extras":{"units":"meters","processed":true},"primitives":[{"attributes":{"POSITION":28,"NORMAL":29},"indices":27,"mode":4,"material":0}]},{"name":"Part__Feature022-mesh","extras":{"units":"meters","processed":true},"primitives":[{"attributes":{"POSITION":31,"NORMAL":32},"indices":30,"mode":4,"material":1}]}],"materials":[{"pbrMetallicRoughness":{"baseColorFactor":[0.25098039215686274,0.34901960784313724,0.40784313725490196,1.0],"roughnessFactor":0.816496580927726,"metallicFactor":0.0},"emissiveFactor":[0.0,0.0,0.0],"doubleSided":false},{"pbrMetallicRoughness":{"baseColorFactor":[0.1411764705882353,0.1411764705882353,0.1411764705882353,1.0],"roughnessFactor":0.816496580927726,"metallicFactor":0.0},"emissiveFactor":[0.0,0.0,0.0],"doubleSided":false},{"pbrMetallicRoughness":{"baseColorFactor":[0.33725490196078434,0.33725490196078434,0.33725490196078434,1.0],"roughnessFactor":0.816496580927726,"metallicFactor":0.0},"emissiveFactor":[0.0,0.0,0.0],"doubleSided":false}],"nodes":[{"name":"world","children":[1,2,3,4,5,6,7,8,9,10,11]},{"name":"Part__Feature010-mesh","mesh":0,"matrix":[1.0,0.0,0.0,0.0,0.0,6.123233995736766e-17,-1.0,0.0,0.0,1.0,6.123233995736766e-17,0.0,0.0,0.0,0.0,1.0]},{"name":"Part__Feature011-mesh","mesh":1,"matrix":[1.0,0.0,0.0,0.0,0.0,6.123233995736766e-17,-1.0,0.0,0.0,1.0,6.123233995736766e-17,0.0,0.0,0.0,0.0,1.0]},{"name":"Part__Feature013-mesh","mesh":2,"matrix":[1.0,0.0,0.0,0.0,0.0,6.123233995736766e-17,-1.0,0.0,0.0,1.0,6.123233995736766e-17,0.0,0.0,0.0,0.0,1.0]},{"name":"Part__Feature014-mesh","mesh":3,"matrix":[1.0,0.0,0.0,0.0,0.0,6.123233995736766e-17,-1.0,0.0,0.0,1.0,6.123233995736766e-17,0.0,0.0,0.0,0.0,1.0]},{"name":"Part__Feature015-mesh","mesh":4,"matrix":[1.0,0.0,0.0,0.0,0.0,6.123233995736766e-17,-1.0,0.0,0.0,1.0,6.123233995736766e-17,0.0,0.0,0.0,0.0,1.0]},{"name":"Part__Feature016-mesh","mesh":5,"matrix":[1.0,0.0,0.0,0.0,0.0,6.123233995736766e-17,-1.0,0.0,0.0,1.0,6.123233995736766e-17,0.0,0.0,0.0,0.0,1.0]},{"name":"Part__Feature017-mesh","mesh":6,"matrix":[1.0,0.0,0.0,0.0,0.0,6.123233995736766e-17,-1.0,0.0,0.0,1.0,6.123233995736766e-17,0.0,0.0,0.0,0.0,1.0]},{"name":"Part__Feature018-mesh","mesh":7,"matrix":[1.0,0.0,0.0,0.0,0.0,6.123233995736766e-17,-1.0,0.0,0.0,1.0,6.123233995736766e-17,0.0,0.0,0.0,0.0,1.0]},{"name":"Part__Feature020-mesh","mesh":8,"matrix":[1.0,0.0,0.0,0.0,0.0,6.123233995736766e-17,-1.0,0.0,0.0,1.0,6.123233995736766e-17,0.0,0.0,0.0,0.0,1.0]},{"name":"Part__Feature021-mesh","mesh":9,"matrix":[1.0,0.0,0.0,0.0,0.0,6.123233995736766e-17,-1.0,0.0,0.0,1.0,6.123233995736766e-17,0.0,0.0,0.0,0.0,1.0]},{"name":"Part__Feature022-mesh","mesh":10,"matrix":[1.0,0.0,0.0,0.0,0.0,6.123233995736766e-17,-1.0,0.0,0.0,1.0,6.123233995736766e-17,0.0,0.0,0.0,0.0,1.0]}],"buffers":[{"uri":"gltf_buffer_0.bin","byteLength":156768},{"uri":"gltf_buffer_1.bin","byteLength":258852},{"uri":"gltf_buffer_2.bin","byteLength":258852},{"uri":"gltf_buffer_3.bin","byteLength":1392},{"uri":"gltf_buffer_4.bin","byteLength":3480},{"uri":"gltf_buffer_5.bin","byteLength":3480},{"uri":"gltf_buffer_6.bin","byteLength":1392},{"uri":"gltf_buffer_7.bin","byteLength":3456},{"uri":"gltf_buffer_8.bin","byteLength":3456},{"uri":"gltf_buffer_9.bin","byteLength":1512},{"uri":"gltf_buffer_10.bin","byteLength":3792},{"uri":"gltf_buffer_11.bin","byteLength":3792},{"uri":"gltf_buffer_12.bin","byteLength":32028},{"uri":"gltf_buffer_13.bin","byteLength":31428},{"uri":"gltf_buffer_14.bin","byteLength":31428},{"uri":"gltf_buffer_15.bin","byteLength":9888},{"uri":"gltf_buffer_16.bin","byteLength":9624},{"uri":"gltf_buffer_17.bin","byteLength":9624},{"uri":"gltf_buffer_18.bin","byteLength":1320},{"uri":"gltf_buffer_19.bin","byteLength":1320},{"uri":"gltf_buffer_20.bin","byteLength":1320},{"uri":"gltf_buffer_21.bin","byteLength":1320},{"uri":"gltf_buffer_22.bin","byteLength":1320},{"uri":"gltf_buffer_23.bin","byteLength":1320},{"uri":"gltf_buffer_24.bin","byteLength":1320},{"uri":"gltf_buffer_25.bin","byteLength":1344},{"uri":"gltf_buffer_26.bin","byteLength":1344},{"uri":"gltf_buffer_27.bin","byteLength":17064},{"uri":"gltf_buffer_28.bin","byteLength":14952},{"uri":"gltf_buffer_29.bin","byteLength":14952},{"uri":"gltf_buffer_30.bin","byteLength":12816},{"uri":"gltf_buffer_31.bin","byteLength":9444},{"uri":"gltf_buffer_32.bin","byteLength":9444}],"bufferViews":[{"buffer":0,"byteOffset":0,"byteLength":156768},{"buffer":1,"byteOffset":0,"byteLength":258852},{"buffer":2,"byteOffset":0,"byteLength":258852},{"buffer":3,"byteOffset":0,"byteLength":1392},{"buffer":4,"byteOffset":0,"byteLength":3480},{"buffer":5,"byteOffset":0,"byteLength":3480},{"buffer":6,"byteOffset":0,"byteLength":1392},{"buffer":7,"byteOffset":0,"byteLength":3456},{"buffer":8,"byteOffset":0,"byteLength":3456},{"buffer":9,"byteOffset":0,"byteLength":1512},{"buffer":10,"byteOffset":0,"byteLength":3792},{"buffer":11,"byteOffset":0,"byteLength":3792},{"buffer":12,"byteOffset":0,"byteLength":32028},{"buffer":13,"byteOffset":0,"byteLength":31428},{"buffer":14,"byteOffset":0,"byteLength":31428},{"buffer":15,"byteOffset":0,"byteLength":9888},{"buffer":16,"byteOffset":0,"byteLength":9624},{"buffer":17,"byteOffset":0,"byteLength":9624},{"buffer":18,"byteOffset":0,"byteLength":1320},{"buffer":19,"byteOffset":0,"byteLength":1320},{"buffer":20,"byteOffset":0,"byteLength":1320},{"buffer":21,"byteOffset":0,"byteLength":1320},{"buffer":22,"byteOffset":0,"byteLength":1320},{"buffer":23,"byteOffset":0,"byteLength":1320},{"buffer":24,"byteOffset":0,"byteLength":1320},{"buffer":25,"byteOffset":0,"byteLength":1344},{"buffer":26,"byteOffset":0,"byteLength":1344},{"buffer":27,"byteOffset":0,"byteLength":17064},{"buffer":28,"byteOffset":0,"byteLength":14952},{"buffer":29,"byteOffset":0,"byteLength":14952},{"buffer":30,"byteOffset":0,"byteLength":12816},{"buffer":31,"byteOffset":0,"byteLength":9444},{"buffer":32,"byteOffset":0,"byteLength":9444}]}