{"scene":0,"scenes":[{"nodes":[0],"extras":{"file_path":"/home/mspatz/code/Universal_Robots_ROS2_Description/meshes/ur20/visual/upperarm.dae","file_name":"upperarm.dae"}}],"asset":{"version":"2.0","generator":"https://github.com/mikedh/trimesh"},"accessors":[{"componentType":5125,"type":"SCALAR","bufferView":0,"count":2814,"max":[637],"min":[0]},{"componentType":5126,"type":"VEC3","byteOffset":0,"bufferView":1,"count":638,"max":[0.06429415196180344,0.2221089005470276,0.939638614654541],"min":[-0.06406170129776001,0.09327702969312668,-0.0931617021560669]},{"componentType":5121,"normalized":true,"type":"VEC4","byteOffset":0,"bufferView":2,"count":638,"max":[255,255,255,255],"min":[255,255,255,255]},{"componentType":5126,"count":638,"type":"VEC3","byteOffset":0,"bufferView":3,"max":[0.9648717641830444,0.998772144317627,0.9999443292617798],"min":[-0.9695484042167664,-0.4843757748603821,-0.9999447464942932]},{"componentType":5125,"type":"SCALAR","bufferView":4,"count":6696,"max":[1651],"min":[0]},{"componentType":5126,"type":"VEC3","byteOffset":0,"bufferView":5,"count":1652,"max":[0.09034007042646408,0.21801359951496124,0.9374547004699707],"min":[-0.08997683972120285,-0.0008882730035111308,-0.08994346112012863]},{"componentType":5126,"type":"VEC2","byteOffset":0,"bufferView":7,"count":1652,"max":[0.9986544251441956,0.9989272356033325],"min":[0.001072764047421515,0.0014709234237670898]},{"componentType":5126,"count":1652,"type":"VEC3","byteOffset":0,"bufferView":8,"max":[0.9999967217445374,1.0,1.0],"min":[-0.9999986290931702,-1.0,-1.0]},{"componentType":5125,"type":"SCALAR","bufferView":9,"count":1434,"max":[319],"min":[0]},{"componentType":5126,"type":"VEC3","byteOffset":0,"bufferView":10,"count":320,"max":[0.09034007042646408,0.21801359951496124,0.772734522819519],"min":[-0.08964312076568604,0.03801316022872925,0.12998279929161072]},{"componentType":5126,"type":"VEC2","byteOffset":0,"bufferView":11,"count":320,"max":[0.8048911094665527,0.9989271759986877],"min":[0.001072764047421515,0.5185167789459229]},{"componentType":5126,"count":320,"type":"VEC3","byteOffset":0,"bufferView":12,"max":[0.9999948740005493,0.9999986290931702,1.0],"min":[-0.9999923706054688,-0.9999967217445374,0.0]},{"componentType":5125,"type":"SCALAR","bufferView":13,"count":756,"max":[279],"min":[0]},{"componentType":5126,"type":"VEC3","byteOffset":0,"bufferView":14,"count":280,"max":[0.09034007042646408,0.21801359951496124,0.772734522819519],"min":[-0.08997678011655807,-0.0001502189988968894,-0.08987683057785034]},{"componentType":5126,"type":"VEC2","byteOffset":0,"bufferView":15,"count":280,"max":[0.9925493001937866,0.9989272356033325],"min":[0.14917820692062378,0.015780627727508545]},{"componentType":5126,"count":280,"type":"VEC3","byteOffset":0,"bufferView":16,"max":[0.9999967217445374,0.9999985694885254,1.0],"min":[-0.9999986290931702,-0.9999967217445374,-1.0]}],"meshes":[{"name":"Cylinder_018-mesh","extras":{"units":"meters","processed":true},"primitives":[{"attributes":{"POSITION":1,"COLOR_0":2,"NORMAL":3},"indices":0,"mode":4}]},{"name":"Cylinder_019-mesh","extras":{"units":"meters","processed":true},"primitives":[{"attributes":{"POSITION":5,"TEXCOORD_0":6,"NORMAL":7},"indices":4,"mode":4,"material":0}]},{"name":"Cylinder_020-mesh","extras":{"units":"meters","processed":true},"primitives":[{"attributes":{"POSITION":9,"TEXCOORD_0":10,"NORMAL":11},"indices":8,"mode":4,"material":0}]},{"name":"Cylinder_021-mesh","extras":{"units":"meters","processed":true},"primitives":[{"attributes":{"POSITION":13,"TEXCOORD_0":14,"NORMAL":15},"indices":12,"mode":4,"material":0}]}],"images":[{"bufferView":6,"mimeType":"image/png"}],"textures":[{"source":0}],"materials":[{"pbrMetallicRoughness":{"baseColorTexture":{"index":0},"baseColorFactor":[1.0,1.0,1.0,1.0],"roughnessFactor":1.0,"metallicFactor":0.0},"emissiveFactor":[0.0,0.0,0.0],"doubleSided":false}],"nodes":[{"name":"world","children":[1,2,3,4]},{"name":"Cylinder_018-mesh","mesh":0,"matrix":[1.0,0.0,0.0,0.0,0.0,6.123233995736766e-17,-1.0,0.0,0.0,1.0,6.123233995736766e-17,0.0,0.00011398200149415061,-7.969511631185623e-18,0.13015200197696686,1.0]},{"name":"Cylinder_019-mesh","mesh":1,"matrix":[1.0,0.0,0.0,0.0,0.0,6.123233995736766e-17,-1.0,0.0,0.0,1.0,6.123233995736766e-17,0.0,0.00011398200149415061,-7.969511631185623e-18,0.13015200197696686,1.0]},{"name":"Cylinder_020-mesh","mesh":2,"matrix":[1.0,0.0,0.0,0.0,0.0,6.123233995736766e-17,-1.0,0.0,0.0,1.0,6.123233995736766e-17,0.0,0.00011398200149415061,-7.969511631185623e-18,0.13015200197696686,1.0]},{"name":"Cylinder_021-mesh","mesh":3,"matrix":[1.0,0.0,0.0,0.0,0.0,6.123233995736766e-17,-1.0,0.0,0.0,1.0,6.123233995736766e-17,0.0,0.00011398200149415061,-7.969511631185623e-18,0.13015200197696686,1.0]}],"buffers":[{"uri":"gltf_buffer_0.bin","byteLength":11256},{"uri":"gltf_buffer_1.bin","byteLength":7656},{"uri":"gltf_buffer_2.bin","byteLength":2552},{"uri":"gltf_buffer_3.bin","byteLength":7656},{"uri":"gltf_buffer_4.bin","byteLength":26784},{"uri":"gltf_buffer_5.bin","byteLength":19824},{"uri":"gltf_buffer_6.bin","byteLength":1276308},{"uri":"gltf_buffer_7.bin","byteLength":13216},{"uri":"gltf_buffer_8.bin","byteLength":19824},{"uri":"gltf_buffer_9.bin","byteLength":5736},{"uri":"gltf_buffer_10.bin","byteLength":3840},{"uri":"gltf_buffer_11.bin","byteLength":2560},{"uri":"gltf_buffer_12.bin","byteLength":3840},{"uri":"gltf_buffer_13.bin","byteLength":3024},{"uri":"gltf_buffer_14.bin","byteLength":3360},{"uri":"gltf_buffer_15.bin","byteLength":2240},{"uri":"gltf_buffer_16.bin","byteLength":3360}],"bufferViews":[{"buffer":0,"byteOffset":0,"byteLength":11256},{"buffer":1,"byteOffset":0,"byteLength":7656},{"buffer":2,"byteOffset":0,"byteLength":2552},{"buffer":3,"byteOffset":0,"byteLength":7656},{"buffer":4,"byteOffset":0,"byteLength":26784},{"buffer":5,"byteOffset":0,"byteLength":19824},{"buffer":6,"byteOffset":0,"byteLength":1276308},{"buffer":7,"byteOffset":0,"byteLength":13216},{"buffer":8,"byteOffset":0,"byteLength":19824},{"buffer":9,"byteOffset":0,"byteLength":5736},{"buffer":10,"byteOffset":0,"byteLength":3840},{"buffer":11,"byteOffset":0,"byteLength":2560},{"buffer":12,"byteOffset":0,"byteLength":3840},{"buffer":13,"byteOffset":0,"byteLength":3024},{"buffer":14,"byteOffset":0,"byteLength":3360},{"buffer":15,"byteOffset":0,"byteLength":2240},{"buffer":16,"byteOffset":0,"byteLength":3360}]}